<mxfile host="65bd71144e">
    <diagram id="ODMF-u-2JTUA_rCbzG37" name="第 1 页">
        <mxGraphModel dx="1176" dy="665" grid="1" gridSize="10" guides="1" tooltips="1" connect="1" arrows="1" fold="1" page="1" pageScale="1" pageWidth="827" pageHeight="1169" math="0" shadow="0">
            <root>
                <mxCell id="0"/>
                <mxCell id="1" parent="0"/>
                <mxCell id="167" value="" style="rounded=0;whiteSpace=wrap;html=1;fillColor=#ffe6cc;strokeColor=#d79b00;" parent="1" vertex="1">
                    <mxGeometry x="150" y="1870" width="340" height="320" as="geometry"/>
                </mxCell>
                <mxCell id="104" value="" style="rounded=0;whiteSpace=wrap;html=1;fillColor=#dae8fc;strokeColor=#6c8ebf;" parent="1" vertex="1">
                    <mxGeometry x="160" y="930" width="310" height="170" as="geometry"/>
                </mxCell>
                <mxCell id="38" value="" style="rounded=0;whiteSpace=wrap;html=1;fillColor=#dae8fc;strokeColor=#6c8ebf;" parent="1" vertex="1">
                    <mxGeometry x="733" y="360" width="313" height="220" as="geometry"/>
                </mxCell>
                <mxCell id="12" style="edgeStyle=none;html=1;exitX=1;exitY=0.5;exitDx=0;exitDy=0;entryX=0;entryY=0.5;entryDx=0;entryDy=0;" parent="1" source="3" target="10" edge="1">
                    <mxGeometry relative="1" as="geometry"/>
                </mxCell>
                <mxCell id="13" style="edgeStyle=none;html=1;exitX=1;exitY=0.5;exitDx=0;exitDy=0;entryX=0;entryY=0.5;entryDx=0;entryDy=0;" parent="1" source="3" target="11" edge="1">
                    <mxGeometry relative="1" as="geometry"/>
                </mxCell>
                <mxCell id="3" value="缓存雪崩" style="rounded=0;whiteSpace=wrap;html=1;fillColor=#dae8fc;strokeColor=#6c8ebf;" parent="1" vertex="1">
                    <mxGeometry x="190" y="50" width="110" height="30" as="geometry"/>
                </mxCell>
                <mxCell id="7" style="edgeStyle=none;html=1;exitX=1;exitY=0.5;exitDx=0;exitDy=0;entryX=0;entryY=0.5;entryDx=0;entryDy=0;" parent="1" source="4" target="3" edge="1">
                    <mxGeometry relative="1" as="geometry"/>
                </mxCell>
                <mxCell id="8" style="edgeStyle=none;html=1;exitX=1;exitY=0.5;exitDx=0;exitDy=0;" parent="1" source="4" target="6" edge="1">
                    <mxGeometry relative="1" as="geometry"/>
                </mxCell>
                <mxCell id="9" style="edgeStyle=none;html=1;exitX=1;exitY=0.5;exitDx=0;exitDy=0;entryX=0;entryY=0.5;entryDx=0;entryDy=0;" parent="1" source="4" target="5" edge="1">
                    <mxGeometry relative="1" as="geometry"/>
                </mxCell>
                <mxCell id="4" value="redis常见问题" style="rounded=0;whiteSpace=wrap;html=1;fillColor=#f8cecc;strokeColor=#b85450;" parent="1" vertex="1">
                    <mxGeometry x="40" y="120" width="110" height="30" as="geometry"/>
                </mxCell>
                <mxCell id="18" style="edgeStyle=none;html=1;entryX=0;entryY=0.5;entryDx=0;entryDy=0;" parent="1" source="5" target="15" edge="1">
                    <mxGeometry relative="1" as="geometry"/>
                </mxCell>
                <mxCell id="5" value="缓存穿透" style="rounded=0;whiteSpace=wrap;html=1;fillColor=#dae8fc;strokeColor=#6c8ebf;" parent="1" vertex="1">
                    <mxGeometry x="190" y="170" width="110" height="30" as="geometry"/>
                </mxCell>
                <mxCell id="17" style="edgeStyle=none;html=1;exitX=1;exitY=0.5;exitDx=0;exitDy=0;entryX=0;entryY=0.5;entryDx=0;entryDy=0;" parent="1" source="6" target="14" edge="1">
                    <mxGeometry relative="1" as="geometry"/>
                </mxCell>
                <mxCell id="6" value="缓存击穿" style="rounded=0;whiteSpace=wrap;html=1;fillColor=#dae8fc;strokeColor=#6c8ebf;" parent="1" vertex="1">
                    <mxGeometry x="190" y="120" width="110" height="30" as="geometry"/>
                </mxCell>
                <mxCell id="10" value="大量缓存数据同时过期" style="rounded=0;whiteSpace=wrap;html=1;fillColor=#e1d5e7;strokeColor=#9673a6;" parent="1" vertex="1">
                    <mxGeometry x="340" y="30" width="140" height="30" as="geometry"/>
                </mxCell>
                <mxCell id="11" value="redis宕机" style="rounded=0;whiteSpace=wrap;html=1;fillColor=#e1d5e7;strokeColor=#9673a6;" parent="1" vertex="1">
                    <mxGeometry x="340" y="70" width="140" height="30" as="geometry"/>
                </mxCell>
                <mxCell id="14" value="热点数据缓存过期" style="rounded=0;whiteSpace=wrap;html=1;fillColor=#e1d5e7;strokeColor=#9673a6;" parent="1" vertex="1">
                    <mxGeometry x="340" y="120" width="140" height="30" as="geometry"/>
                </mxCell>
                <mxCell id="15" value="请求的数据不存在缓存，也不存在数据库" style="rounded=0;whiteSpace=wrap;html=1;fillColor=#e1d5e7;strokeColor=#9673a6;" parent="1" vertex="1">
                    <mxGeometry x="340" y="165" width="140" height="40" as="geometry"/>
                </mxCell>
                <mxCell id="24" value="缓存雪崩" style="rounded=0;whiteSpace=wrap;html=1;fillColor=#f8cecc;strokeColor=#b85450;" parent="1" vertex="1">
                    <mxGeometry x="355" y="230" width="110" height="30" as="geometry"/>
                </mxCell>
                <mxCell id="29" style="edgeStyle=none;html=1;exitX=1;exitY=0.5;exitDx=0;exitDy=0;entryX=0;entryY=0.5;entryDx=0;entryDy=0;" parent="1" source="26" target="32" edge="1">
                    <mxGeometry relative="1" as="geometry"/>
                </mxCell>
                <mxCell id="35" style="edgeStyle=none;html=1;exitX=1;exitY=0.5;exitDx=0;exitDy=0;entryX=0;entryY=0.5;entryDx=0;entryDy=0;" parent="1" source="26" target="30" edge="1">
                    <mxGeometry relative="1" as="geometry"/>
                </mxCell>
                <mxCell id="70" style="edgeStyle=none;rounded=0;html=1;exitX=1;exitY=0.5;exitDx=0;exitDy=0;entryX=0;entryY=0.5;entryDx=0;entryDy=0;strokeColor=#000000;" parent="1" source="26" target="69" edge="1">
                    <mxGeometry relative="1" as="geometry"/>
                </mxCell>
                <mxCell id="72" style="edgeStyle=none;rounded=0;html=1;exitX=1;exitY=0.5;exitDx=0;exitDy=0;entryX=0;entryY=0.5;entryDx=0;entryDy=0;strokeColor=#000000;" parent="1" source="26" target="71" edge="1">
                    <mxGeometry relative="1" as="geometry"/>
                </mxCell>
                <mxCell id="26" value="大量缓存数据同时过期" style="rounded=0;whiteSpace=wrap;html=1;fillColor=#ffe6cc;strokeColor=#d79b00;" parent="1" vertex="1">
                    <mxGeometry x="40" y="390" width="140" height="30" as="geometry"/>
                </mxCell>
                <mxCell id="77" style="edgeStyle=none;rounded=0;html=1;exitX=1;exitY=0.5;exitDx=0;exitDy=0;entryX=0;entryY=0.5;entryDx=0;entryDy=0;strokeColor=#000000;" parent="1" source="27" target="75" edge="1">
                    <mxGeometry relative="1" as="geometry"/>
                </mxCell>
                <mxCell id="78" style="edgeStyle=none;rounded=0;html=1;exitX=1;exitY=0.5;exitDx=0;exitDy=0;entryX=0;entryY=0.5;entryDx=0;entryDy=0;strokeColor=#000000;" parent="1" source="27" target="76" edge="1">
                    <mxGeometry relative="1" as="geometry"/>
                </mxCell>
                <mxCell id="27" value="redis宕机" style="rounded=0;whiteSpace=wrap;html=1;fillColor=#ffe6cc;strokeColor=#d79b00;" parent="1" vertex="1">
                    <mxGeometry x="40" y="661" width="120" height="30" as="geometry"/>
                </mxCell>
                <mxCell id="28" value="给数据设置过期时间时，给&lt;b&gt;过期时间添加随机数&lt;/b&gt;" style="rounded=0;whiteSpace=wrap;html=1;fillColor=#e1d5e7;strokeColor=#9673a6;" parent="1" vertex="1">
                    <mxGeometry x="390" y="340" width="270" height="30" as="geometry"/>
                </mxCell>
                <mxCell id="37" style="edgeStyle=none;html=1;exitX=1;exitY=0.5;exitDx=0;exitDy=0;entryX=0;entryY=0.5;entryDx=0;entryDy=0;" parent="1" source="30" target="36" edge="1">
                    <mxGeometry relative="1" as="geometry"/>
                </mxCell>
                <mxCell id="30" value="互斥锁" style="rounded=0;whiteSpace=wrap;html=1;fillColor=#dae8fc;strokeColor=#6c8ebf;" parent="1" vertex="1">
                    <mxGeometry x="250" y="390" width="80" height="30" as="geometry"/>
                </mxCell>
                <mxCell id="33" value="" style="edgeStyle=none;html=1;" parent="1" source="32" target="28" edge="1">
                    <mxGeometry relative="1" as="geometry"/>
                </mxCell>
                <mxCell id="32" value="均匀设置过期时间" style="rounded=0;whiteSpace=wrap;html=1;fillColor=#dae8fc;strokeColor=#6c8ebf;" parent="1" vertex="1">
                    <mxGeometry x="250" y="340" width="110" height="30" as="geometry"/>
                </mxCell>
                <mxCell id="40" style="edgeStyle=orthogonalEdgeStyle;html=1;exitX=1;exitY=0.5;exitDx=0;exitDy=0;entryX=0;entryY=0.5;entryDx=0;entryDy=0;rounded=0;" parent="1" source="36" target="39" edge="1">
                    <mxGeometry relative="1" as="geometry"/>
                </mxCell>
                <mxCell id="41" value="查询&lt;br&gt;数据" style="edgeLabel;html=1;align=center;verticalAlign=middle;resizable=0;points=[];" parent="40" vertex="1" connectable="0">
                    <mxGeometry x="-0.5846" relative="1" as="geometry">
                        <mxPoint x="629" y="348" as="offset"/>
                    </mxGeometry>
                </mxCell>
                <mxCell id="42" value="&lt;font style=&quot;font-size: 12px&quot;&gt;查询&lt;br&gt;数据&lt;/font&gt;" style="edgeLabel;html=1;align=center;verticalAlign=middle;resizable=0;points=[];" parent="40" vertex="1" connectable="0">
                    <mxGeometry x="-0.3653" relative="1" as="geometry">
                        <mxPoint x="1" y="-4" as="offset"/>
                    </mxGeometry>
                </mxCell>
                <mxCell id="36" value="发现数据不在缓存时，加&lt;b&gt;互斥锁&lt;/b&gt;保证&lt;b&gt;只有一个请求可以构建缓存&lt;/b&gt;，为了避免意外，这个互斥锁最好加上超时时间" style="rounded=0;whiteSpace=wrap;html=1;fillColor=#e1d5e7;strokeColor=#9673a6;" parent="1" vertex="1">
                    <mxGeometry x="370" y="380" width="310" height="50" as="geometry"/>
                </mxCell>
                <mxCell id="44" style="edgeStyle=orthogonalEdgeStyle;rounded=0;html=1;entryX=0;entryY=0.5;entryDx=0;entryDy=0;exitX=1;exitY=0.5;exitDx=0;exitDy=0;" parent="1" source="39" target="43" edge="1">
                    <mxGeometry relative="1" as="geometry">
                        <mxPoint x="846" y="390" as="sourcePoint"/>
                        <Array as="points"/>
                    </mxGeometry>
                </mxCell>
                <mxCell id="46" value="是" style="edgeLabel;html=1;align=center;verticalAlign=middle;resizable=0;points=[];" parent="44" vertex="1" connectable="0">
                    <mxGeometry x="-0.688" relative="1" as="geometry">
                        <mxPoint x="9" as="offset"/>
                    </mxGeometry>
                </mxCell>
                <mxCell id="49" style="rounded=0;html=1;exitX=0.5;exitY=1;exitDx=0;exitDy=0;entryX=0.5;entryY=0;entryDx=0;entryDy=0;" parent="1" source="39" target="48" edge="1">
                    <mxGeometry relative="1" as="geometry"/>
                </mxCell>
                <mxCell id="50" value="否" style="edgeLabel;html=1;align=center;verticalAlign=middle;resizable=0;points=[];" parent="49" vertex="1" connectable="0">
                    <mxGeometry x="-0.4793" y="3" relative="1" as="geometry">
                        <mxPoint x="12" y="4" as="offset"/>
                    </mxGeometry>
                </mxCell>
                <mxCell id="39" value="数据在缓存中?" style="rhombus;whiteSpace=wrap;html=1;fillColor=#ffe6cc;strokeColor=#d79b00;" parent="1" vertex="1">
                    <mxGeometry x="746" y="370" width="90" height="40" as="geometry"/>
                </mxCell>
                <mxCell id="43" value="返回数据" style="rounded=0;whiteSpace=wrap;html=1;" parent="1" vertex="1">
                    <mxGeometry x="866" y="377.5" width="70" height="25" as="geometry"/>
                </mxCell>
                <mxCell id="48" value="加互斥锁" style="rounded=0;whiteSpace=wrap;html=1;" parent="1" vertex="1">
                    <mxGeometry x="756" y="432.5" width="70" height="25" as="geometry"/>
                </mxCell>
                <mxCell id="52" value="&lt;font style=&quot;font-size: 12px&quot;&gt;设置超时时间&lt;/font&gt;" style="rounded=0;whiteSpace=wrap;html=1;fillColor=none;strokeColor=none;fontColor=#A87ED8;align=left;" parent="1" vertex="1">
                    <mxGeometry x="820" y="405" width="80" height="25" as="geometry"/>
                </mxCell>
                <mxCell id="53" value="查询数据库" style="rounded=0;whiteSpace=wrap;html=1;" parent="1" vertex="1">
                    <mxGeometry x="756" y="490" width="70" height="27.5" as="geometry"/>
                </mxCell>
                <mxCell id="61" value="" style="edgeStyle=none;rounded=0;html=1;strokeColor=#6262FC;" parent="1" source="54" target="60" edge="1">
                    <mxGeometry relative="1" as="geometry"/>
                </mxCell>
                <mxCell id="54" value="更新缓存" style="rounded=0;whiteSpace=wrap;html=1;" parent="1" vertex="1">
                    <mxGeometry x="756" y="540" width="70" height="27.5" as="geometry"/>
                </mxCell>
                <mxCell id="55" style="rounded=0;html=1;exitX=0.5;exitY=1;exitDx=0;exitDy=0;entryX=0.5;entryY=0;entryDx=0;entryDy=0;strokeColor=#6262FC;" parent="1" source="48" target="53" edge="1">
                    <mxGeometry relative="1" as="geometry">
                        <mxPoint x="801" y="419.9999999999999" as="sourcePoint"/>
                        <mxPoint x="801" y="442.4999999999999" as="targetPoint"/>
                    </mxGeometry>
                </mxCell>
                <mxCell id="56" value="成功获取锁" style="edgeLabel;html=1;align=center;verticalAlign=middle;resizable=0;points=[];" parent="55" vertex="1" connectable="0">
                    <mxGeometry x="-0.4793" y="3" relative="1" as="geometry">
                        <mxPoint x="-3" y="4" as="offset"/>
                    </mxGeometry>
                </mxCell>
                <mxCell id="58" style="rounded=0;html=1;entryX=0.5;entryY=0;entryDx=0;entryDy=0;strokeColor=#6262FC;" parent="1" source="53" target="54" edge="1">
                    <mxGeometry relative="1" as="geometry">
                        <mxPoint x="791" y="510" as="sourcePoint"/>
                        <mxPoint x="801" y="499.9999999999999" as="targetPoint"/>
                    </mxGeometry>
                </mxCell>
                <mxCell id="68" value="" style="edgeStyle=none;rounded=0;html=1;strokeColor=#000000;" parent="1" source="60" target="67" edge="1">
                    <mxGeometry relative="1" as="geometry"/>
                </mxCell>
                <mxCell id="60" value="释放锁" style="rounded=0;whiteSpace=wrap;html=1;" parent="1" vertex="1">
                    <mxGeometry x="856" y="540" width="70" height="27.5" as="geometry"/>
                </mxCell>
                <mxCell id="66" value="" style="edgeStyle=none;rounded=0;html=1;strokeColor=#000000;" parent="1" source="62" target="65" edge="1">
                    <mxGeometry relative="1" as="geometry"/>
                </mxCell>
                <mxCell id="62" value="等待更新缓存" style="rounded=0;whiteSpace=wrap;html=1;" parent="1" vertex="1">
                    <mxGeometry x="866" y="431" width="90" height="27.5" as="geometry"/>
                </mxCell>
                <mxCell id="63" style="edgeStyle=orthogonalEdgeStyle;rounded=0;html=1;exitX=1;exitY=0.5;exitDx=0;exitDy=0;entryX=0;entryY=0.5;entryDx=0;entryDy=0;" parent="1" source="48" target="62" edge="1">
                    <mxGeometry relative="1" as="geometry">
                        <mxPoint x="846" y="399.9999999999999" as="sourcePoint"/>
                        <mxPoint x="866" y="445" as="targetPoint"/>
                        <Array as="points"/>
                    </mxGeometry>
                </mxCell>
                <mxCell id="64" value="获取&lt;br&gt;失败" style="edgeLabel;html=1;align=center;verticalAlign=middle;resizable=0;points=[];" parent="63" vertex="1" connectable="0">
                    <mxGeometry x="-0.688" relative="1" as="geometry">
                        <mxPoint x="9" as="offset"/>
                    </mxGeometry>
                </mxCell>
                <mxCell id="65" value="查询缓存返回" style="rounded=0;whiteSpace=wrap;html=1;" parent="1" vertex="1">
                    <mxGeometry x="866" y="480" width="90" height="27.5" as="geometry"/>
                </mxCell>
                <mxCell id="67" value="返回查询结果" style="rounded=0;whiteSpace=wrap;html=1;" parent="1" vertex="1">
                    <mxGeometry x="956" y="540" width="80" height="30" as="geometry"/>
                </mxCell>
                <mxCell id="69" value="双key策略" style="rounded=0;whiteSpace=wrap;html=1;fillColor=#dae8fc;strokeColor=#6c8ebf;" parent="1" vertex="1">
                    <mxGeometry x="250" y="440" width="90" height="30" as="geometry"/>
                </mxCell>
                <mxCell id="71" value="后台更新缓存" style="rounded=0;whiteSpace=wrap;html=1;fillColor=#dae8fc;strokeColor=#6c8ebf;" parent="1" vertex="1">
                    <mxGeometry x="250" y="517.5" width="90" height="30" as="geometry"/>
                </mxCell>
                <mxCell id="74" value="" style="edgeStyle=none;rounded=0;html=1;strokeColor=#000000;" parent="1" source="73" target="32" edge="1">
                    <mxGeometry relative="1" as="geometry"/>
                </mxCell>
                <mxCell id="73" value="解决方案" style="rounded=0;whiteSpace=wrap;html=1;fillColor=#d5e8d4;strokeColor=#82b366;" parent="1" vertex="1">
                    <mxGeometry x="250" y="280" width="110" height="30" as="geometry"/>
                </mxCell>
                <mxCell id="82" style="edgeStyle=none;rounded=0;html=1;exitX=1;exitY=0.5;exitDx=0;exitDy=0;entryX=0;entryY=0.5;entryDx=0;entryDy=0;strokeColor=#000000;" parent="1" source="75" target="81" edge="1">
                    <mxGeometry relative="1" as="geometry"/>
                </mxCell>
                <mxCell id="86" style="edgeStyle=none;rounded=0;html=1;exitX=1;exitY=0.5;exitDx=0;exitDy=0;entryX=0;entryY=0.5;entryDx=0;entryDy=0;strokeColor=#000000;" parent="1" source="75" target="85" edge="1">
                    <mxGeometry relative="1" as="geometry"/>
                </mxCell>
                <mxCell id="75" value="服务熔断或请求限流机制" style="rounded=0;whiteSpace=wrap;html=1;fillColor=#dae8fc;strokeColor=#6c8ebf;" parent="1" vertex="1">
                    <mxGeometry x="210" y="631" width="160" height="30" as="geometry"/>
                </mxCell>
                <mxCell id="80" value="" style="edgeStyle=none;rounded=0;html=1;strokeColor=#000000;" parent="1" source="76" target="79" edge="1">
                    <mxGeometry relative="1" as="geometry"/>
                </mxCell>
                <mxCell id="76" value="构建Redis缓存高可靠集群" style="rounded=0;whiteSpace=wrap;html=1;fillColor=#dae8fc;strokeColor=#6c8ebf;" parent="1" vertex="1">
                    <mxGeometry x="210" y="701" width="160" height="30" as="geometry"/>
                </mxCell>
                <mxCell id="79" value="当主节点发生故障宕机时，将&lt;b&gt;从节点切换成为主节点&lt;/b&gt;继续提供服务" style="rounded=0;whiteSpace=wrap;html=1;fillColor=#e1d5e7;strokeColor=#9673a6;" parent="1" vertex="1">
                    <mxGeometry x="400" y="691" width="200" height="50" as="geometry"/>
                </mxCell>
                <mxCell id="84" value="" style="edgeStyle=none;rounded=0;html=1;strokeColor=#000000;" parent="1" source="81" target="83" edge="1">
                    <mxGeometry relative="1" as="geometry"/>
                </mxCell>
                <mxCell id="81" value="服务熔断" style="rounded=0;whiteSpace=wrap;html=1;fillColor=#fff2cc;strokeColor=#d6b656;" parent="1" vertex="1">
                    <mxGeometry x="400" y="598.5" width="90" height="32.5" as="geometry"/>
                </mxCell>
                <mxCell id="83" value="停止对redis以及数据库的访问" style="rounded=0;whiteSpace=wrap;html=1;fillColor=#e1d5e7;strokeColor=#9673a6;" parent="1" vertex="1">
                    <mxGeometry x="510" y="597.25" width="170" height="33.75" as="geometry"/>
                </mxCell>
                <mxCell id="88" value="" style="edgeStyle=none;rounded=0;html=1;strokeColor=#000000;" parent="1" source="85" target="87" edge="1">
                    <mxGeometry relative="1" as="geometry"/>
                </mxCell>
                <mxCell id="85" value="请求限流" style="rounded=0;whiteSpace=wrap;html=1;fillColor=#fff2cc;strokeColor=#d6b656;" parent="1" vertex="1">
                    <mxGeometry x="400" y="641" width="90" height="32.5" as="geometry"/>
                </mxCell>
                <mxCell id="87" value="少部分请求发送到数据库进行处理，再多的请求就在入口直接拒绝服务" style="rounded=0;whiteSpace=wrap;html=1;fillColor=#e1d5e7;strokeColor=#9673a6;" parent="1" vertex="1">
                    <mxGeometry x="510" y="641" width="200" height="40" as="geometry"/>
                </mxCell>
                <mxCell id="89" value="缓存击穿" style="rounded=0;whiteSpace=wrap;html=1;fillColor=#f8cecc;strokeColor=#b85450;" parent="1" vertex="1">
                    <mxGeometry x="355" y="800" width="110" height="30" as="geometry"/>
                </mxCell>
                <mxCell id="90" value="&lt;span&gt;有几个数据会被频繁地访问，比如秒杀活动，这类被频地访问的数据被称为&lt;b&gt;热点数据&lt;/b&gt;&lt;/span&gt;" style="rounded=0;whiteSpace=wrap;html=1;fillColor=none;strokeColor=none;fontColor=#A87ED8;align=left;" parent="1" vertex="1">
                    <mxGeometry x="160" y="850" width="160" height="50" as="geometry"/>
                </mxCell>
                <mxCell id="95" value="" style="edgeStyle=none;rounded=0;html=1;strokeColor=#000000;" parent="1" source="93" target="94" edge="1">
                    <mxGeometry relative="1" as="geometry"/>
                </mxCell>
                <mxCell id="93" value="热点数据过期" style="rounded=0;whiteSpace=wrap;html=1;" parent="1" vertex="1">
                    <mxGeometry x="170" y="990" width="80" height="30" as="geometry"/>
                </mxCell>
                <mxCell id="100" value="" style="edgeStyle=none;rounded=0;html=1;strokeColor=#000000;" parent="1" source="94" target="99" edge="1">
                    <mxGeometry relative="1" as="geometry"/>
                </mxCell>
                <mxCell id="101" value="不存在" style="edgeLabel;html=1;align=center;verticalAlign=middle;resizable=0;points=[];" parent="100" vertex="1" connectable="0">
                    <mxGeometry x="0.3177" relative="1" as="geometry">
                        <mxPoint y="-8" as="offset"/>
                    </mxGeometry>
                </mxCell>
                <mxCell id="94" value="查询redis" style="rounded=0;whiteSpace=wrap;html=1;" parent="1" vertex="1">
                    <mxGeometry x="280" y="992.5" width="70" height="27.5" as="geometry"/>
                </mxCell>
                <mxCell id="97" style="edgeStyle=none;rounded=0;html=1;entryX=0.5;entryY=0;entryDx=0;entryDy=0;strokeColor=#000000;" parent="1" target="94" edge="1">
                    <mxGeometry relative="1" as="geometry">
                        <mxPoint x="315" y="940" as="sourcePoint"/>
                        <mxPoint x="240.0000000000001" y="825" as="targetPoint"/>
                    </mxGeometry>
                </mxCell>
                <mxCell id="98" value="大量&lt;br&gt;请求" style="edgeLabel;html=1;align=center;verticalAlign=middle;resizable=0;points=[];" parent="97" vertex="1" connectable="0">
                    <mxGeometry x="0.4404" y="-2" relative="1" as="geometry">
                        <mxPoint x="2" y="-13" as="offset"/>
                    </mxGeometry>
                </mxCell>
                <mxCell id="103" value="" style="edgeStyle=none;rounded=0;html=1;strokeColor=#b85450;" parent="1" source="99" target="102" edge="1">
                    <mxGeometry relative="1" as="geometry"/>
                </mxCell>
                <mxCell id="99" value="查询数据库" style="rounded=0;whiteSpace=wrap;html=1;fillColor=#f8cecc;strokeColor=#b85450;" parent="1" vertex="1">
                    <mxGeometry x="280" y="1054" width="70" height="27.5" as="geometry"/>
                </mxCell>
                <mxCell id="102" value="数据库崩溃" style="whiteSpace=wrap;html=1;fillColor=#f8cecc;strokeColor=#b85450;rounded=0;" parent="1" vertex="1">
                    <mxGeometry x="380" y="1053.75" width="75" height="27.75" as="geometry"/>
                </mxCell>
                <mxCell id="105" value="原理" style="rounded=0;whiteSpace=wrap;html=1;fillColor=#d5e8d4;strokeColor=#82b366;" parent="1" vertex="1">
                    <mxGeometry x="160" y="930" width="60" height="20" as="geometry"/>
                </mxCell>
                <mxCell id="106" value="" style="shape=image;verticalLabelPosition=bottom;labelBackgroundColor=#ffffff;verticalAlign=top;aspect=fixed;imageAspect=0;image=https://img-blog.csdnimg.cn/img_convert/acb5f4e7ef24a524a53c39eb016f63d4.png;imageBorder=default;sketch=1;" parent="1" vertex="1">
                    <mxGeometry x="500" y="810" width="245.38" height="290" as="geometry"/>
                </mxCell>
                <mxCell id="107" value="&lt;font style=&quot;font-size: 12px&quot;&gt;缓存击穿可以理解为缓存雪崩的一种情况，可以采用下面方案处理&lt;/font&gt;" style="rounded=0;whiteSpace=wrap;html=1;fillColor=none;strokeColor=none;fontColor=#A87ED8;align=left;" parent="1" vertex="1">
                    <mxGeometry x="130" y="1110" width="190" height="40" as="geometry"/>
                </mxCell>
                <mxCell id="108" style="edgeStyle=none;html=1;exitX=1;exitY=0.5;exitDx=0;exitDy=0;entryX=0;entryY=0.5;entryDx=0;entryDy=0;" parent="1" source="109" target="110" edge="1">
                    <mxGeometry relative="1" as="geometry"/>
                </mxCell>
                <mxCell id="109" value="互斥锁" style="rounded=0;whiteSpace=wrap;html=1;fillColor=#dae8fc;strokeColor=#6c8ebf;" parent="1" vertex="1">
                    <mxGeometry x="160" y="1160" width="80" height="30" as="geometry"/>
                </mxCell>
                <mxCell id="110" value="发现数据不在缓存时，加&lt;b&gt;互斥锁&lt;/b&gt;保证&lt;b&gt;只有一个请求可以构建缓存&lt;/b&gt;" style="rounded=0;whiteSpace=wrap;html=1;fillColor=#e1d5e7;strokeColor=#9673a6;" parent="1" vertex="1">
                    <mxGeometry x="280" y="1160" width="350" height="30" as="geometry"/>
                </mxCell>
                <mxCell id="116" style="edgeStyle=none;rounded=0;html=1;exitX=1;exitY=0.5;exitDx=0;exitDy=0;entryX=0;entryY=0.5;entryDx=0;entryDy=0;strokeColor=#000000;" parent="1" source="111" target="114" edge="1">
                    <mxGeometry relative="1" as="geometry"/>
                </mxCell>
                <mxCell id="111" value="后台更新缓存" style="rounded=0;whiteSpace=wrap;html=1;fillColor=#dae8fc;strokeColor=#6c8ebf;" parent="1" vertex="1">
                    <mxGeometry x="160" y="1220" width="90" height="30" as="geometry"/>
                </mxCell>
                <mxCell id="112" style="edgeStyle=none;html=1;exitX=1;exitY=0.5;exitDx=0;exitDy=0;entryX=0;entryY=0.5;entryDx=0;entryDy=0;" parent="1" source="111" target="113" edge="1">
                    <mxGeometry relative="1" as="geometry">
                        <mxPoint x="250" y="1215" as="sourcePoint"/>
                    </mxGeometry>
                </mxCell>
                <mxCell id="113" value="不给热点数据设置过期时间，由后台&lt;b&gt;异步更新缓存&lt;/b&gt;" style="rounded=0;whiteSpace=wrap;html=1;fillColor=#e1d5e7;strokeColor=#9673a6;" parent="1" vertex="1">
                    <mxGeometry x="290" y="1200" width="290" height="30" as="geometry"/>
                </mxCell>
                <mxCell id="114" value="热点数据&lt;b&gt;准备要过期前&lt;/b&gt;，提前&lt;b&gt;通知后台线程更新缓存&lt;/b&gt;以及重新设置过期时间" style="rounded=0;whiteSpace=wrap;html=1;fillColor=#e1d5e7;strokeColor=#9673a6;align=left;" parent="1" vertex="1">
                    <mxGeometry x="290" y="1240" width="290" height="40" as="geometry"/>
                </mxCell>
                <mxCell id="117" style="edgeStyle=none;rounded=0;html=1;entryX=0;entryY=0.5;entryDx=0;entryDy=0;strokeColor=#000000;exitX=1;exitY=0.5;exitDx=0;exitDy=0;" parent="1" source="71" target="120" edge="1">
                    <mxGeometry relative="1" as="geometry">
                        <mxPoint x="340" y="530" as="sourcePoint"/>
                    </mxGeometry>
                </mxCell>
                <mxCell id="118" style="edgeStyle=none;html=1;exitX=1;exitY=0.5;exitDx=0;exitDy=0;entryX=0;entryY=0.5;entryDx=0;entryDy=0;" parent="1" source="71" target="119" edge="1">
                    <mxGeometry relative="1" as="geometry">
                        <mxPoint x="350" y="529.5" as="sourcePoint"/>
                    </mxGeometry>
                </mxCell>
                <mxCell id="119" value="不设置过期时间，由后台&lt;b&gt;异步更新缓存&lt;/b&gt;（毫秒级）" style="rounded=0;whiteSpace=wrap;html=1;fillColor=#e1d5e7;strokeColor=#9673a6;" parent="1" vertex="1">
                    <mxGeometry x="390" y="494.5" width="290" height="30" as="geometry"/>
                </mxCell>
                <mxCell id="120" value="热点数据&lt;b&gt;准备要过期前后&lt;/b&gt;，使用消息队列等&lt;b&gt;通知后台线程更新缓存&lt;/b&gt;以及重新设置过期时间" style="rounded=0;whiteSpace=wrap;html=1;fillColor=#e1d5e7;strokeColor=#9673a6;align=left;" parent="1" vertex="1">
                    <mxGeometry x="390" y="535" width="290" height="40" as="geometry"/>
                </mxCell>
                <mxCell id="121" value="&lt;font style=&quot;font-size: 12px&quot;&gt;刚上线的时候，提前把数据缓起来（缓存预热），而不是等到用户访问数据时才被动建立缓存&lt;/font&gt;" style="rounded=0;whiteSpace=wrap;html=1;fillColor=none;strokeColor=none;fontColor=#A87ED8;align=left;" parent="1" vertex="1">
                    <mxGeometry x="290" y="1290" width="270" height="40" as="geometry"/>
                </mxCell>
                <mxCell id="122" value="缓存穿透" style="rounded=0;whiteSpace=wrap;html=1;fillColor=#f8cecc;strokeColor=#b85450;" parent="1" vertex="1">
                    <mxGeometry x="355" y="1340" width="110" height="30" as="geometry"/>
                </mxCell>
                <mxCell id="124" value="" style="shape=image;verticalLabelPosition=bottom;labelBackgroundColor=#ffffff;verticalAlign=top;aspect=fixed;imageAspect=0;image=data:image/png,iVBORw0KGgoAAAANSUhEUgAAAkAAAAK6CAYAAADRk+NJAAAgAElEQVR4nOzdd3gUVd/G8e/sbnohhIQWunSQJkiVooKoYEHECoKPYi/Y9dHH3l8RC4gVRKyoKIIF6SgCKii911ACJCQhPdmd949NFkIS0nazwNyf6+Iy2Zk581uQ7M05Z84xTNM0EREREbEQm78LEBEREalqCkAiIiJiOQpAIiIiYjkKQCIiImI5CkAiIiJiOQpAIiIiYjkKQCIiImI5CkAiIiJiOQpAIiIiYjkKQCIiImI5CkAiIiJiOQ5/FyBibS5w5YKZC2hbPhH/sIMtEAx9JFqJ/rRFqpLpBGcaOI/k/8rwd0UiUsBwgD0c7BHgiABbiL8rEh8ytBu8SBUw8yBnH+QcAlz+rkZEysIWAkFx4Kjm70rEBxSARHwt9xBkx7t7f0Tk1OOIhKCG7mEyOW0oAIn4iumCrB2Qd9jflYhIZRl2CGkC9kh/VyJeogAk4hMmZG6BvFR/FyIiXmNAaFOFoNOEHoMX8YXseIUfkdOOCZnbwJXt70LECxSARLwt7zDkHPB3FSLiC6YTsrahZStOfQpAIt5k5kHWLn9XISK+5MyAnP3+rkIqSQFIxJty9rlDkIic3nL25y9gKqcqBSARbzFz89f5EZHTnumCnAR/VyGVoAAk4i25iWiRQxELydXCpqcyBSARb8lL9ncFIlKVTCfkHfF3FVJBCkAi3mC6tK+XiBU50/xdgVSQApCIN5jZ6LFYEQtyZfm7AqkgBSARb9CTXyLWpD3+TlkKQCIiImI5CkAiIiJiOQpAIiIiYjkKQCIiImI5CkAiIiJiOQpAIiIiYjkKQCIiImI5CkAiIiJiOQpAIiIiYjkKQCIiImI5CkAiIiJiOQpAIiIiYjkKQCIiImI5CkAiIiJiOQpAIiIiYjkKQCIiImI5CkAiIiJiOQpAIiIiYjkKQCIiImI5CkAiIiJiOQpAIiIiYjkKQCIiImI5CkAiIiJiOQpAIiJ+kJOT6+8SRCxNAUhEpAp98PF3RDc4l5ZnXUFubp6/yxGxLMM0TdPfRYic8pxHIGOTv6uQU0DS4VSad7ycxKQUJo57jFtuHFLuNpp3HEJiUnKla5k3cyLtz2xe6XYszR4Bofo9PBU5/F2AiIi/PPnCu6SlZXD10Avo0qm1V9rcs/cAL7w26YTnxNSIIjEphadfeo9Vazef8NzOHVsx6vpLCr12ODmVpMOpla419Uh6pdsQOVUpAImIZb35zhckpxyhVYvGXgtAiUkpTHh/WpnO3bf/UKnnXj10QJEAVGDXulnExlQv9FrCwUQatRlMUFAgybsXFHtdrwH/4e9/1pepRpHTlQKQiIgPxNSI4tXn7ql0O40bxpV4LCgogODgwMKvBbq/t9tsRY4VsNmMStclcqpTABK/MOP/gYzKz2E4WRhnnOXvEuQkEx4WysjrBvu7DBEpgQKQ+IVz2hjMTcV3z5+KAt6u/HwM8a7c3Dyyc3IIDwst13WJSSk4nU5qxkb7pK7DyamMfftTAgMCeOLhm4ocz83NY+v2eFo2b1RqW7vi95OVnVPotYOHDgNgYrIrfn+x1x1/jYgVKQCJiN/cft9LLPp9BbEx1Zk/691Cx2699wV+++MfAH7+9m3qxdX0HJs9byn3PToWgIU/vU+N6GoAuFwuXntrKl99O4fV67aQnZ1Dy+aN6N2zE489MIqG9euUWMvr4z9j4odfs2nLLgDq1oll2OX9efGpO0scSiorl8uFzeZedSQrK4fnXvmQ2JjqPP7QfzCMwsNRS5atou9Fo+nYvgUrFn96wna79BlR4rHMzGwath5UqbpFTmcKQCLiN3F1arJ2/TYAdu7e5wkoLpeLL7/5leSUIwAs+O0vrr/qIs91s37+jbXrt3FG43qe8HM4OZWrbniUX+cvK3SPDZt2sGHTDr6buYAZX46la+e2Rep45Mm3SExKKfTa3n0HGTfhM+YuXM6SOR+VuyepwK33vsAnn//ImuVf0bhhXerUjqFJozi27djDylUb6dS+ZaHz5y36E4CmTeqX2naXTq0JDAwo9FpOTi5/rlgHQM9u7Yu97t/Vm0lLz6jI2xE5bWghRBHxmwsH9PB8vfC3FZ6v/12z2RN+ABYs/rvQdXMXLgfgogE9Pa89+tTbnvBz961Xs+Hvb9i2egaTJz5FRHgoBw4mcd6g24p99DsxKYXatWrw2UfPs2fjTyxfMIULzusOwOq1W3hl3JQyvyeXy720WkHHTk5OHhmZWUybPsdzTkEwmT13aZHr5y5wv7dze3cp9V4zp43jt9kfFvo148vXAQgNCS5yrOBXqxalD6+JnO4UgETEbzq2a0Gd2jEALPr9aABa+FvhwHNsANqfkOjpNbp4YC8A1qzbygcffwfAQ/eO4I1XHqBFs4Y0bliXG64dxMxp4wBIz8jki69/KVJHYGAAi3/5gGuGXkDdOrF06dSaH7563bNI4Ni3PiUzM7tM7yk9IxOAGtFRAAw83x2kjg1Avbp3ACjSW5Wekcnyv9cCcF7f0gOQiFScApCI+I1hGAw8390LdGwPUEHguWboBQBs3R7P7vgEAOYv/gtw93D06el++u6b7+fidLpwOOz875Gbi9ynd89ONG5YF4Cvv5tb5PjI6wYXGXIKCHBwz21XA+5gsn3nnjK9p4Khpdq1agDQ/9yu2O02/lq5ju079wLQs5s7AC37cw1Op8tz7aLfV5Kbm0e9uJo0O6NBme4nIhWjOUAi4lcXDejJpKkz2LJtN/v2H6J2rRosXrISgHtuv4Y5C5Zz8NBhFvz2N8OvvujoEFGfLp7JyRs37wTAbrfzxLPvFHufPKcTwBNCjtW+bbNirzn7rKPzhbbt2EPrlk1KfT9pae4eoIKerepRkXTt3JYly1Yx8+fF3HXLVbRu2ZjqUZEcTk5lzbotnp6meQvd83/O63P2Ce9REJpm/LioyEKIh5PdTyQ6XS6+n7Ww2OsPHDxc6vsQOd0pAImIX/U/tysOh528PCcLf1tB65aNSTqcSmREGJ07tubcPl348pvZLFj8V34AcoeEiy/o5Wljy7bdAGRn5/D6+M9OeL+MzKwirx0fIo6+HuX5+vhJ0iXZt/8QcDQAAVzYvydLlq1i7oLl3HXLVRiGQY+u7Zj1y28s/XONJwDNWeAeEju3T8nDX2npGZ6Qc/Ndz5V4XnZ2Dpddc3+ZahaxIgUgEfGrapHh9OzWnoW/rWDRkhUcOJQEwDk9OmK32zi/79n5Aehvtu3Yw45d7h6ciy44OgE6LCwEgJCQIMa9dOIP/ciI8CKvFbR5vEOJRxfrrB9Xq0zvZ+v2eABq16zheW1g/+488dw7LPxtBU6nC7vdRs9u7fMD0GpuuXEIm7bs4p9VmwgIcBSa3F2k/W3u9gMDA7hz9LAix5NTjvDRJzNwOOzcfevVxbbx6Vc/kXAgqUzvR+R0pQAkIn53Yf+e7gD0+wrPB3NBL8h5fd3DQdt27GHypz8A0KZVExrUq+25vnnThixY/DeZmdkM7N+j0LECm7fuIulwquex+WNt2LSj2LpWr93i+bpJ45K3pDjWth3ugHJsD9BZHVoRG1Odg4cOs+LfDXTp1Jpe3TtQq2Y00dUjAfjki1kAXHBed2JqRBVtON+W/ADUrk0zXnthTJHj+xMS+eiTGQQGBBR7HGDxkpUKQGJ5mgQtIn5X0OOxdv02vp0xD4B+vTsD0LhhXc8E5mdf/gAoPPwF0Lb1GZ6vZ/60uEj7SYdTObvvDXQ7dyTjJnxe5PjPc/4o1NtT4IMp7ifLGjWoW2yoKs6KfzcAhQOQYRiex+rnL3JP4j6nR0f2b5nNay+MwTRNpn7xEwDXDbvwhO0XDPd17tSqTPWISPEUgETE785s05T69Y4OMVWPiiw0MbmgF6jARQMKB6BR1w8mrq57pejX3ppaqEfnUGIy19/0OMkpRzAMg5HXFV0dee++g1z3n8fZu+8g4J5k/N9nJjBnvnvC9SP3jfSs5Hwi23bsIX7PASLCQ+mQP6+nwP13Xc9P377J7TcPLXLd4iUr2bFrL+FhoVx6cZ8T3uPnOUsA6NKpTan1iEjJNAQmIieFC/v35L1J3wLQp1enQoHj/L5ne9b5KZgzdKzwsFDefOUBrhzxCNt27KF9j2s4s3VTgoMDC616/Oj9o+jcsXWx9589bylxLS6kYf06JB1O4Uia+5puXc5k1PVl29S04Cmuiwf2Iiio8PYZHdo1B5oXcxVM+dw9/DXkkn6EhASV2P4fy1d5lggobkXrskpLz6zwtSKnCwUgETkpXDTgaAAqGP4qcG6fLhiGgWmaDDivGw6Hvcj1Qy45l/mzJjL85v+xK34/f/+z3nOs2RkNePbxWxk2pH+ha2w293LNH7/7NJOmzmDxkpXs3L0PcA9bDRvSn0kTniyy3URJPv5spruWwecCMOaRsWRll76A4lff/grAug3buW3Mi4WOPXLfSM8WIc+/+hEA5/c7mzatSn8kv0DS4VSys3MICQnitz/+Yf3G7QDFzocSsQrDNE3T30WI9eS93q/Cu8Eb9TpAaMmTRP3BcfcMyNjk7zIE927qa9ZvZeW/G3E6nTRsUIdze3cpNjQdL+lwKnMXLCcyMoyzz2pD9ajIMt934+adtDzrCoKDAzm0Yy5hoSFE1Old6T23Zn8/nv79urJ2/Tbadh2GYRgsX/BxiT1Z+xMSqdPsAkJDgklP+A2AYTc8UmglaoDmTRuwccW3lapNAHsEhBbfsycnN/UAySnHfuXrGM37+ruMwpxHSj9HqkRAgIOO7VrQsV2Lcl8bXT2SKy8/v0L3jakRReeOrYmrG0tYqPux/KkfPEtKalqF2ivQtpV7gnfjRnUZNPAcQkKCSgw/AKGhwdx+85VEVYvwvDb4wt6sWrMZcC8W2adXJ/4z4tJK1SVyqlMPkPhFZXqAHGPmn5wBSD1AlpeWnsH2HXs5s01Tn7TvdLo4kpZeKNyIn6kH6JSlp8BERLwkPCzUZ+EHwG63KfyIeIkCkIiIiFiOApCIiIhYjgKQiIiIWI4CkIiIiFiOApCIiIhYjgKQiIiIWI4CkIiIiFiOApCIiIhYjgKQiIiIWI4CkIiIiFiOApCIiIhYjgKQiIiIWI4CkIiIiFiOApCIiIhYjgKQiIiIWI4CkIiIiFiOApCIiIhYjgKQiIiIWI4CkIiIiFiOApCIiIhYjgKQiIiIWI4CkIiIiFiOApCIiIhYjgKQiIiIWI4CkIiIiFiOApCIiIhYjgKQiIhIhZn+LkAqSAFIxCsMfxcgIv5g6GP0VKU/ORFvMAL9XYGI+IP+7p+yFIBEvMEWCIbD31WISFWzh/q7AqkgBSARb3FE+rsCEalqdv29P1UpAIl4i6OGvysQkapkDwdbkL+rkApSABLxFkck2EL8XYWIVJXAWv6uQCpBAUjEm4Li/F2BiFQFexg4ovxdhVSCApCINzmqgaO6v6sQEZ8yILiBv4uQSlIAEvG24Abup8JE5PQUVBdsevrrVKcAJOJthgOCm2iBNJHTkaM6BNb2dxXiBfoJLeIL9jB3CNJfMZHThyMSQhr5uwrxEv10FvEVRzUIba7HZEVOB4G1IKQp+tg8fWjpWhFfsodBaGvI2Q+5CWC6/F2RiJSHPRSC6rvX/JHTigKQiK8ZNvekycAYyN4PuYfQDtIiJzlbsPvvrZ7qPG0pAIlUFSPQ/YRYUD0ws8GVDa4s93/NHDAVikT8wrC7A48tKP9XMBgB/q5KfEwBSKSqGTYwQrRqtIiIH2k2l4iIiFiOApCIiIhYjgKQiIiIWI4CkIiIiFiOApCIiIhYjgKQiIiIWI4CkIiIiFiOApCIiIhYjgKQiIiIWI4CkIiIiFiOApCIiIhYjgKQiIiIWI4CkIiIiFiOApCIiIhYjsPfBYiIVKmMREje4e8qShYaA1EN/V2FyGlPAUhErCUzEfb97e8qShbTQgFIpApoCExEREQsRwFIRERELEcBSERERCxHAUhEREQsRwFIRERELEcBSERERCxHAUhEREQsRwFIRERELEcBSERERCxHAUhEREQsRwFIRERELEcBSERERCxHAUhEREQsRwFIRERELEcBSERERCxHAUhEREQsRwFIRERELEcBSERERCxHAUhEREQsRwFIRERELEcBSERERCxHAUhEREQsRwFIRERELEcBSERERCxHAUhEREQsRwFIRERELEcBSERERCxHAUhEREQsRwFIRERELEcBSERERCxHAUhEREQsRwFIRERELEcBSERERCxHAUhEREQsRwFIRERELEcBSERERCxHAUhEREQsRwFIRERELEcBSERERCxHAUhEREQsRwFIRERELEcBSERERCzH4e8CRESkCjlzIOOQv6sQOcoRBCE1qv62VX5HERHxn4xDsGmmv6sQOSqiDjQfXOW31RCYiIicEjbuTGDqj8tYsmqrv0spUW6es8znfjtvJY++PZ0NO/aX+ZqsnNwyn/vj72v4aMbvHMnIKvM1J7JrfxKvTpnNN/NWeF5bv30fTpfLK+1XNfUAiYjIKeHXZeu465UvuGFQd3q0O6NCbUyfv5IhD06scA13DuvHWw9dXeyx+X9tZMiDE3nzwasYflG3Utv68ffVfPj977RsVJuWjWqXev4Pi1Zx7eMfMOGRa8vU/hPvfM+KDbvoe1YLIkKDSz2/NFvjD/LQm99wVquGXHFuJ375Yy2X3j+BAd1a88ULNxMaHFjpe1QlBSARETkluFwmADabUeE2Cnpo+p7VnDuG9Svzdb/9s4U3Pp9LZnZOief8+Psako9kcMOTk9l/KJUHRwzwHLvs/gkcPpJR6PxNOxMAeHHST3w04/dCx3q0O4MX77y80Guzl64jLSObG56czL5DKTw04gIAnnz3B749plemwJbdBwG48K43CQywFzoW4LCz6P0HCQ8NKu2tl6hhnRrUjYnih0WrOPfWscwcdycxUeEVbq+qKQCJiEiZ/fbPFub/tZGe7c/g3C4tq/TeKWmZAFQLD6l0WwcPp/FHOYbS/t20u9RzXr3nCprExXDP/33JQ29+w56Dybx+35UYhsGCvzd56j/exp0JbMwPQwUiw4q+x7ceuppmDWpy/+vTePjNb9l3KIWxY67EYbeRnlk0mBUMl2Vm55CbZy9yPCcvD6h4AGrZqDbLPn6EwWPGs2zNdnrc+DK/vH0PjevGVLjNqqQAJCIiZfbkuz8w788N3H99/yoPQIkp6QBUjwitdFuHktP4a/3OMp9/IOlImc67bWgfmtavySVjxvPG53MJCwnk+dsvY8t3z2GaZqFzx4ydxqc/LeOth67mqv6dCx0LDCj+4/nuq8+lWYOaDHlgIuM+m0ugw8HLdw/hiZsuLnLuWdc/z4oNu1jw3gM0ifNNKImtHsHs8ffS//bX2bz7AGkZ2T65jy8oAImISJl8O28l8//a6Lf7JxUEoMiwSrfV56zmjB1zZZnP/27BP9z5yudlOrd/11Z8P/Z27hs7jduG9mHvwWSOyz4AuPInD2dk5ZCTW3jydE6uk7CQIBz2os8qXdijLd+9dht3vvIFt1zRG4D/TviOn5esLXReweTqS8aMJyiw8Mf9Vy+N5ox6sZ7ve/3nlVIDYcEQ5N/rdxLc445Cx7Jz8gDoMuIFAEKCAjk8//UTtudvCkAiIlKib+atYM2Wvcz/ayOLVm4u0ovhLSlpmeQ5T/w00f7EFADsNsPTG3QikWHBBDiKDv0AfPXrX3z161/lL7SMBnRrzZqvngQguMcdnoBQnIff/JaH3/y2yOv/fv4E7ZrVK/aaC7q3YfP0Zz3fp2fmcDi18ByjjCz3sFhqeiaOrMK/D6nphZ8Mc7pMbMaJ51aZ+YcNwyhybkhQQKHvw0JO/gnRCkAiIlKi0c9NJSm19LBRGSlpmUSfO8bTw1CaO17+nDteLr035pe372FAt9aFXuvftTV/TnmsQnUCxU7ydbpcRQKOzWYQHOgOBV3bNi7Sw1OS3Dwnf6/fiWEY1IyOLLF9wzAKhY5x9w9j3P3DCp1TniGwPyY9XGpt8//ayLm3jqVTywb89Unxv4dJqelEe6GHriooAImISImGX9yNI8f0Fhz/tJI3mKZJXGzUCc/Jzs0rNA+nfq3qpbZbEEAWr9zM7S99Vrkii3HHsH7cekVv/jdxBi989FOhY+2b1+Ofz54AYOF7DwDuADH5hyW8cs8V1MoPN6Oe/piUtEw+f/4mggIdnsf0e7Y/g9o13OcU136rxnVYN+0p/l6/kztf+aLY+gomVg99aCJBgQFFjvfp1IyX7hri+T7P6eLFST8xesg5nvqKs2lnAglJqUXO+WjG79z58udMfmokw46b03QyUgASEZESHd+r8MmPS8u12F9ZREWEsmvWSyc8Z8aif7n0vgme7394/U7aNy9+eKi49n3xeHbBujc1q0cQV9Md4NIyskt82uutL+czff5KZi5ezbgHhjH8om78+PtqDiQdIc/pJAgH70//DYCrB3TxXHds+1nZuYWG/5KPZLJ++75i7+ew26gWHsK2PcVvfXJm07hC3z8+4Tte/vgXps35m4XvPUD1yOInmx/JyOK/47/jgydGeF77aMbv3PzcJ7hcJis27FIAEhER8Ybp8/8B3OvX5OY5eefrhUx87LoyXXtm0zjmv3s/AHOWryf5SPEBpSzsNoNL+rTHbjs6Ofmea87jnmvOA2DzrgM0H/JEoWtS0jLZuDOBL1+8maffm8lLk39mxP8m8e+m+ELn7dqfxC9L12K32Rh6fqdi2993KIW6Ax/yHDvv7JYkLxhX4fdzrPuu689PS9ayanM8A+96g7nv3FfiOkGTfljCHcP60bFF/ULh56nRg3ly9CCv1ONrCkAiInJSc7pc/LDoX8D99NL1T3zEpz8v49V7ryj3Cse3PD+1xB6Rsto166UyDcEVuOf/vmTKrKXcfHkvXr1nKIN7t+Pm5z7hmgu68MmPSz3n5Tld3HzZOWTn5p1wCKo4k39YwmtTfy3TuU3iYvl+7O1FXq8ZHcH8d+9jwB1vsHztDgaPeZuf3rrbM5Q4bc7fnnNNE+597UtuGNSdm5/7BNOE1+8bxr3Xnleuuv1JAUhERE5qC/7aRGJKOg1qR3Npn/Zcf2FX3v12Ee9P/437rju/Qm3u++XVIusJTfh6AfeNncboIefw5gNFt7voMuIFVm/ZU+4n4S7r24Eff1/De98u5sff1vDuf69n1Rf/A46uTG0YBk3iYsrcq3W8g4fTWLN1L9UjQ4kKL37oKjfPSfyBwyUO0QFER4bxy9v3cPaIF1jw9yaue/xDvnnlVu5/fRrvfL0QgLNaNaRr28ZMmLaARSs2Y7fZeP+J67nxkp4Vqt1fFIBEROSkZZom/5s4A4DrL+qKYRjcdXU/3v12EU++O4Oh53WiQe3ocrd7+QPvFFljZ+/BZMC959a6bUXn1RT0HBmlPC5+vMv6dqB7uybc/Nwn/LBoFS989CMX9WxLdk4eh1MzCAp0eG0frQeuH8BjN15Y7LG0jGwiet9dahs1qoXxw+t30uumV7isbwcefXs6Yz+dU+icV+4ewuyl69iy+wCP3XjhKRd+QAFIREROYp/9vJwlq7YS4LAzclAPANo0qct1F3bl05+WccsLU/npzdI/1I/X/cwmBB+3ds3ilZvZtucQdWOjOKdjsyLXbNqVQHpm+Vc6fv2zOeTkOunZvimbdx2gaf2avPzxL6Smu3ticvOcvPzxL0Wua96gJpf361iue02b83eJu8uXZ/J66yZ12PHDi4z99FdemvwzMVHh/O/mQdz9qvuJs7CQID5+eiTn3PQqb381n6HndSpxzaKTlQKQiIiclNIzs3n4LfcCgc/edinNGtT0HHvjgav4ddk6fl6ylimzljLi4tJ3Rz9WtzMbE37c/KHDqen89s8W6sRUo1eHpkWu+WTW0iKvlcX9r39daNjs+IDicpk88lbRhRAv69uh3AHon027Wb1lT7HHTMo3dPfWl/N4+r2ZVI8M5dcJ9xZZaLFHuzN4cPgAXv74F/rfMY6F7z1Qpl3tTxYKQCIictIxTZPbX/qMPQeS6dOpOQ8OH1DoeI1qYbz14NVc9ej73PL8VOrVjCrX3mRXPfp+icdmLl7FzMWrKlx7gTyni/enL+a9/15f7LyhB8Z9TWp6FiMu7lZs4GrdpG6p95gwbQH9OrfwfP/87ZdVegjs4OEj3PLCp0yfv5LIsGB+fuseOjSvX+w2KM/cegmLV25hyaqtnHfb68wefw9tylD3yUABSEREvGru8g0kpaYTFhLERT3bVqiN21/6jCmzlhIVEconz96IzVZ03s2w/p35YfEqpv64jEvum8Avb99Dz/ZnnLDdFZ8+XuKK0xO+XsDjE77npst68crdV5TYRll2o3e5TG54chLfzFvB4fnjimwVMXPxKs92FJt2HeCRkQNp1bhOqe0ea9xncxkz9iveeOAqz2s//7G2xEnO7t3fT+y7Bf9wywtTOZB0hIjQYGa9cRdnt2lU4vmBAQ7mvDOGa//7Ad8t+IezR7zI2w9dw6hLepTrvfiDApCIiHjVmLFfsXrLHmrXiGTfL6+W+/r7xk5j4jeLAJj46HUnfOR80pMjSUnL5IdFq7jo7jf5+a176N6uSbHnvvvtIl4pZq5NgYLg8NWvfzHvzw0lnjewR1vGP3zNCd/D6i17WL1lD9GRYSQfySAkqJrn2K/L1jPiyUmA+6mrpau30eHa53h01EAeG3VhiTvBH2v99n2MGfsVdpuN2jUi2bkvCXDPY1q8cnOp1x8vJS2Tu1/9gin5w3xntWrIFy/cRNP6NUu50r0P2Dev3Mq9r33JW1/O58ZnPmbB3xuZ8Mi1hIUUv47QyUABSERETgp7DiRzx8uf8f3CfzEMg8dGXchVA068orDDbmPaS7cw6N63mbN8PX1G/x/P3nYpDw4fUKTXqF3Tegzu3b7Etv5YtZXElHQa1Y0pNKx0vFaNS57nsqqjPBoAACAASURBVGbr0fk39WpWZ/b4e6gT4w4/TpeLcZ/N5eE3v8XpctGnU3NmvXEn385fyUNvfMPT783ky9l/8d5/ry92EjZQaPHE8NAgvnppNBf2aMurU2YD8OCIAUWGCwukZWbT5JL/Fnk9z+miw7XPsmNvIoZhcO815/HSXZcXCWIn2qvNZjN488GraVQ3hgfGfc2UWUux2WxMevKGEq/xNwUgEREps6dGDyY3z1nsnJUCdw7rx75DKUSGl22RQpfLZOI3C3n07emkpmdRMzqCj58axcAebcp0fVCgg+9eu43h/5vE9PkreeStb/nlj7V88syNxNWMIiMrx9Ojc/7ZJc8TysrOZfnaHdSvVf2E54F7CKtV4zqcUS+20Os/LVkLQMtGtZk9/l7q16rOngPJvP/dYj747jf2HHA/aj/i4m68//hwAgMcDL+oG5f26cAjb33LO18vpM/o1/KH4YYQddxaRT/kz02qE1ONWW/cRccW9QsdjwoPJbZ6RKHXsnPysNttbN59AACbrfDj/w67jUG92vHF7D/5+OlRnmFLl8tk064EQoMDCQp0eO59okf277vufBrUjuax8dN54Y7LTvh76G8KQCIiUmYlTbA91ugh55SrzXe+Xsidr7h3d+/ftRVTnrnRsxFoWYWFBPHtq7fy9lfzeWDc18z/ayPPf/QjEx65liWrtjJ4zPgytzXrt9XM+m11qee9eOflPDJyYKHXbhjUnX837ebHN++mRjX38Fav/7yK0+UC3Nty3H99f24Y1L3QdZFhwUx45FrO6diMm5/7hPenL2b7nkP8OuHeQuddf2FXFq3YxI9v3l3m1agvuPMNFq7Y5Pm+uPD6wp2X8fhNFxVagXpL/AFaDX2yaHvdW5/wfkPP68TQ8zqd8JyTgQKQiIj41U2X9eKzn5dzSZ/2PDRiQLkXGjzWncP60atDU5774EfPROZ2TevxzSu3eqtcj7ZNiz7t1LP9Gfwx6RHP8Fu3M5swsEcb7DYb91xzbqlPql1zQRfObBrHlQ+/y9O3Di5yvHu7Jqz49HECHPZCr4eHBlEnphq1igmOw/qfhYmJgUHn1g25/cq+Rc6JCA0usq1Is/o1GdCtNVk5uQAEOhwM6Naamy7rdcL3cKowzPKu6S3iBXmv98PctKBC1zrGzMdoXvQvsEiZJG6CHRX7f69KxLSAhn181/6RvbBppu/aFymviDrQvGjY8zVb6aeIiIiInF4UgERERMRyFIBERETEchSARERExHL0FJiIiJU4gtyTTkVOFiExfrmtApCIiJWE1PDLEzciJxsNgYmIiIjlKACJiIiI5SgAiYiIiOUoAImIiIjlKACJiIiI5SgAiYiIiOUoAImIiIjlKACJiIiI5SgAiYiIiOUoAImIiIjlKACJiIiI5SgAiYiIiOUoAImIiIjlKACJiIiI5SgAiYiIiOUoAImIiIjlKACJiIiI5SgAiYiIiOUoAImIiIjlKACJiIiI5SgAiYiIiOUoAImIiIjlKACJiIiI5SgAiYiIiOUoAImIiIjlKACJiIiI5SgAiYiIiOUoAImIiIjlKACJiIiI5SgAiYiIiOUoAImIiIjlOPxdgIhIqbJSYM8ycOZUvq3cjMq34Uspu2HTzMq3YxhQqz1E1qt8WyKnIQUgETn5BVeD+j1h50JIjfd3Nb6Vm1H5kBZcDRr1hbBa3qlJ5DSkACQip4bAMGh2ERxcB/HLwJXr74pOTjXbQtzZYNOPd5ET0d8QETm1xLZ2D+vsWABp+/1dzckjMNzd6xNR19+ViJwSFIBE5NQTFAktBkPCatj7J7ic/q7Iv2JaQL3uYA/0dyUipwwFIBE5RRlQqx1Uqw/bF0DGQX8XVPUCQqFhb6jWwN+ViJxyFIBE5NQWXB1aXgr7/4F9K8B0+buiqlH9DGjQExzB/q5E5JSkACQipz7DBnU6uXtCdiyAzCR/V+Q7jmBo0AuqN/F3JSKnNC2EKCKnj9AYaHU51G7vXgfndFOtIbQeqvAj4gXqARKR04thh7iuUK2RuzcoO8XfFVWePRDqd4caLfxdichpQz1AInJ6Cq8Fra+A2Db+rqRyIuLcvT4KPyJepR4gETl92RzuicJRjdyrSOek+buisrM53D1ZNU/xACdyklIPkIic/iILelGa+7uSsinovVL4EfEZ9QCJiDXYA90rJVdvDDsXn5ybohp2qHuWexPT03ESt8hJRAFIRKylWkNoXQt2/QaHt/m7mqNCY9wBLSTa35WIWIICkIhYjyMYmpwPSVth9++Ql+W/Wgwb1O7gXsfI0KwEkaqiACQi1hV9BkTUgZ2LIGVX1d8/OAoa94PQ2Kq/t4jFKQCJiLUFhELTgXBoA8QvBWdOFdzUgFpnQt0uYLNXwf1E5HgKQCIiADEtIbKee/HEI3t9d5+gSPdcn/DavruHiJRKAUhEpEBgODQfBAfWwJ7l4MrzbvuxraFeV7AFeLddESk3BSARkePVbAuR9WHHfEg/UPn2AsOgYR93D5OInBQUgEREihNcDVpcCgn/wt6/wXRWrJ0azaB+T/c6RCJy0lAAEhEpiWG4H1Gv1sDdG5SRWPZrHSHQ8Bz3NhwictLRohMiIqUJiYaWl5d9rZ6oxtDmSoUfkZOYeoBERMrCsEHdzvm9QQsgK7noOfYg9+ar0U2rvj4RKRf1AImIlEdYTWg1xL2OD8fs1xVZH9oMVfgROUWoB0hEpLxsDqjXHao1cm+lUbMNxLTyd1UiUg4KQCIiFRVRB1oP9XcVIlIBGgITERERy1EAEhEREctRABIRERHLUQASERERy1EAEhEREctRABIRERHLUQASERERy1EAEhEREctRABIRERHLUQASERERy1EAEhEREctRABIRERHLUQASERERy1EAEhEREctx+LsAEZFTQV5aGmnr1pNz4AA5h5LISUoiNzGJvNQUHJHVCKgRTWB0NIEx0QTWrEl461Y4wsP9XbaIlEABSESkBOkbN3Hwl185OHsOKX/9jel0lvlaw26nWueziB1wPrEX9CesRXMfVioi5aUAJCJyDGdGBvunf0/8pCmk/ruqwu2YTifJy5aTvGw5m599gcj27ag3agS1L78Ue2ioFysWkYowTNM0/V2EWE/e6/0wNy2o0LWOMfMxmvf1ckVidekbNxH/8VT2fjWNvJRUn93HUS2SusOupN7I4YQ1b+az+4jIiakHSEQsy5WTy4EffyJ+0hQO/7EUquDfg3kpqex6/0N2ffAR1Xt0o97IEdS86EJsgQE+v7eIHKUAJCKWk7U7nvgpn7Ln08/JOXjQP0WYJod//4PDv/9BYGwscdddQ70R1xFcv55/6hGxGAUgEbEE0+Uice584idP4dDc+eWa0OxrOQcPsn3cm+x4azwx5/Wj3qgbqHFuXwybVioR8RUFIBE5reUcOsSeqZ+zZ8qnZO7eXa5rI9udSeqq1T6qrCjT6eTg7DkcnD2HkAYNqDfiOupedzWBMTFVVoOIVWgStPiFJkGLrx3+Yynxk6ZwYNaPuHJyK9RGpy+nElSnLvEfT2HftG/ISz3i5SpLZwsMoOagi6k3cjjVu3er8vuLnK4UgMQvFIDEF/JSj7Dvq6+J//gT0jZsrHR7De+4leZPPQHkPx7/zXTiJ39S7l6hkPr1iWjfjmod2pGbmsrOt9/BdLnKXU94yxbUu2E4dYYNxREZUe7rReQoBSDxCwUg8abUVauJnzSF/d9+hzMjw2vtRrY7k65zfy7yesqKlcRP/oSE72bgzMwsdCy4bh0iO7R3/2p/JpEd2hMQHQ1A4rz5/HPDTbiysipVlz00lNpXXE79USOIOLNtpdoSsSoFIPELBSCpLFdWFvu/m0H8pCmkrFjpk3sYNht91q8iILp6scfzUlLd6wYlp+SHnnYExsYWe+7BX35l1Y2jceXkeLXGamd1pN7IG6h92WBswcFebVvkdKYAJH6hACQVlb5lK3s+nsreL78i93Cyz+/X/qP3qDn44kq1cWDmj6y+5fYKz0Uqi4DqUdS9ehj1bhhO6BlNfHYfkdOFngITkZOemZvHgZ9/IX7yFJIW/14lCxYaDgeRHdphOCr3Y3L/dzNYc9tdmHl5XqqseLmHk9n5znvsnPg+0b17UX/kcGIvuAAjQD/mRYqjvxkictLK2rOXPZ98yp6pn5GdcMCn9zIcDiLbtaV6zx5U79mdqK5nV3o398zdu9nw4CM+Dz+FmCZJCxeTtHAxQbVrEXf9tcQNv47gunWqrgaRU4CGwMQvNAQmJTFdLpIWLmL3pCkcmj3HZwsWGnY7EWe2pXrP7kT36klU1y44Irz/ZFVucgq73/+QXe9/WCVDdsUxHA5iB5xPvZHDie7TWwssiqAAJH6iACTHy01KYs+nXxA/ZSqZO3b69F6R7dtR65JBhJ7RhMCasQTFxhIYG4M9LMxn98xLSyP+o4/Z+c575Bw65LP7lCa0cSPiRlxP3LVXeZ5OE7EiBSDxCwUgKZC8/E/iJ00hYcZMrz8hVV720FACY2MJrBnjCUWBsbEExsZSZ9gVlR4SA3BmZrJnylR2jJ9I9r79Xqi6YmxBQdS6ZBD1Ro0gqktnv9Uh4i+aAyQiVS4vLY39075l9+QppK1b7+9yPJwZGWTu3EnmzqI9UK7MTBrecWuJ12btjmfzcy8C4AgPxx4elv/fcBzhYfn/db9evUd3ovv0JmHGTOInf+KXDVld2dnsm/YN+6Z9Q0Sb1tQbOYLaQy/3SsgTORWoB0j8Qj1A1nRk7TriJ09h/9fTyUtL83c55RJctw49//wDW2BAkWOJCxax+pY7yE1K8kNl3uMID6f2lUOoP3IE4a1b+bscEZ9SD5CI+JQrO5uE738gfvInJP/5l7/LqbCsvftImP49da4aevRF02T7G2+z9aVXq2x3+cM22GkYHLIZ1HeZhJoQbZqEeeGfsnlpacRPmkL8pClEnd2FeiOHU+vSwdgCAyvfuMhJRj1A4hfqATr9ZWzfQfzHn7D386+80jNi2O2Et2xBZMcOBNetQ2BMDIExNQiIjcn/OgYzL5ecg4nkHDp09NfBQ2Tu2k3KXyuKHdoqj/BWLem+cA4YBnlHjrD2rjEcmPVTpd9baVxAQn7wSbMZntfru47++A40obppUs0Eo5g2KiogOpq4a6+i3g3DCWnU0Isti/iXApD4hQLQ6cnMy+Pg7DnET5pC0qLFFdrw81j20FBqnNuXmgMvIGbA+QRUj6pUe5m7d3Pwp1848OPPJC/7s0Lr83T6cirBcXH8O/Im0rdsrVQ9pckDdtlgj81GdjGp5tgAVMBuQpRpEmV6t4vfsNmI7tOb+qNGENP/vEovECnibwpA4hcKQKeX7P0JngULs/buq3R79rAwGt1xKw1uG+2zSblZe/ay7ZXX2PvltHINX4U1a0r2vv0+ncOUAey0Gey3GThP0J1TXAAqYJgQgXt4LMjLP+WD4+oSN/w64q67hqDatbzbuEgVUQASv1AAOg2YJkmLfmP35Ckc/Hm211Y7rtG3D63H/R/BcXW90l5pUv5eydq77iV985Yqud+JHDu/pyxOFICO5c15QscyAhzUHHgB9UaOIPqcnmB4c/BNxLcUgMQvFIBOXa7sbOI/+ZTdH0wiY+s2r7bd8Nabaf7Mk1X+QepMT+efG/5D0sLFVXpfKHl+T1mUNQAVKJgnFGmCt9eCDmt6BvX/M4q44ddiCwrycusi3qcAJH6hAHRqSlq4mHX3P1zpycTFqXnxhbSf/IHX2y0rZ0YGS/v2J2P7jiq5X2nze8qivAGogHuekHuukLdn8oQ0akjrsa+6e4RETmLaEEZEymT3Rx/z95XX+CT8ADS+506ftFtW9tBQGtxyk8/vkwGstxksdtjYZq94+KkMpwGJNthmM9hnM7xaQ+aOnfx9xVXET/7Ee42K+IACkIiUKm39RjY++jj4sMM4pKH/H7EOadDAp+1vtsGSABt77Cee3FxVTANSDdiRH4S817DJhocf8/oQqYg3KQCJSKmSly2v9CPtpcnctcun7Zetht0+bb+ZC9o7XUT59reyXIJMqOMyqV3B4bSSmC4XR9as9WqbIt6kACQipYrq0tnnO4fveHO8T9svjTMzk13vf+jz+8S6oLPTxdm5Lmq73I+r+0O46Z5D1MjlnhTt7Q6pgOhoAqKre7lVEe9RABKR0hlwMCKcwJqxPrtFwg+z2Pz0cz4dZiuJMzOTf2+4qUqHbCKBtk4X5+S5aOh04aiCt23Ln/zc2GkSl7+Nhi8E1ozlYGQE6BEbOYkpAIlIqUyXi4T43WzJziKkcycMu90n99nx9jusvHYE2fsTfNJ+cVL/XcXyAReTOL9iTyVWViDuobHeeS6aO12E+CA0OEyIdZk0cZnUcpn4amcvw24npPNZbM3JIWH3Lq0LJCc1BSARKV1+r0xmWhr/rFxJQs0YgjqfhSMy0uu3OjRnHkt69GH762/iTE/3evsFsvftZ/39D7N84GDSNmz02X3KygY0cEHPPJfX5gkF58/vaeIyiTbBN7EVHJGRBHU+i4SaMfyzcgUZR1J9dCcR79FmLiJSquMnQB8+cIDDBw7gCAikSft2hGZkkOnFlZTzjhxhywsvs+PN8e69wC4aSEz/83FERlSq3ay9+9x7gf30M4eX/IGZ653Vq70t1gWxuEh1wk67jQOG+4mtsgrPX/DQV0NcBUKaNSUjNJSNGzeSt3KFb28m4mUKQCJSuhKeAMvLzWHTmtUA1GrYgDoxNchZvwFnRqZXbpuXlkbCjJkkzJiJ4XAQ0boVkZ06EFy3LoExNTy7wAfGxhAQUwMzN++YneATyTno/jpz1y5S/lpBxrbtfpljVFGRwJlOF1m4F03ca7ORV0IQspkQaZpUN/HZEBeAPTSEwFYt2XcokY3bfLsZrIgvKQCJSKnKkhkS4neTEL+boJAQGnfqQFBiElk7vfdou5mXR+qq1aSuWu21Nk8VwUBzFzR1uYi3wW6bjcz8IOTI7+2p5sMhLoDghg3Ijo5m6+ZNZP/zT9ku0hwgOYkpAIlI6cqxBlB2ZiYb/v0XgLimZxAbEU72mnW4cnN9Vd1JyR4aSnC9OILj4gipX4/genG4cnLY9n+vV7jNgnlCDVwuDtrca/hE+OARds/9AgIIatOag2lpbNy+DeJ9u06SSFVSABKR0lVw2GjP9m3sAcIiImnU9Azse/aSvW+/d2vzB8MgsEYNguvXyw84cZ6wE1y/HiH14opdN2nFVdd7rYRYHy6mGFSnNs66ddixdRvpq1f57kYifqQAJCKlMs3KfdqmH0ll7cqVGIaNBq1aEu1wkLluPabT6aUKvcsWGEBQnbpFgo2nNyeuLrbg4HK1eWDWTyTOm++jiivPsNsJad2KpLxcNm3egnmg8ksRGBoCk5OYApCIlM5LE4dN08XOTRvZCVSrUYMGDRpgbt9BbmKSV9ovK0e1yEJDU56emzh34AmsVRPD5r1VQpyZmWx84imvtedNATWiMRo3YteuXaSs09YVYh0KQCJSKl/sA5aSmMjqxERsNhu1QkMJz8jw6cJkIQ0a0PSJR4k5t1+lH6cvr+1j3yRrd3yV3rM0LiAtLJSE1BRcK1f6uxyRKqeFEEWkVL5cL8flcrEvO5PNdoN4m0G2j+6TuWsXq0ffzurRt5O4YFGVPQ6fvmUrOydMrJJ7lUU2EG8z2Gw32JeVicuHm9yaeSfnOksioB4gESkDR0R4ldwn3YB0u4HDhBgTIkzTu/9KM00OzZ3HobnzCG/Vkoa3jab2FZdjC/TdyjkbH30cV06Oz9ovCxdwxDA4ZFDiOkK+UNU9bSLloR4gESlVZIf2NOx9TpXdL8+A/TbYbDfYbzPwRXxIW7+BtXffx+KOXdn22jhyEhO9fo+EH2a5e5v8JAfYn9/bs99WteGnYe9ziOzQvupuKFJOhmmeQsuiymkj7/V+mJsqtvmkY8x8jOZ9vVyRlMaZnc2ihx5l7ZfT8Mc23wEm1DQhzDR9su6NLTiYusOG0uCWmwhr3qzS7TnT01nSsy9Ze/Z6obqyM4F0wyChint7jjJoe/Uwznn5BexBQZVsKxM46I2iRI4RCsQoAIl/KACduvYt+YOlL77Cnj//wh9BCCDa5V792Cdj+IZBzHn9aHjraKJ796rwasabn3meHW9N8HJxJcsDDhsGSX7r1zeI69KZbo89TJ3u3bzU5iZgupfaEinQHLhcc4BEpHzq9OjO5T9MJ3HtOla99wGbZ80iJ813u7YXJ8kGSRgEmVDT25t+miaH5szj0Jx5hLdu5Z4nNOSycs0TSt+0mV3vvu/FokqWYcABwyDbT0vuBIaH03zQxZx583+o0aa1f4o4ycyevZlu3RoQGVm+HrDU1GzWrk1gzZr9dOvWgDPPrF2m6x5++Cdycpw0bBjF6NFdCQ0NqEjZpZo06S/27k0lKMjBffedg81Wsf/p5s3byurV+9m+PYmXXrqQ4ODio8jTT88hLq4aHTrUoXPnepUpvVgKQCJSIdUaNqBZhw4ErvyXfRs2kGwYZFXxh3C2Abvze2hiXBBlml7dDytt3XrW3jWGzc++SP3/jKT+yOHFrvB8vA2PPo4rx3dbfziBZMPgkB9ncQab7t/vunXr0aBjR6o1bOC/Yk4iu3Ylc9FFkwgKsnPTTWfzxhuDiY9PYc+eVI4cySYtLTv/vzmkpeVw8GBafuhJYNeuZE87bdvWYuXKe3A4TvyHnJCQxv/93yJcLpMaNUK5664elX4PK1fuZejQqVx/fUduuuls6tevBsDEictYvty9Hcodd3QnJKRiQeullxbw66+bAejSpR7XXdexyDkHD6bz1FNzAGjTphZr1oyp0L1ORAFIRMolO+EA28e9xb4vviIvLQ2AakA10yTLgGQMjhjgquIwdMgGhzAINSHWZVK+dZpPLOfAAba++ArbX3+TulcNpcEtNxPWrGmx5+7/bgZJi37z4t2PygIO2gwy/NTbY8vfeywKk+D8Xrf09etZ/8DDbH76OepePYzG995JYM2a/inwJDBx4jKcThcZGS7y8txLDHz44Z+eD/Oy2rIlkXnztjJggHs+2uLF21m1qug2MitX7sXlcv9h1KoVzsSJy8p8j379zqB166J/Vi+/vIBt25J45pm5ZGTk8uqrF5Wr9uOlp+cUqn3w4FaeAPTOO0tp0qRGofPbtKnFsmVHN1Lu2LFupe5fEgUgESkb02TP1M/Y9L9nPMHneMEm1MakpgkphruXIqeKP6wzDNhpN7CZEGtCpBcfpXdlZRH/8VTip3zqnid02y3ueUL58tLS2PS/p710t/x7AqmGwUE/hMoCgfm9PdXMkh8dzjtyhF3vf8jez7+k+bNPEnfdNSfNbvB//hnP3LlbWLp0F1u2JNK4cTQtW8YyalTnYgNARWVn5/HBB8sB9zYg997bE4Crrmp/wgBUo0YozZvH0KJFLJMn/03fvk147rkL6Nmzoeect95awrRpq094/3XrDnDnnd+Xud733htS5P1v25bE11+v8Xx/442dy9xeSaZPX8vw4V8We+z333fSo0fhuXILF97C0qVHN95VABIRv9r01LPsnPBumc61AdVN90TljPwglAaYVfh56DIgwYAEDCJMqOEyqewzSR7HzBOKaNOaBreOpvaQS9n26livbfaaDSTa3L1p/mCYEI47+JRnjlVeWhrrxjxI+patNH/qCZ/VV1affrqSESO+8vSSAKxdm8DMmet5443fuf/+c3jxxYFeude0aas5eNA9H27QoJY0axYDQMuWsYwbN5j/+79FxMensGTJ7SQnZ3L33TPYsiWR994bwpAhbVm1ah+TJ//NggXbeOedpYUCUFV57bXFOJ3unquIiCC++uroZribNx/yfP388/MJCCg+DsfFVeOmm7pUqo5je4Aee+wX3njj9yLnjBrVmaeeOr/C91AAEpFSHV66rMzh53ihJoSaZv68FUgxDHKr+EP9iAFH8hdYjM1fYNFbJRxZu461d93LludeICepcnuambgXLDzot0fY3csNVDNNokwqNZ9q5/iJ1L7sEr+uBfTDD+u54YZphcLPsXJznbz00gIaN45m9OizK32/8eP/8Hz9wAO9SU7OxGazERkZROPG1YmPTwFgw4YDXHttB9LS3CtcvfHG7wwZ0pbPP//Xc/3ttxd+ku6hh/pw/fVH58qYJowe/S0HDrh7Y+++uyfnnXdGuert3r1wwFq+fDcffvin5/sjR7JL7Ll6/vl5JbbbpUu9QgGoQ4e6vPDCBQDs359GjRqhnvDkdJrMn7+V888/OqTcsGGUZ64RuHvWjp0fVaDg97OiFIBEpFSZ27ZVug07UMOE6PxeocOGQXoVf8jnGbDPgH0YVMvvFfLW8zLZCQcqfG0ukGQzSPbjiFFYfo9dmBefqMvaHe/XAPTss3M9vRkAt9/enS5d6vH116v58ceNFKwCc999Mxk+vGOFJ/UCrFixh6VL3b0Wgwe3onfvxlx33RdMn76WK65oy/PPX0CHDnX555+9TJiwlFGjOnPPPT159NGfWbp0F3v3pnoCUPv2dejRo3A4Of4pqKlTV3rCT9OmNXj11YsIDKx4ZN21K5lLLvmY7OzKb19iHDf02bZtLdq2rYXT6eLMM8eRmZnLI4/05eabz+bGG79m3ryt9OjRkGefHQDAkiU7SU11b4oTGhpA/fpRAGzfnkROjpPAQDuNG0dTu3blVhpXABKRUkW074C9fn2cu3eXfnIpDNwftmGmSS7u4bEUA5xV/OGfYkCK3SDQhNj8D/6qLMG9YCEc9MM8qQJ2E6Lye3y8/eC0vUF9HNWjvNxq2SUmZvDnn0c3oL322g6MH38pACNHnsWgQZOZNWsD4J6ku2ZNAl26VOxR67w8l6enJCDAzquvXsSKFXv4/PN/MU2TuXO3sGZNAnv2uHssDh1Kp2vX8aSkZAFQt24kgwZNZufOos159wAAIABJREFUwwBs2nSIPn3eZe7cm4t9Ciw5OZMHHpjl+X7s2EFMnLiU5cvLtuGuYcC4cYOpUSMUcPf0DBo0mYQEd6AKDnbw6adXFwkYN9/8DevWuYP+vHk3ExRUfISoWbP4rXM+/PAv1q93Xz916kouvLAF06e75xs999w8bDaDp5/uz9ixiwu9t1tu6QpA48Yvs2PHYXr1asTcuTeX6b2eiAKQiJSByY7sDBo1b4pz0xavtRqAO3zEmO5hqhSj6p9wyjFgT/6/WH26wGI+/y9Y6B6WjDJNwn0U+hwtmrH98GE6+HGZ3e3bCw9H9urVqND3gwa18gQggHXrKh6AHnroR374YT3gHlYbMuQTtmxJ9PQwjR07iBtv/JrMTPfSCDt2HGbHjsOe64//PjMzl0WLtpOb6yw2AD322C+esHLBBc0ZPLgVQ4dO5Ztv1hQ5tyQPP9zXE4BeemkBq1cfnbs2fvxlDBnStsg1BU+12WwGvXs3xm4v+//EqanZPPnkr57vX375Qho0iOK770YwcOBH5OQ4eeaZuaSl5TB9+lrPeQW9Wrm5TnbvdgfIFi1iy3zfE1EAEpHSmSYZiUlsSEmlwVmdCNmyFVdK5cbfj2UAkflPbOVwtFeoqp96KlhgMTj/UfpQL7adgfsR9qpeK6mAzYRq+cHHV1u/2qKiyGp6BptXr8Ll553ga9WK8Mw7ARg4sHmh4/v2pRb6vnr1kArf6/iekoJeEoDzzmvK1Ve3Z9Gi7SQnZ7J27QFWrdoHwCWXtCYsrOS+t+ICxuzZm3n3Xfej7gEBdsaNGwxAaGgg1aqVvPhDQW9TgWNHqf7733NZuzaB779fx+jRZ5f45FdBAImJCStX+AH4z3++Zv/+IwBcdlkbzxBfv35nMGXKVVxzzeeYplmo9wfcE8tHjerMzp3JnuHM5s1jynXvkigAiUipTJf7B48rL48d/6wkIDiEup06EHY4Gef2HV69VyDu1Z0LeoX8scBilgG77e6bRuavfRNczp6hPCDLcD/FlerHuT0FCxZGnOAR9sqyNWlMRlQ19m7cSO7KFUcP+PEx+Pr1q/Hoo/2KPfb/7N13XNVl+8DxzxlMWYIDRFFxbzO3pZkjV45ypWnulZma2a9yl1aaWpqP5d6amit3zsyFpeIWcSLiAERANuf7++Nwjhz2OEB5rvfrxevhfOd9eJJzcX+v+7ru33+WalVRVqsup6Vly/JotWq8vfV5KX/+eRvQz14sWNCJ69ef0KtXbQA2b75oDIBGjWqc7mMk0M9iJZ/tOHnyHu+8s9qY1D1yZCMqV9bvX7Wqe5rXSEzUMXPmUaZMOUBcXCIqlYqpU1uaLH+3sdEHUhUrFmHIkAbGQCe5sLBo4wxWoULWaR6TUokSjmg0an744S82b9Yv4Xd0tGH27PbGYy5efEjx4g7Mm/d20oo4H+N9AA4c8Ofp02j+/vvF4z2ZARJC5J8ULQPjY6K566tP2HQr701RJye4dAUlznx929XoZyycFYUYIEytIpz8XUoP+uBFH8Dob6xV9EGaVdL3GvSVmeNV+qAnjoJbwWWgUsAJcDFzQUiTe1hbo1SvSnB4OCG3b8PdPLqRmfn7h9Cu3XKTGZGuXWtQtmzmFb7TU6eOJ9HRX6PVqunff5MxAJo0qQWVKhWlZ891/PrrhVTntWy5JMPrdu9ek19/7QXAhQtBtG+/nOfPX/wba9Ei7WKcBtevP+GDDzZy+rQ+d8/BwZrVq3vQuXM1k+Pu339G2bLfATBr1p+ZvFt9YObl9U2mx23c2Jtu3Wpw8OBN47Zvv21DQEAY3t76n/e0aQfZvPkitWp5sG1bX44cuYWvbxBubvaEhEQRH5/I9u1X2LnzqvEaMgMkhMg/Ol26u0Ju3yYEsHV0xKNmdeweBJH4IMist7cF3HUKRdEHIwVRYNEgISnQAfI3azoLDAULnXK5hD0jas8SRLsXJ8j/JrG+vpmf8C/y22+XGDhws0nw4+npZDIjkVNarZpff73AihX/ANCsmTeff94cnU4hOjp3jwNv3AimdeulPH0ana3zevfewD//BALg7e3K9u0fUL168VyNJTsMOUM7dvRl9uxj+PkFs2XLZUaO3MH06a0ZMKAe27dfASA0NAovLxe2bu1Du3bL2b27PzVq/MDz53GsWPEPZ87og7gqVYpRrpxbuvfMDgmAhBCZUrKQzBoTEcHtc+dQqdQUrVwJNxtrdJeuQGKi2cahIXWBxQj41wUi+UoBR7JfsDBbNBrU1asSEhvLE/+bKA+zFuCmXA5dUHQ6hU8/3Z0qv6RKlWJs394XL6/cr1b7448b9Ou3Mdm1i9KhwwpOnLhLpUpFOXx4CA8fRvDee+sBfYXlPn3qZHjNMmUKA/oq0Iak55RiYhJMHhklZwhANBo1+/YNxM3N3iSIsrLS4OBgjaOjDcOHN0zzGgCKoqTZYqNHj5q4uqafKVehgj5QUalUjBvXlLVrz7F4sb5S9hdf7GPhwlPEx+t/P/TvXxe1WkXZsq5cvjwWtVpF9+41Wb78b44efVGGI7cFFpOTAEgIkbkMZoBSUhQdj2/48Riwd3XFo3QZrO/eRfckONNzs8NQYDEB/eqxsAIsHlgQtMmWsOfVL3J10SLElSlN0J07RF3K+gqjf5PIyDh69VpvXKVl0KtXbX755R0cHHKfEr59+xU6d15lsi15wODqascbb3gbP/wB9u3zM0mWTmnjxt7GJqTTp7/F/v03ePQokhYtyhlXe6lUKmbP/pMJE/ZnOL7ERB0VKsxKtb1du0rs2tUfV1d7/ve/zumev2vXtTQDIE9P52zNnvXu/Qp+fsFMm3YQeJFUrVKpTBKvDV3mBw2qx/Llfxu3W1tr6Ns346AxOyQAEkJkSlGyHgAlFxUays3QUFQaDe41quKiU9BduZa1KaUs0gJuioKroq+rE1YABRbzU6Gkx1x5VrdIpUJdtTJhahUPr/uhnA3Ji7vkC0VR6NJlFQcOvCjd4OBgzcKFXUyqKudWlSqp+4lZW2uoVcuDBg28aN++MgDbtr1Y3h0YGE5gYHiq8wyePYsxBkCOjjZs29aXmJh4/vjD32S5u2GWJy8lr/o8b15HVqz4h7NnA1mw4CR9+9ahVi2PLF9r6tRWeHg4MXz4VuM2d3eHNGsHNW5cGi8vF2MV6E6dqlKkSKFcvBNTEgAJITKXy4BFSUwk6MpVggBHj+K4e5ZA4+eP8iz9D4DsUgEOCjgUcIHFvKBJtoTd3AULDdTOziRULM/DwEAirl3L/IT/gAULTpoEP+XLu7FzZ78MVxE9ehRpXKUFULlyMWMgkp6KFYvQqlUFihVzoH79kjRo4EXt2h7Y2Gg5c+Y+3t6u+PoGsW/fjVTnfvxxE6ytNURExBpnWaytNRQpYvpoybDa648/TOtw1azpke6jtE2bLhATk4BaraJ379QBX1YClwkT9nPypL7CdalSzgwd2oDKlYvSuvVSYmMTaN16KUeODEkzCEyPkuL3SVBQBO++u4Zt2/qaVLP+7bdLJu0url8PJioqHnt78/wrkABICJG5bDwCy0zEo0dEPHqExsoaj9o1cXwehe6G+YorQuoCi2EqFdH/wUDILtkS9rwavrpCeSIK2RN07TqJZ89mfkJ2FPDPfOHCUyavFQU+/vj3NI8dMaIhHTtWZe/e6/Trt8m4fdasdowb1zTTe+3fP9D4fVxcIhs3XuCnn05w+nQAf/45lM8/32usY1OzpocxyPL1DWLFim7G3CDQB0VZbfPQpUs1unSplua+y5cfcfZsIFqtOt1l8ulJTNQxadIfzJhx2Lht0qSWWFtraNWqAqNHv8YPP/zF48eRtGixmF9/7cXrr5fN9Lrbt1/ho492pNq+Z891evfewIYN76HRqDlwwJ9evdab9HG7cCGIgQM3s379e9l6L+mRAEgIkamUf7GZQ2J8HPcv6muD2Go1uCQmmr1WTfICi7G8WEqf3wUWs0OdbAm72brXp6AjKTDUaIi5dTPT4/+LQkKiuHr1icm2mzdDuHkz7Ud6KQslZtfjx5Hs3evHnj3X2b//BqGhUcZ9Cxac5PhxfZ2A1q0rsHNnPzp1WsWePdc5cuQWZcp8Zzy2USMvpkxplaux5NaFC0GMHLmDY8duG7d9+mlTkwTkOXPa8+BBOBs3XiAoKIJmzRbx0UeN+eabNunO0GzefJG+fTcaA8FXXilB9+41+fzzvQDs3HkVf/8Qrl9/Qu/eG4iL0ydIV6pU1NgHbMMGXypVKpqrLvAGEgAJITKlizVffZ+0xCg6HqpVPM7DasU2QPEUS+lj/0WBkE2yJex5VbAwFghTQbhKpQ8Cc5jblVVKfMFVgz5+/E6eBO5pWb78bwYO/C3V/TQaNYmJOmMNII1GzZw5HQgLi6Fjx6rs2XM91bXq1i3JmTMBNGpUOlfNTQEePYrI1vFnzwYyZ85frF9/3mTmZcKEN42NSg1UKhWrVnXHxkbL6tVnURSFefOO89tvFxk1qglDhtTHxUVfXTs8PJaPPtrOqlUvZhi9vFzYtas/Hh6OPHsWw8yZR/n++/ZMnLifTZsuGo+rU8eTgwcHsWHDBWPe0NSpB7h27TFLl3alUKGc/6aQAEgIkSkb9/ypHaJTwVMVPEWFfdIKJ3M//lGjXz3loihEJ1tKn98FFkFfsNCwhN0ujz6rFQruMWB+/XeTFnd3RyZPzvosQZMm+l5hdep4mswuZOWxjouLnUnw4+Zmz4ABdalXrxTvv/9iJqN0aRcGDfoNH58AkwAjufnzTzB//gns7a3o3fsVFi16J8vvYc+e6yxa5IONjYa7d8OMSdbpNSc1OHz4Jp98sotz5x6YbHd2tuWbb9qku0TexkbLqlXdadasLB99tIPo6HgCA8P57LM9fPXVQWbNas+wYQ14++0VxuKQoG+lYQh+AGbMeAtXV3smTtxvsky/Rg139u8fiIuLHcOGNcDHJ8C4KuzXXy9w5cpjfH0/znG5BQmAhBCZcqhciWo9unP5142ZH2wmUSqIUpnOCpk7AdhOATtFoRgvltLH50OQYJVsCXteFSws6ETwaj26U6hS7h4r5Ub9+qWoX79Uts+rUcM9220xypVzpXx5Nzp2rErHjlV47bUyaDRqQkOj8PBw4u7dpwwcWI833vCmT59fjed5ejrRt++rtG1bka1bL7NkyRkiImIBiIqKz9bqKtC3qEi+0swgvRwhg9KlC3P9+ovHhVZWGj74oA7Tp7+VafAEMHBgPRo1Ks348buNDWafP38x/s8+e8MYADVr5s3atT3x9HQynm9YBv/dd0eM2/r3r8sPP7yNk9OLB8G//NIFa2uNsRda69YVclVrSqXk1xyhEMkkzG2O4nck8wPToB1zGFXFN8w8IpEpReHsvJ/wmfMjCbExmR+fBwolFUG0z8Ok4ORL6c35y1GF6RL2vKBQ8KUAtLa21B/zMXVGjTRDLzA/YGumR/2b+fgEMHfuX6xZ0wO1WkWzZovw9HSiX79XadWqgrHmDUBERCx//HGDPXuuc+XKYw4dGpyqV9isWX8yfvxuAA4eHMybb5Yz7ouPT6RcuZlERekLIxYubEeXLtX46KMmma5k+/77P1m0yIdBg+rxwQevUrx45oFPWv766w5ffLGPatWKsXBhF+P2UaN2UKRIIb78snm6jVSXLj3DF1/sY/Hid+jYsWq691iw4CSLF/tw6tSH2NrmZB6nItBFAiBRMCQA+u+KuBeAz3ez8N+1h/iY7JXmNxerpNkTlzxs+aAvsAgRucwVslHAUVFwVvJuyj0RfW7PM5UqX2aw0mJla0f5Du2o/9mnOJYqaaar/vcDIHPT6RRjErGVVV791597iqJke3ZGURQiI+NwdMw8/T8n139BHwDJIzAhRLY4epWixYJ5vDY9jKur1nBp7XrC7uZvJ8x4FQSrVIQo4EDetIHQF1jUF1lMAKJVEIOKxKReYIlJXzr0eUWapC8t+ro9tujzevLyl6yhHUgkBZPDBFC4TBmq9epJlQ/6YOOc8SyDyD21WoVa/e8NfAxyEpyoVKosBT85vX5KEgAJIXIkMSQU+ychlHwahpNOKZBkYkUFEehnaQyNQJ3zYBWVFnBUwBHFvM/FckCHfmaqIBvCJk/edgp9in1wCInBISABkPgPkQBICJEt4RcucnPGTIIPHTZWiLYjeTKx/sM5vx/FxKngsUpFsKIPVlxQsH2JHvDHqCAMFRGqgqtjZJUsyDTMQcQ/DePuwkXc/XkxRVo0p/wXn+FYo3rBDFCIbJAASAiRJbq4eG5+8x13//cLSjqVoTWAqwKuimJMxo3M5w9rnUofhD1DhW2y2jr/opI/WWYsWKhSEVOAb8AhK8nbikLwgUOEHDpC6ZHDKffZp6it86pxhxC5pyUxEaKiMj9SiOzQasHOrqBHIcxE0em4OOxDHv++K8vnFFKgUFJfrmdJCbr53a09RgUPVXlbYDEvxPFiCXtBzfZokxLNnRWyVX5A0em4M28B0XfuUnPJz7lcCWYHeOXifCHSUgQALVFR4OdXwIMRLx1HR6hYcDVAhHkFHziYreAnOSugSFIycWTSbEZUAcwKJS+w6KIoOPzLZoUUKLCfT3Lm+vk82rGTp8dPUvi1xrm4SinAPH2fhEhJHoEJITKVGJX75e4qkhKJFaVAZzgMBRZzOsNhbgU5Q2agzqMZsoSI7LViECI/SQAkhMiUQ4XyaKpUIvFq6t5FOWENFFMUiiov+nLld45LggpCVCpCyGKOi5kVVI5UcnmZI6WpUhmNY86K6QmRH166AKhunz6ERURwZNEiShYrlqNrLNqyhQfBwTk6V6NW82nfvthap/131B+nTxMbF0eH11/P9FpHz56lz8SJvNuiBXPHjs3ReFJ6a+RI/jp/nj3z5tG0Th32njjB1iNHmP/pp1hbScKiSJsC3AgIoHydWujO+prtuir0Mw/OilKgq5wiVRCpUqW5ysmcEim4VXIG6nxYJaeuU5sbN25Q+yVahSdePi9dAHTnwQNCnj0jPiHnXYh/WL+eq7dvU8HLC2tt1n9ENwICiIuPp3/HjmkGX2evXaPD6NEkJCby0/jxDO/aFYDo2Fh2Hz+e6vi/r1wh4NEjzl27xm+HDqXaX71cOSqVLp2NdwYxcXFExcQQ/vw58QkJDJ0xg3sPH+IfEMCWWbNwdpC/2EQaFIX46Giu+l7AvVoVXJ9HkXjHvMUPbRVwR6GYUnB1buJV8MSwlB59YGaOAotRSY+4CqrpKpCndZIMNGVKE+pQiIe+5guShcgrZg+AIqKisLOxQaspmEqVMXFxANjZZK2aZEa2fv89Xu5Zb4pXq2dPbj94kO7+2hUr8sn77/PN8uWM+PZbgoKDmTZsGCHPntF1/Ph0zzt69ixHz55NtX1Et24s+OyzLI8vJSutlmNLltD+4485dOYMrw8axJ558/DM4cyZeHklX/b+8No1HqKiWOWKuNraoly6Arn4gyMlNVA4qedXQVU6VlQQDoSrVGgUsEdf58hOARsyflykALHoK0dHq1REUTDNSEFfsDCvKmUbabWoqlclJDqaJ/43MakUaYZqvULkFbMEQCcuXGDBxo34XL6Mf0AAGrWaUu7utGrQgC8HDKC0R/Y62uZUbFwcz6P1yZqFHR1zfb3q3bvn+hrJqdVqZnz4IbUqVKDflCl8tWQJD548YcFnn7H2669JSEw0Of6Ery+/bNlCk1q1GPLOO6mul93Zn7R4ubtzfNky3ho5klMXL9Jx7Fj+WbMm19cVL5lUdX8UHt+4wWPAzsUFD++y2NwNQPf4SVpn55i9AvaKUqC9rhKTVZs2UCfNoqjRB0MK+po9Ogpu2Xpy+dErTV2sKLFepQi6fZvoixfz6C5C5J1cB0BH/vmHDqNHGwMPgESdjjsPHrB461bW7tnDqRUrqFG+fG5vlanQ8HBAP/tjk04OTnasmDIlWzNAH0yeTMCjR5ke16N1a1wcHen8ySfsP3WK8OfP6dSsGYfOnDE5rmjhwgBYW1mlCujKlChh8jO9ce9emo/JUrr38CEAq3bt4tLNm8btzerU4dTFi5QrWZJvV6wA4I1XX6VhjRqZXlNYgAx6JkeHhXHr7DlUGg3u1aviooDuytUMz8kuDfq+XK5Js0JPC7DbOeiDnLRLQRasQkkzZ3mWzK1Soa5ahTAUHt64gRKSs1xJIf4NchUARUZF0f7jj4mKicHe1pZpw4bRoHp17j18yMY//mD70aNExcTQd9Ikzq1bZ64xp8sQABV2cjLL9faeOIGDvX2Wjw959izLx77VqBF75s+nZLFiFC1cGL979+iYTqLz4b//5vDff6c6f+/8+cbXV27f5vOffsry/TcdOMCmAwcy3P7tRx9JACQAUHSZf6IqiYkEXb1KEOBQvCjupUpideMWurAws41DhWmBRcNS+oJ6xPRvoEm2hD2vljGoXVyIL+/Nw/v3ibx2NcvnmaNhpRB5JVcB0MmLF4mKiQHg97lzebNePeO+Xm3a0H/qVFb8/jvn/fwIf/4cp0KFcnyv3cePsyeNROHkHoaEAPA8OpqPZs7M9JplPT0Z27t3qu1vvPoq3p6eRERFEZGNKtnN69YFSHcFWFr3MXB3c2Pl1Kkm+zN6BOZZtKjJ62re3nw3alSm9/x582ZuP3hAv7ffpkrZshke27ZxbgqYiZdKNmdzIp88wf/JEzRWVnjUqoFTTCyJ181bcNUKKKooFFH07SKeFXABwfyWHwUd1ZUqEm5rzcPrfiSeO5dHdxGiYOQqAPrr/HkAirm6mgQ/Bm81asSK338H4Ob9+7xSqVKO77X3xAl+2rgxS8c+i4zM0rGNatY0BkCHzpzhaVLRrhb16+d4nIBJwvK7b75JQmIik37+OVWOz/tt21KzQgXOXrvGk6dPKe7qarLfo4i+XLetjU2qfQmJiew7eZLGtWrhaG9P+VKlGN+3Lzqdjpi4OOxtbdMc266//uL2gwe0btiQ9956K9X+Nbt34+rsTLsmTXL03sXLSVFy9sAnMT6e+5cuAeDiVZJixYqhvnINxYztd1SAkwJOBVxgMT/kVcHC5FT29uiqVObxk8eE+d/Io7sIUfByFQBZabW0atCAetWqpbn/6u3bxu9TzlhkV682baidSQA1e80arty6BUCD6tXTTBxOrlhSjg3A/82fz5krV3I1xpRUKhW6M2dITEzkm+XLU+2vW6UKNStUYMS333I66UMiLQd9fDjo45PmvvPr1lErqeVEfEIC70+cyEV/f/5cvJgiLi7pXvO7lSvp0aoVavWLBbHLduxg8Ndfo1ap8Fm1KlcBq3jJmCGfJywwkLDAQKxs7ShRpzaFnoaRePuOGQb3gqHAomFWqKCbiJqLoWChYx4uYVeXLcPzwi4EXb9O/HmZ7REvv1wFQBMGDoSBA1Ntj4qJYfvRo8xatQrQJ9gWSzGDkV0Na9TIMB8lLj6esXPmGF8HBQfTr0MHkw/4jKyaNo1HoaG5GmN6rK2sWD1tmnGJ/i9btvB3smBrdK9ePMxB4UWVSkW5kiWNr6NiYrh88yZXb9/mrZEjOfTzz+nW9fH182Pp9u0M7tIFeBH86HQ6xvfrJ8GPMJVO9/eciI+J5m5SnRi3ct4UdXKCy1dQkv59mIOaZAUWgTC1inAKrgZPTqgUcAJcdAppz+ea4R7W1ijVqxL8LJyQO7fhnnlrO/2rmq0JkYJZ6wBNX7aMZdu3cycoCF3SL8x6Vauyato0c94mTYf//ptnkZEULVyYqmXLcvTsWXYfP56lissAlcuUoXKZMuw9cYJxP/yQq7H0btuWz/v3N75WqVS8366d8fWZK1dMAqCerVsDsO3IERKz+EHzeu3aqYJKZwcHjixaRKsRIzh77RrtP/6Y/QsWmDwOi3j+3Pj9hIUL6dG6NZsPHjQGP9+MHMn/9euXvTcsXnqKGVd0JRdy5zYhgK2jIx41q2P3IIjEB0FmvYct4K5TKMqLthv5XWAxOwwFC53ycgl7CQ+iPdwJ8r9JrBQtFBbKrAHQ49BQbgUGmmx7FhnJw5CQbC0nz4mthw8D8N5bb9Gifn2Onj3Lws2bsxwAGTwJC+PyrVtU9famY9Omqfb/sG4dMXFxjOjWLVVSt9+9e2w5dAj/gIAcvYfeEyYYk8ozs3TSJAZ07JhqexEXFw79/DPNhw3juK8vXcaN4/e5c7G2smL07Nmcu67v5dS6YUP2nzpFi+HD+eeqflXH//7v/4zVqYVIThdrvtmZtMRERHD73DlUKjVFK1fCzcYa3aUrkCJvLjc0pC6wGAH/jlmKpMrTeVqwUKNBXb0qIbGxPPG/ifLoYR7d6AVdXHye30OInDJrADS2d286NWvGw5AQDvr4sG7vXvzu3aNx//6cXbuWmhUqmPN2RmEREcal233ataNO5cqULVGCPSdOcOSff0xWW2WVt6cnLdNIhv7fpk3ExMXRol69VI+XbK2t2ZKFWjwZ0ajVLJs8Od39S7dv5880qkInV9jJid/nzqVenz4c8PHh5MWL7PrrL35cv954zMju3UnU6Tjo44NGrWbl1Kn0bts2V2MXLy/7cmVRqdQ5TobOKkXR8fiGH48Be1dXPEqXwfruXXRPzFtvxlBgMQH96rEwFQXSiV2rgEvSo7q86kukLlqEuNKlCbp7h6gMcg3NTaVSU6icd77dT4jsMuu/udIeHsaqz73atKFby5a0+/hjEnU6th89mmcB0JRFiwgND6dK2bLUrVoV0OfVfPz99wz++msubNiQ7dYYO48dY+exY+nufzeD1hW5oVarea127XT3H/Tx4c8sXKdU8eJsmz2bew8fcuD0aWatWkUxV1dUwKPQUFQqFcsmTaJmz57EJyRQ1Vt+UYn02ZUqRcPxYzn53WxMWh3koajQUG6Ghr4osKhT0F29ZtYCi1rATVFwVV50Z8+PAouFknWfz5PbqVSoq1YmTKXioZ8fyrmbggd4AAAgAElEQVSQvLhLRgOg0fhPsC1VMvNDhSggOQ6AnkdHs2TbNkC/3L1ymTKpjmnTuDEVvby4fvcue06cYOKgQTkfaTqu3r7NgqQl718PH27cPqJbN1bu3MnZa9eY/MsvzMxCjZzkPuzenTljxqTaXrx1a8IiIgjcsyfVKqvtR4/S/f/+Lwfv4oX4hATKdeqUq2sYNKxRgz9On+brpUtxdXLijwUL+GjWLGOyt5e7Oz+OG0e/KVNoNWIERxcvppoEQiIdr44ZjWuFChz9YiKRjx/n232TF1h09CiOe4kSaG74ozwLN9s9VICDAg55WGAxPwoWqpydSKxYnoeBD4i4di2P7pIxh2LFaDbjK8p2aF8g9xciq3IcAOkUhdGzZwMwfcQIvhgwIM3jDHkyuenOnu4YdDpGzZpFQmIiAzp25J033zTu02o0LJs0iXp9+zJnzRpa1KvHW40aZfnamw8cwCeN6WJDEnGH0aNTNXx9/PRpjt5HwKNHlCpe3Pj6q2SBXEp7T5zgeBaSFuPi45mwcCGzVq3C2cGB/QsWpDkD90GHDmw9fJjtR4/Scvhw/ly8mApeXjl6H+LlV7ZDe0q92Rzfn3/h8toNhKfI+ctrEY8eEfHoERorazxq18QxMgqdv79Z75G8wGKkCiKTmrHmpK6QOqkZqUNeFywsX44IB3uCrvmReLZglrA7eXpSrXdPag0bijYbFfSFKCg5DoAc7e0pUbQoD548Yffx42kGQHcePOBi0i+nulWq5HyUaVAUhaEzZnDAx4fypUrx47hxqY6pVbEi/9evH18tWUKXcePYM38+zerUyfC6lcuUYVTPnunuN9QKqlu1arqP1bLTPuLH9ev1M1Vr1wL62kqfvP9+usc/efo00wDowo0b9J08GV8/Pxzs7dkzbx6vZvDzXzVtGu98+ikHfXx4fdAg1n79da6LQYqXl9benlfHjuHVMaO5s2cfF1es5N7xEyhmTFjOTGJ8HPeTGnC6lPGiWBE31JevoSTrSZhbKsBRAUdFQQHiVBADJACJqEhUQSL6nmBq9EnWGgU06PN5bNGv6MqroEdlb6cvWBgSQtjtW3l0l0zGoNHg9VoTanzQlzJt35Lu7+I/JVc5QL3atOH71as57uvLh999x9yxY7G20k/unvfzo9+UKcbaN++2aGE879CZM3w0axYA04YN491kMzdZNWrWLJZs24ZWo2Ht11+n27Nr8pAhXLl1i98OHaLD6NH8sWBBhgHKjXv3jHlEaXGwtycyKoraFSvimE5rj4TERGN/tIzMXbeOUxcvolGrjT+n+IQE7HNYhTlRp2PmypVMWbSIuPh4ShUvzsZvv800IHMqVIg98+Yx6KuvWLVrF61HjmTCwIFMGjwYTRbrKAkLpFJRpl0byrRrQ0TAfS4uXsK137YSFZK/+SZhAQGEBQRgZWeHR53aFAoORXfvnlnvoQJsFHjxJ4+SX6lQqahLexHl5soDPz/ik6rx5zd7Nzcqd32HGoMG4ih5PuI/KlcB0JcDBrBq1y4eh4byv02bWLx1KxW9vHgeE8PdoCBj7ZAR3bqZrKgKi4gwVmwOzmajxNi4OMb98IOx1cWUoUOpn04latCvqlo3fTqdPvmEvSdO0Oajj1g6aVK6Qdfwb74hPFmtnPR8+N13Ge6v6OVFg+rV09wXExsLwKmLF7GxtmbFlCkm/cNGdOuW7nVP+Ppy3i91TyX/gAD6Tp7MyQsXAOj8xhssmzQpy41hrbRaVk6dSmkPD75asoRpixdz7Nw5Ns+ciauZmsuKl5djqZI0njaFhhO/xH/LNi6tWkPQ2XN5vmosufjoaO75+gIqilQoj1uhQqguX0GJ/+8vxVZZWaFUr0pIZCTBt27B/ZyV2sjVGFRqPOq8QvUP+lC+SyfUVnmVySRE/shVAOTi6MjZNWvoN2UKB3x8iE9I4PKtF1Oxbs7OTP/wQwZ37mxyXvLqzOpsTJkeO3eOwV9/zfW7d7G1tmbO2LFZqltjbWXFllmzaDdqFEf++Yeu48czsFMnfhw3jkJ2dibHPti7N8N8Ja/27YmIisJ/2zbcnJ3TPS692aFnkZFsSapZ5OrkxLbZs3n9lVeM+620WhZ89lm61/34++/TDIBOXbzIyQsXsLG2Zvbo0XzYvXua54cmdaxPr0vztGHDKFOiBEOnTycoOFhmgES2qK2sqNijGxV7dCP02nUuLF7CjR07iU3qs5c/FIJv3SQYsHFypkS5stgGPkAX9Cgfx2Aeao/ixHh68sD/JrFJf9zkNxtHJyp0bE/NwYNwrSwV4sXLQ6WEhyuk8YGaHYqicCswkGt37nD7wQNcnZyo6OVFlbJlUwUYOZGo0zHi229ZvHUriqJQ1dubDTNmUKN8+WxdJy4+ns9/+om569ahKAoVvbw4/MsvlChalEFffZVmYJHS+evXSdTpqFWxYqok6JSsraw4sWyZybbYuDi8OnTAwc6O3fPmUal0aeO+Qq+9RnxCAnGnTpmc43fvHku3bUOtVrN8xw4ehYayY84c3k5WqNGQE/Vht27G3mCgf8x29to17G1tCX32jM0HDwJwY+tWypcqle7YD//9N6U9PPD29Mz0Z5ImR0dINo6UEuY2R/E7kqNLa8ccRlXxjZyNS+S7hOhorq/bwOW163ls5n57WaVSqylWvjyFtVYol6+YtbWH2anVqKpX5Wl8PI9v+OfrLFpyxapWpVrv96jUqydaM/weF+Lfxix1gAw9qZL3pTInjVpNUHAwiqIw5J13+OGTT7Jd1wf0AcnsMWN4s149+k2ZQnE3N2M7ifiEBOKyMFVuqJej0+mIy8EvURtra37+/HNeq12bosmasWZmZlJfNYByJUvSumFDk/0qlYpFX36Z6rwHT56wZvduk23tX3stw+AHoHndulkemxAZ0drZUW1gf6oN7M+jf85ycfFSbu7dT3yM+RKWM6PodDzy8+MRUKiIG+5eXljduoOSR/3/ckLl6kq8dxmC7t0j6vLlAhmDla0d5dq0psbggRR/NeMFI0L815llBig/hIaHc/LCBdq/9ppZrhcUHIxWo8lWEJLXlu/YgU5RGJhGHaAj//yDoigUdnKidgYzKyk9ePKE63dfNDgsU6IEZUuUMMt4MyQzQCIDsWFhXF21hkvrNhB2x7wd4bNKrdXiUbEiTgmJ+gKLBURdpTLhWg1Bfn7o8qBcSFYULluGau/1pMoHfbDJ4NG+EC+T/0wAJP5jJAASWXT/yFEuLl3O7cNHCiwAcHT3wN3DHe31G+jyIV9J7ehIQqUKPAx6SMRD8zZ/zfIYtFrKNn+DGgP7U/KNZgUyBiEKUl61nxFCiCwp+UYzSr7RjOePHnF56XKubNxM5MO8b9SZXMTDICIeBqG1scXjlZo4hkeQePO22e+jKe9NhKMDQddvkHCuYAoWOri7U7V7V2oMGoBdsWIFMgYh/g1kBkjkDZkBEjmk0+m4s2s3F1es4v7JUygFlLDs6uVFkcKuqP39UcJzPiukcnJEV6E8T0JCeRpg3vpEWR6DWk3JRg2p2f8DSrdra7ISVwhLJTNAQoh/FbVajffbHfB+uwPht+9wcfFSrm3dRnQOW83kVOi9e4Teu4dKo8GljBdOrm7YKQqq6GiIjER5GoaSrGaYqlAhVIVdwMEBnZ0d0UD401CePXiAUkAFC+0KF6Zyl87UGDwQp7Kp+zUKYclkBkjkDZkBEmaki4vH77ctXF65mqDzvhRYGeYUVBoNGq0ViQnx+doKJGMqPF6pTbW+71Px3XdQW0vBQiHSYtZ50MQsTlXvPXGCsXPmZLsKNMDlW7eYuWoVujycFo+Ji2PN7t3sOXEi3WMu3LjB5oMHCXiU9eJqOp2OnceOccDHxxzDzJab9+/zv02bTJbTC/Ffoba2ovJ7PXh3707eO7iPaj26Y+2QdrHR/KQkJpIQG/OvCH6sHQpRvWcP3ju4j3f3/E7l93pI8CNEBsz2CGz38eP0mTiR+ePH06tNmwyPnfzLL/hcvoyVVst3o0Zl+R5Pw8Np1K8fEVFRKIrCZx98kNthA/o2EkNnzKBB9erM+PBDnkVG0mfSJOpWrUrbxo15Hh1N3T59aNO4MXPHjgVg9e7dfL96NV8OGMDXI0Zk6T4PgoN5e8wYKnp5cX3LFuP2dXv3EpJUoTmrBnbqlGmvseSehofz0axZ6HQ6alWowFuNGmXrfkL8W7hVq0rzH+fw+jdfc3XNOi6vXU/w9esFPawCU6RSJaq934sqvd+TLuxCZIPZAqCthw8TGh5O7wkTuOjvz4wPP0y33cI3I0fSYvhwFmzaxLg+fbJci6ewkxPfjx7N0BkzmPTzz7Rr0sRYDbrj2LHsPHYsS9fp3bYtq6dNM772LFaMq7dvc8LXl1E9e6Ya99dLl3Ltzh26tWxp3Gbocl+pTO6fq89YtsykhUhWdGvZ0iQACouIyLSSdZNatTh27hyf//QTNsl6j6XFs2hRKnh5ZWtMQuQnrb09NYYMosaQQQSdOs3FJcu59ccBEmJjCnpoeU5rY4t3q5bUHDwA9wb1Mz9BCJGK2QKgxRMm4O3pyZf/+x/frlhByLNn/PLFF2kGQW/Wq0frhg3Zf+oUs1avZmY2ZoGGvPMO248e1c84TZqEz8qVWFtZ4ezgYNJQNC3RSU1IDU1aDexsbPhywABGzpzJzJUr+axfP+M+v3v3mLN2LaU9PPi8f3/jdmMAlKyVRW6N6dULjyJFMjzm66VL02zWevbaNVoMH56l+5y7fp3mQ4dmeMzI7t2ZP358lq4nREHzaNgAj4YNiH0axqUVK7iyfiPPzNwR/t/A2cuLqu91p3q/ftgUdino4Qjxn2bWVWCf9+9PBS8v3vviCxZv3YqttTVlSpTgz7NnUx374MkTAGatWoVfskrFBg729qz56isAIqKiWL93L24uLrz75pssmTiR6t274+vnx/Rly5g6dCirp00zmdVJy9Lt2xmUdM2UBnfpwsqdOylRtKjJ9sioKGpWqMCXAwYY22+Ehocbxz92zhyc0mh8OrpXr1TtKjLzUc+emVZp/mXLlgy71Ts7ONCkVq1s3Tct1cqVy/U1hMhvNoVdeHXMaF4d/TH3Dh7k0rJV3PnzzwIrsGgOaq2WMk2bUn1AX7xatIBsNJAWQqTP7Mvgu7ZoQcJXX9FvyhSa163L5oMH2X70aIbnpLVfo1YbA6CQsDCGzpiBu5sb7775Jh5FivDLl1+y+eBB3nvrrVyPefg333Dezw+NRsNvhw6xYf9+QJ/o/OF336HVaPhu5Uq+W7mSzd99h//9+8Zzj/v6pnnNrskel70xZAix8fE8j9b3Prr38CGNkmaTtsyaZTzu1v37mfYjy6hTPUAFLy92/fhjqu1/nj3LmDlzeOfNN/lywIAMryHEf55KhVfLlni1bMnzBw+4uGQ51zb/RuTjxwU9sixzKFaMyl3fpcag/hTKj/Y1QliYPKkD1LN1a5rXrUtxV1derVKFoe+8Y9x3JyiIDyZPprCTE9u+/z7da6SXP2TQtUULurZoYZbx3ggI4NTFi6m2x8XHp9oe/vw5vkm5Nl2aN2d8374APAwJocu4cVTz9mbJxIkmjWGPnT9vsmotJi7OeN3kszkts5hMnROrd+/m7LVrNK0jDQ6FZSlUogQNJ31J/S8+4/bOXVxcvorAM2cKrMBiRlRqNZ716lGjf1/KdnxbChYKkYfyrBBi8aQu617u7ni5uxu3F72tLy/vaG//r/kw/mPBAnSKwuPQUF59/31Cw8OJjYtDrVbTt317vho+nBJJuTlqtZqhM2YA8EqlSjSsUQPQ59WAPinasM3gyqZNgD5IemPIEMqUKMHe+fMBTB55tW7Y0CSx+eb9+1z096dsiRLUSlFTx8Yq/eWtQcHBTF20yGTbpgMHAP2s1rCk8aenbZMmdGomvYHEy0Wt1VKucyfKde5E2M2bXFy8lOtbdxDzLPvlOMzN1tmFSl06UWPwAFzk8bMQ+SLXAdC+kydpmyKJWa1SkZBOrRtDInJ2lnCnp/Mnn3DozJl096vVas6vW0eZTKaPVSoVz6Oi6PH55wQFB7N00iQGJuUTrdq1i00HDjCuTx8+7dOHhyEh/JVU1TX546+g4GAAk2DPwJAoXcjODgBrrTbN5Omfv/jCJCBauXMn/aZMoW2TJiz47LMM30NyYRER/JJsmX1yh86cyfBnBuDm4iIBkHipuZQrx+vfzqDx1Clc/3Ujl9es49GFi+RvgUUVxWvWoHrf3lTs1g2NTcaLOIQQ5pXrAEhRFJMk4GeRkWQ0sWx45ONghnoVzyIjiYiKQq1Wk/KBmaEo4/OYzJfEnr50iV5ffsmtwEB6t21L+9deA6BO5cp8M3Ik70+YwNRFi/C7e5fypUoZV5EdO3eOuPh4rK2sjEnRpYoXz/b7iEoaY25SG5OvbKtStizn1q1Dp9MRGxfH64MGkajTMX3ECNo0bpzptdzd3HIxEiH+OzQ21lTt+z5V+75PsO8FfBcvxX/3HuKjovLsnlb29pRv15ZagwdSpFbNPLuPECJjuQ6A2jRuTNiRFy0N7Bo3JjaDRN5rd+4A+mXkFbp0SfOYuWPH0uH117M8ht0//piqsF/5zp25mSxZOT13HjzgtYEDSUhMZFDnziz8/HOTooQt69fn/Pr1jPj2W6YMHUrrDz8EoIiLC8FhYZy6eJGmdepwNygISHsGKC06nY7tR4/yVqNGxtmjzuPG4ZgsMHwcGgrA2j17uHDjhsn5zevWZdqwYcbXhp+5lVb/f2ntpEdmXy9dSqJOR/lSpRj/wQdoNRo27N/PZ/Pm0e/tt5mayXJ4ISxFkVo1afHTjzSNnM7V1Wu5vHY9IUnlLszBrUIFqvXqSZU+vbFycDDbdYUQOZPvzVAv37wJQGxcHP4BAWkeY3hMlh/KlChB+9deo0H16sY6Pw+Dg3mzXj0aJeXyuLu5sWXWLC7fusXdoCAqenkxe8wY3h4zhq1HjtC0Th0O//03AKU9PDK9Z+CTJ1Tv0YOrt2/jt2ULMXFxAMbk6pSeRUYaH7sZGB6nGRhWmCWfjbsbFMSMZcsAmDZsGFqNxnjsvYcPuZ+NNh5CWAorBwdqDh9KzeFDeXLel1s7d3H30FGeXLuarcRplVpN0cpVKP1mM7w7tKdo7dyXpxBCmE/+B0BJFY8nDBzI+BStLPpPmcJvhw4ZP6jzy7bZs43fhz9/TqP+/UlITOS3mTNNjqvm7c3Qd96hYY0atG7YEKdChVi9axdf9O/P6UuXcHVy4pVKlVJdPzYujiP//GNMRH4eHc3V27dpUL06zyIjAX39npvbt5uct2HfPkbOnMmAjh2Z+fHHJvsMMz0GkUlT9slnkMbMmUN0bCy1KlakZ+vW2f2xCGHxitauRdHatWgw4Qtiw8J4cu48kQ8fEfPkCdGhoUSHhBIXGYG1gyN2bq7YublhW6QIDu7FKfpKbWxcpFihEP9WBRYAtW7Y0OTDGkCb9KGe8sM9r4374QeuJI0rOCyM6NhY7Gxs6PXllybHNa5Vi4Wffw7oE6c7NWvG6t27GTVrFgmJiXRp3jxV8HbQx4fO48YZAxQAVycnNs+cSfO6dY0zR5XLlMHN2dnkXEOelK2NTap9KYUlBVKGGaBEnY7dx48D+pklm2SPCA21hFbs3Mnq3btNrmNrbU34n39meC8hLJGNiwslm79R0MMQQphJvkYaT54+5XFoKPa2tjSoXj3V/oSkD+bM+lSZ2/5Tp4ytLQyiY2NTdYO3tbExqU80skcPVu/ebSycmLxXmEFZT08io6KoXKYMrRo0YP6vv1LExYXmdesCL1aPVSlblochIcYcKXiRL3Xj3j2O/POPcXu5kiVTJVsbcpAMlaw1ajUdXnstzf5g4c+f8+TpUwrZ2lIsqVyBQX7/7IUQQoiCkK8B0D9XrwL6ppzWadSxiUsKgLK7RH7W6tX8nqIR6pOnT7N8/rElS0hITGT5jh18+uOPNKtTh9+SVWgeOn06vx06xBuvvmpyXv1q1WhUsyYnL1zA1cmJFvVTNyX09vTkyqZNVClblvuPHzP/119N9hsCoMplyrDn+HEGpNHO44/Tp/nj9Gnj6wEdO7J00iSTY24HBgKYFGDcnOIRnoGhJUi3li1TXUcIIYSwBHkaAF26eZMVv//O96NHAzB7zRpA3ww1LbFJycCGnltZddDHh4Pp1B3KCmcHB6JjY/lh/XpUKhVzxo41PnI66OPDlsOHKebqyuA0Vq15Js24uDo7p2qyalClbNl0733s3DnjMSFh+oJsDapXT1VMEfQtNLYePpzmdfySGj+WL1Uq3XsJIYQQQi/PAqDTly7RbtQo1Go1sz7+mOO+vhzw8UGlUvF206ZpnmNYyeScxSWiXw4cyKDOnTM8pmSxYlm61o/r1xP4+DEqlYpFW7bQ7+23iYmLo9Mnn6AoCnPHjk0VmO08dozNBw8C4B8QwMSFC/n2o4+ydD+Ap+HhxsdsVcqUMa70eqtRozSXpx/w8UkzAAp59ozrSQ1lvdzdaZVJSw1DL7O9J0+me2ylMmX4SbrBCyGEeEnlSQCkKAotR4wgMiqKLs2bE5+QwGfz5gHwftu2VPP2TvM8Q5FEVyenLN2nZRqPnHKqe6tWPA0PZ/nvv/PLli0mlZQ/ef99erVpY3L8k6dPjZ3l+7Zvz69//MGs1atp07hxqkdl6fnt0CHi4uOp6OVFBS+vVEvds+qv8+dRFIWq3t4UdnLiQBZnwx48eWIs4JiSIalaCCGEeBmZNQC6dueOsSBfZFQUEwcNYurQoXyxYAEnLlzA1tqa6UmFBFMKf/6cOw8eYGttjYujozmHZfQ0PDzdfd6ennz70UfUr16dHv/3f8ZK0qBvSVHM1ZURXbviYG9P4OPHtB01ikehobRt3JgVU6ZQt2pVRs2aRbfPPmPnDz+kmeSd0rq9ewHo9/bbJtsjo6J4lFQEMblHISFpXuf3pFVbzerUwcHOjls7dmR431/37+fzn36iW8uWfJeijYlBRr3GhBBCiP86swZAf5w+jaIo2NnYsGLKFLq3asXvf/7JdytXAjB5yBDj6qWAR4+4/+gRtjY2RMfGMmfNGiKioqhTuXKmneCzKi4+nochIVhptQQFBxsDjpR9uC7dvMmWQ4fYsH8/V5OatXp7evJp375sO3KEfSdP8tm8ecxcuZIfx43j/+bP5/7jx5QpUYJV06ahUqn4qEcPDvr4sP3oUd4cNowNM2YYH/X5BwSQkJhofNxla2ND4OPHHD17FrVaTZ/27U3GM2ftWuasXZvu+0qeaRQZFcWvf/wB6Ktyq1Qqk35iaSlauDCgrxmU2bFCCCHEy8isAVC3li35Yd06Nn33HXUqVyY2Lo7+U6eiKArvvvkmnyUrfLh+3z7jYzEDlUrF3LFjzTaeAz4+tE9RQBAwKQp49OxZ3hgyxPi6fKlSfNG/P33at0er0TDs3Xc57uvLxIULiY2LY/2+fdx//JhaFSuy+8cfKZKs0Nmv33xD7wkT+O3QIfpPnUrQvn1YabUMmT7dWO8H9I/u/jp/Hp1OR+uGDVPlKXl7eqaZzBzy7Bn/XL1q0jPsgr8/kVFReBQpQrsmTXLyYxJCCCEsjlkDIHc3N25s3YparQb0NWXmjx/PrFWrWDFlisnMzntvvcWNe/eIiokhJi6OSqVL07VFC+pUrpzquvZJ9WoKZzE3yOD1V16hWZ06xhmTulWq0K1lSyp4eRmPaVanDr3btqVo4cL0aNWKBtWrp5qBalKrFod+/pn4hAT87t1Dq9Gw+quvUhVytLG2ZuO33zLq+++pW6WKsaDj++3a4ezggFqtpkmtWnzQoQNuzs5c8Pc39uwyvE+PIkUY3rUr4/r0SfV+/jx7lp5ffGGSJN64Zk1WTJlCwKNHWa6gbWNlhZuzs1ka0gohhBD/RSolPFwhnR5UQuSYoyMkC+5SSpjbHMXvSLr7M6IdcxhVRanIK4QQIufUBT0AIYQoCHfu3Em3dldmwsLCOHXqFLHZaNy8bt06Vq5cyYMHD3J0TyGEeeV7LzAhhChokZGR1KhRAzc3N06fPk3xZK1l4uPjiYiIMPkKDAzE19fX+HUvqfDoV199xYQJEzK9X1RUFIMHDyYqKoq///6bErL4QIgCJwGQEMLibNiwgcjISMqVK2cMfpo1a8bp06ezNKvj4uJC06ZN8fT0zNL99uzZQ1RUFF5eXryaxTphQoi8JQGQEMLiLFmyBIBRyepgvfXWW9y9exdra2tsbGywsbHB1dUVrVZLyZIlqVy5MpUrV6ZKlSosXryYIkWK8M477xjPj46OxsvLi/ikWmjJxcTEABAQEIBLspWjmXF3d+fatWs5fZtCiAyolKgohYCAgh6HeNnY2UEGfckkCVoUFF9fX2rXrk2RIkUICAjANlnz5eXLlzN58mQ2btxIw4YN2bdvH507d2bYsGHMnTsXAH9/fypWrIiTkxP379/HIWlVZkxMDM7OzsQl9TQ0Bw8PD8kZEiKPaLGzy3C1jhBCvEymT58OwNChQ7G1tSUhIQGNRoNKpcLR0ZGAgACmT5/O77//TsOGDbGxsWHJkiVMnjwZFxcXfvnlFxRFYciQIcbgB8DW1pbnz5+nSqzu0aMHW7dupVOnTmzatClbYzVXUVghRGqyCkwIYTF8fX3ZvHkzrq6ufPLJJwB88sknlC1bls2bN/Puu+9So0YNdu7cyaVLl3B2dmb48OFERkaybNkyYmNjWb58OVqtlo/SaHys1WqxsrIyfh07doytW7diY2PD7NmzTfZl5UurlSwFIfKK/OsSQliMSZMmoSgKU6dOpXDhwty4cYOFCxeiKApubm5MmzYNR0dHHB0dWbFiBY6Ojjx79oxSpUrx6NEjhg4dSkhICC4uLixbtozGjRvTqlWrNO8VHx9vDJJGjx5NuXLl2L17N1FRUVkaa5UqVahWrZrZ3rsQwpRKydF0tZQAACAASURBVGkhDCFyQXKARH5bsmQJgwcPBmDRokX4+/uzZ88eLl68yLhx4+jXrx/Vs9DEOLlPP/2UmTNnprlv9uzZjBs3Dnd3d/z8/HB0dKR06dLGJfSZ6du3LyuT+igKIcxPZoCEEBZh586dxu+HJOv/5+npyeTJkwHYtWsXAPv37+fHH39k4MCBJiu9UkovYPL392fq1KkAfPPNNzg6OgIwaNAgnj59mu719u7dy9WrVwEoW7ZsVt6WECKHJAASQliEnj17YmVlRcWKFSlRogQjR44EYO7cucZk5nbt2gFw5swZANq0aWPcllWBgYG0atWKiIgIatWqxQfJmkBPnDgxzXOioqL49NNPuXr1KlqtllmzZjF69Ohsv0chRNZJACSEsAg9e/akZ8+egH4FGOgDnm7dugH6mjuG/BxD3Z5u3boZZ2/Solar8fX1pXTp0gCEhITQunVr7ty5A0C5cuUyXcnl4+NDnz598PPzw93dnY0bN/L666/n4p0KIbJCAiAhhEX5/fffWbRoER4eHqxYscK4vXjx4oSEhAAQERGBWq3Gw8Mj0+sZ6v5ERkbStm1brly5kq3xjBkzBj8/P1577TU2btyYpXsKIXJPAiAhhMW4dOkSvXv3Rq1Ws3btWkJCQtixYwcnTpzgf//7H02aNOHWrVuUK1eOunXrcvr06Sxfu2vXrpw5cwYbGxuGDBnC/Pnzs3SeYYbom2++keBHiHwkAZAQwiIcO3aMnj17EhERAegDltDQUOP+Dh06AC+SpQMDAxkxYkS612vatKnxkRpA48aNOXLkCNu2bQMwCYDGjx/PsWPH0rzO+fPnARg4cCCurq6p9i9dupSqVatm6T0KIbJOAiAhhEW4deuWSVsJR0dHWrRoQb169ahfvz7169cH9I/IQB8ALVy4MN3rPX361CQAmjhxIu+++y7VqlVj7969JseeP3+eU6dOZTg+Pz+/NLcnD9KEEOYjAZAQwiK0a9eOKVOmULduXerVq0exYsVSHXP79m2OHj1qfG1nZ8fBgwfx8vICIDY2lubNm3Pv3j3at29vcq5KpUq3cOHSpUvTLYD43nvvce7cOdasWUPdunVT7TfcWwhhXhIACSEsQtGiRY31fgyioqLYsGEDa9eu5eDBg4wePZr4+HjGjRuHTqdjzpw5vPfeexw6dAgvLy8GDRrEvXv3aNq0Ke+//36W710qg8bA9vb2AJQuXZpKlSrl7M0JIbJNAiAhhEWJjY3l2LFjbNu2jTVr1vDs2TO0Wi27du1ix44dFC1alAkTJuDk5MSTJ09YvXo1TZs2pXTp0pw4cYLy5cuzdu3agn4bQohckgBICGER1q1bx+rVqzl69CjR0dGAvo5P+/bteeONN+jTpw+g7xbv7Oxs/H7Xrl0EBgYSGBgIwLRp08y6Wku6EQlRMCQAEkJYhO3btxuTk2vWrEmHDh0YOHAgGo2GJk2a8PTpUzp16kSXLl1YsmQJGzZs4MiRIyQmJqLVatFqtcTExNCrVy9GjRrF22+/TefOnWnVqhV2dnZZHkdMTAzR0dFYWVlx9+5dLly4ACCd34XIZ+qCHoAQQuSHbt26sXjxYu7fv4+vry/Tp0/H29ubTZs2ERgYSJMmTVi3bh21a9dm8ODBHDx4EK1Wy5AhQ/Dz8+P+/ftMnDiRwoULExwczPLly+nUqVOqFV+ZmTZtGq6urjg6OlK9enUiIyNxdnamTp06efTOhRBpkT85hBAWoWvXrmluHzNmDAEBAUyZMgV7e3umTJnC9u3b6datG506dTI+DgN98DJhwgT++usv9uzZw82bN+ncuXOqa1pbW+Pm5pZmG402bdoYl9oDeHt7M3jwYKytrc3wLoUQWaVS5AG0KAAJc5uj+B3J0bnaMYdRVXzDzCMSQghhSeQRmBBCCCEsjgRAQgghhLA4EgAJIYQQwuJIACSEEEIIiyMBkBBCCCEsjgRAQgghhLA4EgAJIYQQwuJIACSEEEIIiyMBkBBCCCEsjgRAQgghhLA4EgAJIYQQwuJIACSEEEIIiyMBkBBCCCEsjgRAQgghhLA4EgAJIYQQwuJIACSEEEIIiyMBkBBCCCEsjgRAQgghhLA4EgAJIYQQwuJIACSEEEIIiyMBkBBCCCEsjgRAQgghhLA4EgAJIYQQwuJIACSEEEIIiyMBkBBCCCEsjgRAQgghhLA4EgAJIYQQwuJIACSEEEIIiyMBkBBCCCEsjgRAQgghhLA4EgAJIYQQwuJIACSEEEIIiyMBkBBCCCEsjgRAQgghhLA4EgAJIYQQwuJIACSEEEIIiyMBkBBCCCEsjgRAQgghhLA4EgAJIYQQwuJIACSEEEIIiyMBkBBCCCEsjgRAQgghhLA4EgAJIYQQwuJIACSEEEIIiyMBkBBCCCEsjgRAQgghhLA4EgAJIYQQwuJIACSEEEIIiyMBkBBCCCEsjgRAQgghhLA4EgAJIYQQwuJIACSEEEIIiyMBkBBCCCEsjgRAQgghhLA4EgAJIYQQwuJIACSEEEIIiyMBkBBCCCEsjgRAQgghhLA4EgAJIYQQwuJIACSEEEIIiyMBkBBCCCEsjgRAQgghhLA4EgAJIYQQwuJIACSEEEIIiyMBkBBCCCEsjgRAQgghhLA4EgAJIYQQwuJIACSEEEIIiyMBkBBCCCEsjgRAQgghhLA4EgAJIYQQwuJoC3oAQghRkBRFQafTpfoy7Ev5lXK7gUqlMn6lfJ18u1qtTvVl2CeEyD8SAAkhXno6nY6EhAQSExNTfRmCnYKkVqvRaDSpvrRaLWq1TNQLkRckABJCvFQSExOJj48nISHB+L//hiAnI4ZZp/j4+FT71Go1Wq0WKysr4/9qNJoCGKUQLxcJgIQQ/8/eecfrUVR9/Dv71Ntz00hCEggQSug9FOkdESSCFBUQokh9QUQELIAgXZqK9CLSEaVI7y3UQIAECCWE9OT28tSd94+p+9ybSm5Es78P5HmeLXPmzO7d89tzzpz5r4WUkmKxSLFYpFAoUCwWI2Gp/wWEYUihUKBQKNhtQghSqRTpdJpUKkUqlYrDaDFiLCViAhQjRoz/KhSLRfL5vCU8KyOklD1IkSFEmUyGVCr1H+xdjBj/HYgJUIwYMb7xKBaL5HI5crncNyKcVUJQAooISgiSSFJIkkCS/4wHynjCOjs7CYKAbDZLNpuNyVCMGAtBTIBixIjxjUQYhuRyObq7uymVSn0io4uAVgI6EXTJgC4EnQR0mW3obXpfl95XXkSbCaCakBpCapBUi5BqJDWEVOO+m301SBook12OxCkMQ7q6uujq6iKZTFJVVUU2m40TqmPE8BAToBgxYnyjUCqV6OrqIpfLLbd8nlYCZskks0kyiySzSDBLJmnvg1JoZaCdwLW9KBW8ff0IGSJKDMX8X2aoKFHL1/N4lUol2tvb6ejoIJvNUl1dTTIZP/pjxIj/CmLEiPGNgAnf5PP5r9VODsEXMsXn6P9lqk+IzvJGCwEtMs0U0m6jhEbKjBJFRlFklCiyGiVSy+AtklLS3d1Nd3c3mUyGmpqaFR4eK7RN5bN7Rq9QmTFi9IZVtrkyJkAxYsT4z6JcLtPR0UEul1vmNuaQ4F2Z5T2Z5jPSX9Nn8s1CMwmaZYK3yYJUOUajKbKhyLOJyNN/kQG53pHP58nn82SzWWpra1f4tPp0Jk19/zrnARMCpNSfgACQIIX6LiUSoTZXTnYz+wTuXKm/mG3oto1AKUDIWP5KKL9cDmme2wzEHqAYMWL8B9HV1UVHR8cyhbpaCXhDZpkgq5i+Ej3KSggmk2ayTHOvrGMNUWQrutlc5Jc6XJbL5cjn89TW1lJdXd1HPe6JAUMG0jCgHilDBIFnDJWRkkIgZAgEyqZJINBGTUrP0OlP80MAIRDo4/D2ed+NwYzlr3zyy+VSTIBixIjxn0MYhrS2tkamcS8pPpZpnqOaiTLzP+XpWRZI4FOZ4lNS3Cslm4s8O4suVmfJywNIKWlvbyefz9PQ0LBCEqUFEsJQ1y6S+j+pDJ0xhlJZMyE8b4E1eLYhpQOh8g+EaBspEUikFAgRGon6XyNfxvJXUvkGMQGKESPGCkW5XKa5uZlyeelCN5+S4h9hHVOJp3X3hhKCCTLLBJlljChwgOhg5FIQoUKhQFNTE42NjSsgJCajoQp0hMLu8gyVDY1IbSQ9oylASB0a8Y4TeqcIQIbK2yCMzIrQSix/ZZPvXptiAhQjRowVhnK5TFNT01LV8skjuFfW8bKsqnh/i7EwfCjTTJb92Vl08V3RscRJ0+b69O/fv29JkAQZGqMnPUOoXvMlAYLQGcpQGS8hjRGLGjqEt924CbSBFcJrWwY2GmLsZSx/JZMfOhfSN39qRIwYMf4nIKWkubl5qchPKwGXhv15KSY/Sw0JPCOruTxsXKpZcGEY0tzc3LdLipg3cinVdbVv+DgPgE2U1bEPbTGlNOxJYk8wMPkh9rSK36E+T8hY/sosXyMmQDFixFghaGtrW6qwVxcBfwwbV6oE577A56S4ImykO5I8sWiUy2Xa2tr6rlPGBkmp3uq1oRKhtlah2+bbOBlKZ/dCs0NvCPE8CWFFGEU7CAKcUYzlr7zyNWICFCNGjD6HWcpiaXCvrGV2TH6WC2aQ5H5Zt1Tn5HK5PlxrTRstIdybuojstW/4yiiqrcJ4D8zx0msLqc/RmbBIb3eoZIQoz0IsfyWXrxAToBgxYvQ5Ojs7l+54AibIqj7qzcqJV2QVXUv5yF/a67akkMYyhdqYgTZc2uhZA2kMozFegBTahqpZPurTtKEF6GONR8GZPPU7lr9yyzeICVCMGDH6HEs73X02iZV+ivvyRgjMYukSm5elTMGSwIUnpH3TRwpnn2w+iHT/a6MHUhk2iU5wNc4DzxASqvd/4QyjNXtSxvJXavlYxP7lGDFi9DmWNqG2PqY/fYKlHdc+TYS2uSCeMQRM+ELYSIZLhpWgtgcoj4EJp6COEyZhFmP7BFJ7AFR7EhtrieWvpPIdYg9QjBgxvnEYRHmpivnFWDxWp8igZVg2o0+g3/KtgcP7NN/NT6Hf5vE8B1JGzrMhFeHtByB0RtGzuzZhNpa/csrXiD1AMWLE+Ebi8KCNi8P+FJdi9lJfQoaSsFymXCoRlspIqSrZCj01V4bKBR8EAUEyQZBMkEgmECugsvLikEJyeNCHs7qWFaExgmADGVLatA/1T6CTXoU2mqHbp42ZEMogKv+C9hRI422QqvZLgPIS+GtQxfJXQvlxIcQYMWKsQKiFDOXiD/QwghI/Fa38VTb0CQkKyyGlfIFiLk8pV6Dof8/l7b5irkApV6BcKi2TnCCRIJVNk8pmSFVl1Gc2Q7Iq47brfcn08q9ynULyU9HKCJa+/7JPgwSeUdNTl9WLuvf2D9ZTIM2yCOZcz2gab4AAVI0Zs11XWxQ6XCLN8gix/JVWvhcFjglQjBgx+hyTZnWy0dClX2xzA5Hn56KZ68IGmpYygddHWC7T1dxOV1Mrnc2tdDW10dnU2rc5Lp7sfGc3+c7uxR6bSCWpbqyP/t9QR5BcNt37U+YnQesyhxPfnJnn26ss06mLhsn/8HMyrCcAZbg0+bI5HDYXBGPpoufr7SayAqFeVNO0rb4II59Y/sop350TE6AYMWL0OU742zu8cPr27sG3FFidIr8JFvCIrOUZWb1EWSz5ji7a5zXTMb+ZjnnNdDW3rRCy83VRLpZon9tE+9wmu00IQXVjPbUD+1E7sJHagY1k62sW2U4C2EV0sa/oILuUnjdPMMc/MI1vbzp82c5fDKTU6zoZb4DERDyUl0CvbOlsnAl9CBcCMYmtdm0p81N5AYQEmy9iQx86UBLLX0nlxyGwGDFirEB8PLuDe96azcGbLZs7IYtknGhnJ9HFU7Kal2UVBc9PXszlaZ01n7bZ82mdNY9C19IVXfwmQ0pJZ1MrnU2tzPl4GgCpqgwNQwbSMHQQDUMHkarKAJBGsp3oZjfRxYCvmfB87YQWvmzuu0KIwoY/cG/+oGrDeMdJIcjlQu5/rpOBDUn2HJt1+73E2Xc/KfDJVwXGjskwfHDSLpQJYKcUmZlEWn5YljzyahfVmYBdt8guVL6tVYObVVQp3/doWZu8CPmfzijxxIRuOnMhvzisYZH6L6v82x7tZMa8EseNq6NfbaKH/ks6/n2h/8LkT5tZ5J8vdrHuain22Kpq+cv3ZMUEKEaMGCsEJ90xkc1X24k1B2SWuY0BlPm+aGc/0ckrpTR3fDyPqdPm0DGveTn29JuPYnee+Z/PYP7nM0AI1llvNY7ZZATbJgtUL4cSAm/MLPK7J2ZGQwzLExLMNGaJZ+C0vfp4epGfXbKAbTbI8PufNNLSXuaH585nqzEZ9ho7lI5uyZZHz2TvsVVcflIjSMFt/27n8rva+PWR/Th3fD/dddWu1PKEECoIo6cifTW3zHdOn8u6q6WYfMeqVv4dT3TS1FaO9jcScjGptsaBIThmvxqqqoT1RixOflNriRP/uIAwhE3WSrP7llV4zMPCLhVBgMpv8eQLb0FQQu0FcfKv+2cbr0zKs9uWWbZcV/TQf2Hj39QW0tzu3UcmT6eCb5ie2OnoASrhuEIPCaw+JEEysXj5tzzawe9ubOHb21Wzx1ZVS6+/OWJR468RE6AYMWL0OczL3s4Xv8BrZ+3MsPqv9+ipJmS3ZI5NR2V5KNWfxzMJPpndTLn0DZnm3cdIJJOsMnQAWw3vx0HDaxlTFQDLx+v1/rwy+930aTQnYznDs00IGTqDqYvhDR+U4MPPi7z6fp4TxtVVGFTJeTc3M2Vake/vqvPKRMikT1XRxnVGpoi85lsyYhJEpO8s8I6TVv75t7Yw+Yul8359f9cqqjL6vpaS5vaQd6cWvHE0MRpsnsq2G2R56b0cv7q2mVTK6U+g+iLNchAChg9MsuaIFGYRUZUsHPK3x7t4ZVKeI/auYesxWSu/UjWxEP17G//f3NDMn+5vXyr9F4c5D41gcGOwWPn3PdsFwIE7VCuSo/X3vUe+/phPibfSu3/9DcHyiJdGTIBixIjR55D6DbFYKrPV75/lmV98i7UHZb92uwOqUhw5uj9Hju5Pobw6r83v5pk5nUyc286Mea2Uiss2c+ubhkQqSf9Bjay9Sj3brlLL7gOzDAqWf7HI56YVOOSOzzVh7SP2g89nTGjCsAQ1a6c6IzjzR/WcdEUzl/69jZ8fWq8OlzDl8yJ/vLudUUOTnHF4Pz2VWjDpU0VY1hmRjEoyHgTPNkblu+1GvrGfpx5Sz5D+Ce+Ani6a825ppb0r1KeE1gPz5pQCe5wyZ4nG462PCux8wqKPPemgOq48qb9VS+kV8OxbOW56pIOt18+w9RgnPwJTC0ersbjxH9SQUERyMcgXJF/MVn9jI1dJUpXpxYUFpJJQZRy/En5/SyuX3dl7WYbWTnVNjr98Aadc1dTrMb3hjyc3ctQ+NRX69379DWICFCNGjBUA9aCVQlAuh+xw4fNcfugmHLblkB5vq8uKdEKwwyrV7LBKNTCIUEreby3w6vxuJi3o4rOmDuY2dSzVivT/CQSJgIZ+dYwYWMe6A2rYfEA1W/dL0RBxWSxf8iNFwAXPN3H1S3Psm7basVzFVAgF4xWx1EITL4HgJ/vXcdtjnQwdGPjxFjq6JRutmeLXR/UjmwGkYH5rmdlN6rqeek0TtVU9p++fcnA9u22ZwU6zlvSSQxIlfieOq2P1oQl3nPXm6NwY4C//aKe9K3ReJj8kBPSrDdh2w2UP+xqMWS3l9dvId32tlG+8J36/Vf6M0r+5LeS1D/KsMzLJqGGpyPj/9qgGfvvjBsUbjGesF/0vuLWVs69vYdVBCT76+zCyGeNl8XN1hPWumWtbLElLdBaG7rykO7/kN6Batzeqv6kM5DZ7Y0JMgGLEiLFCYN6qBVKToZ/fNZG7J/TnlqM3pzG7/OvNBEKwUb8MG/XLwFr9AChLyedtOd5pzjO5Jc8XbTlmtXezoK2b4gr2FqUzKRrqqhlUV8Xw+ixr1mXYsF+azfplyAQ9XuH7rB9TWySH/P1zvmopaDvhGfE+ywGSSEKbjyGEVJ4cVI2Yn168gPc+LZJMCO57tpu/P6HCIu9+UuDEK5pIJQUX3t7Khbe38sD5A5kyzYWrXnw336vIg3epRpAGYMfj51AoSTq7lX5fzCqxzbGzAME//jDQnvP5zCL5gjLUEhOKibZbLHkbvJXIzRVce2SSRy4aZJKFMH8Lz07Mcdo1LYzbqZozf1RvPVkLCz2aasgGorcXh17kA4Rl+ODzAq9+kOfV9wu8+n6eKV8WkRKuPa0/Pz0gGRl/U6bAdhnpyJPGV3NKXHB7KwC/PqKebFr0lG/CeXq2liFs5xzVwNlH1Ln2BEyaWmCL8XMQAib8dQgbrxX1QEmbON1TbZAkgsTi5cvoGMYEKEaMGCsGAqzLHfWMnfDZAtY76ylO2WMtTtl9TdJBX7ocICEEazVUsVZDz5Xm8+WQzmKZ1qKktRjSVgxpK5VpK4Z0FMu068+uYkghlBAICAI7S0VISYCkOpmgNhVQm0pQlwqoSyWoTyWoTwX0SwU0pAIakgHpRO/hghWFpnzAL/49m0cmt6NCHxIZ6mRSnWDalxAVXgWVDKu+fzK9xGsf9CQy+aLssb2tM+TdqYoAjduxitMOqUcCsxaUGXf2fDZcI8V1p/dnzWHaoEp4oYIk5QqS1z5QOUTtHU7vXU6euxQaOc9PhH6YhBcZJTd/e7yLtz8usNOmmR76mxONl8kmIeu2pK2o7LMl492QtHZKXp9csF6xscfOXmivRS/jvyTyf35NM105yYjBCY7ety4iXxoiZciUIKK/EJBO6JcePVSnXN2ClPDjfWrZYp10D/mSQHupKvQXKhRoawQtgXyDmADFiBFjBcB3RXvGQP/+4xOfcOVTn/CrfdZj/A4jyS57zcNlRiYRkEkE9P/6qUnfaMztFpz7zALum9SCDaX1ynUW4opYbtBk2HoHTO6G5OkrBxGWYU5TyObjZ9PUHlIoSoIAjtizhvOOaWBo/yQISRAIjr5Q5YpsunaaseunQcBbk3VO0MgUY8ekwaSCCJjyt6GAZOaCkF1Onssaw5I8erHy0qw+1JGXPbfKRvJaPp1RYtJnRdYYlmSjNaMeikwKz8BHQy0z55U59xad86KPue857dWaWuTYSxaAp7/zmKrf+2xTxXe2r8Kl6Ug928rlJT35RjcvT8rz6vt5PviiSFgRYepfH7DVemm2HpNh7Jg0/3ixi+v+1alFhpHxN9dFNa/r8RidQrjq/jbu1cnKqw5KkkxIe5rTvyK8aZKYzTPAk3PHU5288G6e+pqAC35azxdzirz5YSHqcutxO6oNiUDwne2rSARLJt/npjEBihEjxgqAZjteToJ6DpqnkSQMA85/+EPOf3gyP9xuNU7dfS2G1qXoWyO8kkAETJpX5jdPzefVaZ1A6I2/9DwUXrG5ipDH8oT0PAqKC2s5oZENnbkyB/9uPrObytz4y0aOvkiVOrj18U7uebaLXxxax2mH1DOrqcjLk5RH5+VJBeutmNWkk3MHuyRmIVWYZu0RCYQQVKWVhySdFKwzMtnjVrv2tEZWH5LE5Nzc8mgnP76wiX3GZrn6//p5YULhiL0XhjFobg/56786eh2Lp9/K8fRbix6vQf0S7LddFQLoykve/KjAK+/neWVSgee1N+tvOkwIkAhgozVTTPmyRKEoefCCgey/Xdb2SwLPTVTnqaXqouOviIoX9pIuAPbQK92cek2L1zulZ7EYcs6t7fxoj2rWHpkyjenhEZHxV5vU9W/rlvzizzqU9qN6BjckuOnfnZbULgk+u3soo4YksNcB48nsRb7HDGMCFCNGjBUD8wZp7EXERhhGpD5vf3kaf3t5GqOH1PK7/ddnx9GNJPo4JPO/iI5Sggcmd3H+c/NpzZVwM2LcFGtlK/zxl66kzHJOtjZwYRUTaXOeDIAJHxY47NwmPp9V4od7VLP31sott8U6aX5/dAM/OH8Bv7u5jU++KimCovHCxBzFEiSTkpnzFbkZMVgXABQub8bJ98NH7v7qyim9A2tQqcgfceEWF9WVlvxIKSPJ1GNWS/L2jasgQxVu+9aJcwlD+MNPGthjy2wP/Y0Is2nogMD2/caHOznpqp51r7Yek2b/7aoYu36GLdZNUVcl2O74ubzyfoFhA4Ie+oeh+p5O4pE27/qEmqTg9H/nkyKHnatqF2XTglzB5dqc9udWrrq/g7882MEDvx/Ajhtnot6XXscfzvhLC7MWlBk9PMlJ42oAyQarJznloFp6TbqSgrauMjc+ogjfgPqAuqrAuyYm2ZqFyjeICVCMGDFWDIwnW+gcCY8MCWTEK24O/2ROB4ddOwEEjNtiOMd8a3U2WrU2JkOLQGc5wUtfFrjylRbentWNMtJuYIWuw+Lbcjf+OkYkQp060TceICvYeJuEsKkyn80s8a0T5lIqw/hv1/DnUxqZ1+Jm7u2+ZYZ3bxrMcZe38tsj69n1lHkADGwImN8aMmFynu03zDDNTs9WuSZCGsLncll80lMO4Z8vdrP31llmNykCtP+Z8yIzyuY0q37c/ng3Ez+JJs3vslmGc35cDzoDKK9SikgllchN11IepnNvaycMYe0RSU77fi3JhODOZ7o446+t/HjvGn57ZH0ktFVp//vXC8aOUaG+sWPS3PLvLh57Pcdx+9fyo7289fYqzqvUv1z2CBBu/PXBeMlBADz5Vo7v/aaJjm7JbptnOOHAWg44a4GWJTnjsDpeeDfPxKlF9vj5fG48vZEf7F5tdelt/C+4vZ2//FN5xv7w0wbSSbVvq/VSbLVev6geejien5jniAuUd2jzddLcf94ABtYLn+1YUmZyhiLyPcQEKEaMGCsU0s7kkCqRWArnDRLKTS2NlwJUdVkJ97/5Ffe/9RVCSsauNZAfjB3Jtmv1Z0hdQsGE/gAAIABJREFUClH5ZFuJUCLBp80hT32W49aJrXzZUtJeidAaAemFBKQQmhCZncJdEyEjvKDvRtXL0dAyDdVaY1iSvbfOsu0Gac44rA6EZE5zmV02y7Dt+io5dkhjkvvP68/7nxWZPrfMuiOTXPTTBvY/awH/eCHH9uunefYdFeIZuUoyUu7GegG8KfBfzSuz4ZGzmTytxMd/G0K+qI6ZOLX3YoitnSEvTYomUtdVe+EXKenUXqT66sDK/3xOmQvvUAUGz/1xPckESCHp6Ar5ck6Zr+aVvb6ZNwbcywJw+O5VHL5bNSbV+ok3TD9kRH6Eu4ZuyI3+Ba1aVVYdH/H/VMi/8eEujr28mVIZdtokwz/PH8iLvv5CMnRAwAtXDWLcb5p48s0cPzy/iS/nlvjV4XUuSujJ/8uDnZx1g6sFtPaqCXp1D+uv+YLk7BvauPzeDsIQjt63mj/9Xz8yKS8B2hBqo7/5GmnW3dUxAYoRI8aKhbG9QrgwgWeolV0SPbabh5yUAa9Onc+rnyzQD7mArdfszwGbDGOrNRoZNSBLTUrw37D46VJDBDTnBR81lXj+izz3f9ipCA+auJhP89Yromsf+WEfVUXGhbiUF0jYc+nljXn56qLatwtWBo4Y/+v8AfYWaG0P2fb4eZTL8MC5jfr+kQgBG66RYvy3a9h+wzR7bpWmrlpw+xOd/PLQWl6fXGBgQ8AmayZRIyMRMgApyZckz07Mce+z3YCqLTR5WomxY9K0dioS0lgX8Mkdq3jeIsHfn+ripKtbOXqfai46tsEOqQDSNidabejoUoNXVy2s/FOuaqU7L9lkrRQH71xlhyE6zsZTon/6C37iro0w++0Fjrj0opsq9EfAfL3UR32V6DH+Rky+KDnr+jYuu0d5ab61UZqHLxxAdaYiYKf7WFcteOTC/hx9cQu3P9HFWde3EQg449C6iPw7n+nmhCv9PCJP34Xo/8LEApfe3UEmJbjm1AaO+XaNVl9qgmNOkpFzhXZrOflOZEyAYsSI0feQIAKJlNqdo1d8rjjE+2IeZp6RNm+3gQvNmDe6CZ818fpnTUgRgBAkgwQ7rjOQXdYdyKYj6lm9f5bGqgSij3Ja+gJlAuZ1C6Y2l5kwo8ATU7t5d7ZaWsG486Vx19ikDUdvCFXirrIJoY48GE9PqMbfS0I3L882TwhwVnY5Q6KTUb32Q9eP0/7SxuRpRUAVOezOS6ozgkPPa8G3YNttkOavP28APS36O9tmueOpbk6+uoVyCN/9VhXJQLUr9HpRT75Z4MDfLKCj27UzoD7gvnP6s9MmaZ56W3k21h2ZZEC9JgyoMJgJh1VlBAP8sIshJ964NXdogqEJULkk+PcEtVzJxKlFMrvNsPqbWkI3PdrJrY+7ZGaA6oyg5eGh+pciK/4i6hEm4smvfAEw+oOgpT3ksQlKz1UHBD3GXwh45f0Cx1zSwuRpKtR3+G7VXHtqP2oyhmBXsGP9d5tKwK2/aqQmK7j2X5386ro2ajKCEw+sBUJefK/IEX9oJgxh9y0yzGkKee+zovZSOflSvyQZ15W5FbffMM3R367GECVhxt8+N5z+wvMmOf0dYgIUI0aMvocxvsY822rD0h1gffSoz8Acp5985qko7WMaP4xhj5OCUhjyzJT5PD1lPrYgiBDUZVNsPLyeDVatZc2BNazWP8PQ+jT9q1PUZgSZhEAlhPYtpAjIlwVtBcn8rpBZHSFftJT4eH6RSXOLfDi3SC7U4UDrEZN2jHzPWUR/6wQIEQHI0BkqtV/PjEGPoR/v0snPmCNs4bg+0N/IiBhwqT0bgsdfz/HBF9Ecm668tATCoDqjk4P18Jzw3RrueKqbu55Rnp2DdvTWX9Afo4YJOrol662WZNdNM1zzYCeD+gXstEkapGT2AjUI641MMmt+iY++LNk+TvlSxY0++arEc2/n7T255qpJRgxKeJ6XkC9nq3aGDVChnWQCvr1Nhnc/LRJlLdDWFTKvJaSmSjC4X7QGhFpCopLM6E1+YcCIpy9U3o7IiEt+cmkLb39SZOqMMq2dIbtulmH08KQ7RkpyBTjrxnauvK+DUEJDTcCfT2ngsF1d7azFea0EIX86uR8L2src+1yOk69ppbZKcNRe1YweETCoIWDDNZI8eF5/djplgW3j4+lFjriwld4wv1WN5ysfFNj2uPkVugm2GZPm8uPNkilaf7NWmHf91TaFmADFiBGj72HfkFHeH7titLAhLvsirTY7oiOEywvCPwDP7V15okCKEPPmbo5pz5V46dNmXvq0xRIjIQSSQNkSIUgnEozon6ahKk1DVZKGqiT16SS1VQnqMklqMglq0gE16QTV6YBMQpAvQ2ehTGdR0lkI6ShIOgohrbmQtrykLRfSmg9p7i4zs6NMqYwn3+jvkR39afUPvdBUxNJErB7+w156xMCGtMzX0HuzNmfKwJsZFnpEc/nDrvAt9JIFls+q/rx01QDKEm58tJtf/rWNnTdJc+85/W2fx1/awj9eyrHjJinNmVVbY8ek2Hq9NBMmFxhQH7DzJploMreQrDU0xYc3D2K91ZJ8OS/kmgc77fhJIZi1QHlu1h2Z5NEJeY65pKVH/x9/I8/jb7gcmGP2reb60/rhX5vPZyuytMYwt5TG/ec2ur8FsPrf8HAXP7msle/vXKXasV49Q+qtq8OdL4h6eSpcQtIz9MZDMrBfwFsfF+lfF/C9HbOce1Q9Ekm5BMmkGv/mjjK3PNZFKFXI6/YzG1ltsPk78uVX3Hsiem+KIORvZ/ZjQWszz07MaweuZEi/BM/9sT8jV0mQSXtjAcxrk7z2YaHnDeOhO9/7MTXZqHwpQpsa5F9/t2BqTIBixIixIhB4izRGIh/CeiHcY1AiCGwitArl9GxS6IqwqhUd7pESRKANf6DyGowMdZIlYfa3DvsYD0qhXOaz+QWkLLi8CNOm0NXWhCMujkQJ3Z5p3Mj3dTXyeypk9RdGf31ciCY/RPiPP3PO9cUjR/5SFiJ0RjT0iJE1qipHRDOhSCJ6n8Im3woIQxvy6Fcb0JUPufK+TgIBl/2sjv51igg/+XaeB1/OsUpjwDF7V1svodD9X3WgGv8B9YFOgDXG2pBA5f0x8i1C5X168T1lXNcbmWBOsyIRhlhVhpymzSnz4Es57WBx44eUfDxdEanRwxK4LGzruumpP7h2Kvumr7WQqKUdNIQ9SX/YfCGlS9I6k1QW9DlH1PLLQ2qoqw7sLShDGHzgHPbeKs0dZ/VnWP+A287ox6TPi/zy0Fp9XO/yTT8VX4vqL4QgnRQ8eG4jT7+T44Dtq6z+1uvk6yglm62ZYsqtg6zOnkuNl94vcswlrYwdk+KWM/wZYur612RED/2ht+sfe4BixIixIuEzGJ0GpHiHWUXbmQGpPR/KqPdihM2zLDTkxnlOhH6jdsTKnCRcO+YFVmj50u0z/ETqB6iSH3hGzxkbQ37sbDWhvTjeVHJMGMLV5bekyugnvarYmou56EYlCfESk6X9R+dJCaGf/eaBX2lINfsMpDL2dvzdW72NMnr96wuYVm2ehvFW6L5LBFfc18XMBWUCAdc93M2Rewm68pIDzm5GSvjjcfVUpdxYguSh1/I88KIKk338VYnf3tLGBUfXu7b1fWH1qwjxNbWVrWdnvdWSzGlWZGivLbP89oharx2FJ94oKAJktBKAFMxrlXz8VQkhYPjgBLv/osn9DUSWxVB9+mSGCvc9OiHP7r/QVaHxj1P9uepEvWYYWFk+SXBtq5MeuaCRzjz0r1PjlEoIGmp8jiWZ2yxpbg95Y0rRjv++22T49ja6ejYgTA6OwMn37itLxEyfvCn0dTWCA7bP2nt1UeNflYZ1RiQ8Qissj58+V90jNVnBOqsmPP3NEEhvzJx8+/cj7YEWMQGKESPGCoH3vAfM88gjPtJ4cdQG9WgMzJGulUA/2ALdoMA2KmWoS9tWeF70A9WSjYh8YR/GjtRo4y8D1wU9ZR9TOdc8dI18iSIigR92q5Tv9dU7xOnvQg2qL4HrrHmQG/0tPFJmw17Ow2BYnSDU42/ke/uE8gS46Ix0+vcBlHEzi6FK/Z+rOoyAQ3auoqUj5JbHu7n2oS6ufcglB//i+zUcuospIKhOmdcScswlKn/kR3tUcfezOS66s5M9t0zronzOSyS018u/SySS+57PUShJ1h2ZZM2hSZ6bWLB7HTMFx6Klt9+1ZaaIr796koYaeOqtRYd1DGYuKDNzQbnXfW1dofPeRbxJSnAu75FjrVtNlaC22o1RT/2FzWtac1gC70BHit0ARfWXboesHEvp+yN1cUh6l++1smj5Efj6e4+BJZRvEBOgGDFirABog66dEH7upnrWGSIkIRDeS7Z+yFkjLntbaUAnC1cchwlbSf28dsxH2NmwLgdJOXNUG46oeG+RxiskqXiLR233itcp55Pz7DhCg2onEE6+BBl4+guBv0SI2uGMgbRu/gr9rStEevKdkbRjqqcGeylBlgwKQpej5ctf3vCvrwljegxZSMkaQwIuGl/HVusmOeS8VspeSsstj3czqEHws/2rqc0EzJhfYu8zWpjbErLv2Ay3/KKezdZK8n9/buegc1p55PxGtlwnWeEZ8DqiDejfn1bJ00fukcX39LR3qVpElSZ7drOfZ2PGP+ThVxUB2nGjNLXZgM/+NsgJMWLtd8Gdz+Q466Z2Dt4xy4Xj69wBwh2cSblbzl5T0EtAwIMv5zlizyoyKelFfAUyFPo2DHvInz6vxJUPKGI5engyMv6qAXdNwFuctOK+cOEvpf+SyvfbEWYMFyI/6i1y+gu7MOqSynftxAQoRowYKwDG1WEepMbwmarE5iHnjnMzxQxbqlhl22vXhnFM/ozQxl8E0We47/3Qb5HSsAoRROVjKIfxSgjnFbFeAN9b5MsHhGrTzmQTYPKDovIFdgkFzyXkOJ6wBsP+hggJco906TmA3FpILlrhjbntiTvAj5ZVcKzlDpecXKlEyKQvQh54oZu7ns0zZboKD60xNMHp36/hgZdyPPFmgdOv6+Diu7u44rg6fnl9OzPmh4wakuDW0+sRAZx8YA1Pv1PgoVfz7HRqE/f8poF99ZIan8wIKYUhj76mPDOZNHw1t8wLkwoEAlXBmNAOyGX3dnLZvZ0sDB5HoL1Lcs9zKiy215ZpEiJk1FB/Or3xReg8FSkZ1E9d0/oawaghAokp2WBuBEee/d8COHD7LL++uYN/v55n0IFzGb1qpVn3Ouf9/bR0hHw2y3mbDtrBzJgLUSuve3l7+oVA4Mmv5CP+S4k9RlpSrzxonv5eno5to0J+c5skSAhkKPnny4pUJhPuWOGfu6TyYw9QjBgxViwMiTDJoIGzGsIdogNFOPe2qfIq3D7vzRntMVKH+uTGl6lDYhJcXo6fm6OPxT7iNSEyBEf1w+7zOZifo1NJrox8Ak+Onpkme5Fvcogi7fryccnQhnDJMBoKNJ4gX38zxqY6NOg+eNno+s3Y5jBVJusud2jDJD2vgiajz00ssstpbq2r0asmOPOwGn6wW5ZkQvCTfat4+f0iv76lg1JZcsfTOWbMD9lkzSSPXtBo6/NIKbnn7HoO+0Mb/3gpz5EXtzHr7gzJpGT8ZS08/56r8rz75mlenFRASthzyzSrDvBdFSo85EJE2DFb0CZ56+Oi815JePezIp05ybABAXtvmbbnSGkIhMQQVVurKQJzF+j7W5r7WBMHnb9lfo8ZmeDcI2v521PdfPxVmbc/6b169cJQXy342Xeq+dYGKUwYconkV9LjSBK4qcMjXTML0d8/35fflYfB35unZkx62GnjdKQ/7t5fQvmxByhGjBgrFGZZBmlCP6HLpZHa2yNk5JHql60XhNY7IownSOfCqDaFzo8wnhbzHNQG3SReS+0dMnG4CnLh3OyBl7dtqZc6VpjwmnoAC7uUhEcYLG8LHCGRIETg9Dd9JbDVm6V0fbL6S6H1122YsbDycaTJCx04/fU6CEjPqxO6XCI7/p4HCBPSqzByywtes8IbNyElO2+c5LBdsgzuF/D9nbNsvV7S2bpQJWpvt0GKZy/pRzGEKV+WyKTgttPr9XIUzneXzQju/U0/Trqmna3XS5JMKp1/uFuWxjo1E2q79VMcsUcV/esEkz4vsfnopB2I6kzA0P4Bx+1XxakHVVteLFFj9vz7RQ79fSsN1cYjItl+/TQ3nVbPzAVlEgl9MSSYisQRL4XWOZsSDKgP1EymCDG1d7s6NTSTAzSX1TOyfn14Nb8+vJrp88qUyp4rRDj59CK/sSagX63+g8HUffLu40XITwhV5bo64984MjL+vvyF6d+vRumeCIjIr07DuG9lbT2odAr23DzNMXtle+jv7qclkO9FLYX8n6wXH+ObjtIfd0Z+/NwynZs85VnE2jst5x7F6EuIH9zmeW604ba0wvNSePuUL0U/0LyXZLeEg+95ETqvRmDDXgjtFTLeFt8TIxwZ0STEn/IubKhK7xNCkyj/PJNjpElcD/mohGg7y8tPKBaoUJl08v2+6fFw8nVv7MuuscR6/KSbwQUgZEi0DpA3y0r6a4SFnsEN7Rph1iMjQ+Q1uyzBFV4yFNqm8tk9oxk2sJ762qwmNcY4uYusfQ3WmEVrzHj3hO+BU4prT5fzURhyqUQI1wzE8ldC+eVyyCfT57PKNlfGHqAYMWKsAHgvpGZ+hnM2CD0t23hS/LdOoRKWZWVjwj4L3dR1y7DUbCoBrhaOecM1JAXcdHXFHKwnR/dOkRDh8Qx9rN+uDHQCNG6Gmcnr8R/29q00KsM+9KXZp3/qWjyICv0toTGGAJvQLb1S/zbnCMDkclgPkDouOv6h7qbQzYb65dkzLssRNswp8erpuYtsrr3TV7pP7Z0y19LMrrPn2GO1EcUbCi/XyXDKyn095Ju+xfL/Z+Qb9M0cxxgxYsTwYQy7NXKGQOg3MzMrSoIp2qYflT2acvZSPwxtHoF0USVLOqInqno5+mlp14gC5er3D6yQL9x3W2dH8xfrRBc2ZRrjFbLtaSsfKWgYSCc/8HN3pH3JNX3xu2LzoIz80CN4CJ/vuXN1OMvKEBXjb0NznvzoaC9XCO9fGwqtgCJJoSVKnlKIUPfdkEC9W4YmvhESqYQcRu+biMeht3vFlx/G8v/X5BvEHqAYMWKsQHimTy+94IiPcarohB2pj9EPPTCrm1s3iQ1LUUliNEkRBPi1fcw7n9Dnm5YNmXDy9UaZ0M9eic3/WVhtHF20DbEQ+T30V2+wTn9RIV/1V/E8rb/NhQpdc17yjrMTEgLpZoD5BeOkdOOPKYRoxt9LypVeIce+gF/PwL8JVEeUB8x12h7mCK5hiYYZelPUpfBSXtRso8i6ZjKWv1LL14g9QDFirGxonwuFrsUftxxhPTPGryBB+kbc5sLoQ7SRFrbsvs4K8h+KJknXbjIPRHO8IR++fL3G1SLlm7dLgRA6gVgqd7qrj2MalLhZYNKRMVAueqNLRH+p5Xv9FxL3xPblm+0++VNkzMn3+mMZnXDyl2j8K2q0+PL7ApbTSrsKubN/gqhHwNQsCl0qiPQbMipLZxgxid+6Joxd4FaPYSx/5ZavEROgGDFWMsjZUyhd9i1k8/QVJ1OaOL1++Jg1ujC2XyWySB2WQntGIi+N9unnjsFv0zxQNTGwBEOqmVAq5cdLXO5Nvkdq1NnmOJ27Izz5+kEe4QgekZKG2CAq9BcLkS/cOXr2jWraUBejv/YASV9/6emvSZbrlJbvlfGzU+x7kR/Rv6+gxyl0/bXjJh3pNJ92pphO0i6UpM3/1hqqQ3W4xBBP5z3wiLFdF23Z5VvBsfz/TvkaMQGKEWMlhPzybcoXbomc+tIKkmhdEOqXdPTCN9fq2SRw/5oHnUD404OloQaaJvj1dGyIDMNdPPkyKl9UyJcV8j0rax/CHg9TqT56uznXsAZJtF+W3ElPf51Abbdj+x+Rb2uYeGTH/qrQ3yldseirG+3ex18uRP8+gjGCZohDNSPNXSbPCGIMo/p96AXtVH9nARfe3aWMYohKpNeJ4MKXAdiihmHoNi1G/gfTSjSOa+KAc9p6yMcYWCkXKr8cwvl/72LGgnCh8rc9pZUx41t4+f3SUunvy3/h3QKjj2rh2Cs7Fqr/wee3sf74Zp56K79E+ochvPh+gfc/LwOSuS0hax3ZxLjz2q38u57NMW1O2ep/xQPdbPjTFm56vHuJx7+5U7L58a1895z2ZdZ/ma8/cQ5QjBgrLWTbHEpX7kri+9cQbD9+BQgUSF17xtEXD8JUTJZu4pKdSeXPC8ObSWWMvSIHkaoluimJtOt4+dxIeUZwxMzKx700ep4S01cnX0blCyM/6CkfIAyU/lTo7xE1yz+klhHpW4V86VdoCZ08KXB1l4gkbffQ378CdoxDlzTaR7PAVCc84uhxtsg+9CgL9Kw4aG6XPDyhQKEEO2yY9M5zVE7ogVWniEibLkl80fLLZWjpUMZfkUOP/NpP/waKyj/z5k4uvjfHdf/O8cQFdWoBT0/+qx8WeXVyiWRCrTy/pPpXyn/63SJTZ5bZbdMkiLCH/oUiPPJ6ka68ZLXBiSXS/4MvSuxwWhubrZXkzavrKYeST2eFDKhXN8aLHxQ59MIOvrVBkhcubQDgzU+KfDCtTFu3Iy6LG//2TsnbU0t05aP6b3tKKx991fuaaAvDlBv6MahBLMH1d/d8TIBixFiZUSpQvuMnyK/eJXHQHyGR6iNByggLGWDr02ioxFuvRL3EK1xIlKRgaIdw+Y9Sqto8El1XxzzYRQ8SJaSe7RRUyA+iJfI9DuVt1gZJSjv1XW9YvHyMfFEh30zkFRXyDUXxSJqeem9f3CP66zCXHTRDkNxYWvnGQkh//AWuOrfb32f0R/dNmMU9feZnbbK0pM73CNz9Qp5CCVZfJWCbdV3RQjt0eNTUeApMQ/qG+nyW5NirF760BUB7t2r3wy/L7Hlm+yKPXWtYwJ+Or4nIP/W7WV76oMQrH5bY/tQ2HjlXrWtmkndveEwt7TCwPuD59wqe/qaKsduUSQn22TIVJT96SExF6723SNlr5uv/wnuK/IwcHDB6uK4Aru/DhY3/BqsnOGCbNA++WuDhCUW2GJ2wupal5PhrOhECLj2m2o7/pM8VYVl31cRix9/Ir4hxW/ktHZKmdkkgIJte9F3YldcvFaFqd7HX36uEGBOgGDFiED7/J+TsD0kecw/UDuwDCZo82IQZZaAJjBdHmme/N7HDVFxWRf/czHN/5pRpSp+MV3hQ74vYC/v6KSzRcvJ1zR3v7dpVZvYfrEEvnhvzI3DbjQHHkT5prZrRXzj54IiV1kF6RsHYDrtcBU6GsyOO7EVJj6wYf9d/tQJ9qImU7kmoPEF+wuhyRYRcacLmFWu84h853vsi7PXU5ycVzWH8+I+deAO+yO97b5nm4O1TSAQL2so88faSLRnR2ikXe2xzR9Ibd3WvDG4UPHtRPeOv6OS2p/PsckY7D5xdw+6bpenoDrn7BbUO2ezmkAPP61hsPzr/0Uh1JkqO8gV4bUqJdBJ23TiFvY9R11ogePwt1fddN0mppTcM5RbeOFWMvwDO/WEV/3ytwNX/ynHrqTW2H/e+kGfSF2WO2SvDVmsnAUmpLJgyXRGg9i7JG1NKVr4ZlzWGJRlYSy/yTTe8Yp0an93cj5GrBERvW58cCtb4cQufzzYuy576A/YZQhhNgo4JUIwYMQCQHz1L6aKtSBz7IGLVjfpGiF6uQmj3dMTr4S1PpXaZf5XXwpAMVwcnspQm0WqxaGOkqy0bl4smSm66t4jKlxXyhSNchjy5sFFvC616snQfVT0SX75z0lj2IoT9qmSaUJrx7jjy4kJa/hIdZkx036QTEqmabXJ/pPQm2khv/M318Zfb6CuofkmpwxJekvtTE0s8+saiSce0uSG3PJlfYmkD6wMO3j6FADZcPcGnN9djShEY+bOayhz/5y7e/azMnpunePytIqsNDiiWYeaCkJ+Py/KzfbKaKBrSCvVVgb22hskLCemE5JZTq0kEkpufLHDPi0X22CzNqdd105mTrL5KwF6b9+J19W7sax/NWzmG0Bpi0pWHvB6m/c91Xqpx22f42T5pQPLvN9UBT75dZN/f9k60ajKCe86stULf+KREUxsct2+GHTZM8qz2Ms1vDelXE3DCflm2XjfBY28V2GWTFFNnlCmoFSs4+A+9y7jplBqO2j2NAJ55t0SxLJm5QMnrzEkef6sESHbZ2B8Pk6+mB8WbHi/9LHj8r278zUaTFF3xFx8ToBgxYjjI+Z9TumQ7EkfcSrDpgcutXVtN2VQa9p9CxvgZIiE9UoH/iFMuFEUIQnuqDTFJTT58wqEbEIHxJmn5ttSP93D1jpfeJuvd0UV+RCCsqF7lB0a+O08Expukfku7DtrC5DsyZ71b0ieE2vMTet4uHVpwC846MiR06Ey9BZumjKLSH2QnX1RsX46Q3k0gdP6SIaxIyWnjMhy6Y9qOvdBehmOv6SRfhO9um+LAbdN2jKLeHk8RLQFQYRxNHtNJWGOVhHec4NanC5zy126aOyS/PjTL97ZL8/hbRYb1D7j+5Cp2+VUHl92fY9LnJW46pZpVByR6yjci7Wwl5dW74eQatlkvyY93T3PzkzlueDxPJgUPnF3Lpmv6hDmwfVTkWfK3Zwp05FTFKLWgZ8hX88s8PbEU0db/vc6qCZApHnmjyIdfKs/MV/NDvprfu1dNTcoMrfwT/9zFhI/UeX962JHMz2aH7P1rRbSueUhtm3JdPZO+UMcO7R+w0agESBWaevGDEvXVgm3WTTJ8oLC67fqraEhx+ryQvXS7H1/fYLef+JcutT7aIhyRc1ukN349x9+SIfuC4G7qmADFiBEjinwH5eu/B/v8hmDf3zoD/zUgrfGWSL3mlon0qAeUJjXCeF20kTShL+1GtyEa87QLtLdCBN5bufD+JxJKUja2jc8yAAAgAElEQVQmcPIDLd+QisCTb7xFQkTlGyKjmJUiFwgn34bgdB88otJDf02EfFLj5KPL/Zh6Pka+5y0JQMgQs6K6jBhirX9g6heFWj7R8deBAuP9seNUkVuzPBFNTNV9lRLjFdp5o6Rnp1Sffn9XjnwRBvcT3HByNf29RTw7c/DF3DI1WcHqgwOreoQIGoWlC7+0d4Xc82KRGx4v8NqUEjVZwZ+Oq+a4b6d57zOXhLv+yATvXF3HwX/o4om3S6x/bDtH7Z7mh7tk2GzNAOOzq3RCGvmBgPF7pZn4achxf1I1uC49pppN1wjctfL014Oj5gN43bc5OxpH7Z7mlAMyVv5DE4qcfVsOFM/ljJtzAPxkrzSH7Zy2JNon7Tud0aF+hlj5J+yXYfdNFVm69IE8uYLqRCDg0J3SjBricuYG1AlemKTI10/3TvPbw9Qabx/PCFlnfBtbr5PgsfNqIuN/yI5pQHl+HppQpK5KsO+WyvNTV+X0e2jCkq9sb+/XXsbfIfo7JkAxYsToCSkpP3IOcuYkEkfcCpnar9mgDnd4uTwSoaa+mhXTjfUwCZJgDrTLJRiHhZntJay3wjwAA5dAbWdOGW+G0A4SFf6Slk2JnvJFL/KFydfRZ8jAI0SGmJg1yPQxwrNemBkqqu92BXlhAlnW5eTqAZmO6IrXTiPjDZBR+d5rsD1amrZw8s0MMh1zlMYLo91vkfHvE0jngTKJ3ZrPyDC0M57U9pBJn4ecd6cy5leMr6J/rSkKoNp4eXKJPc/uYMcNkzx3Ya3W1dTZ9u8riQzh2feK3PJUgQdeKdok2v3Hprj6Z1UMHyAiK4abgRvWP+C5i2r500N5zr0zxxUP5rniwTzrj0zww13THL5jiuGDAyZ+VubvzxV6aPzbw7L89d95cgUYPjDgkvtyXHp/rtfRufioKg7eIYWUUA6NJwl1H5gaf8CgBsGGqyXs9nc+Ldsu3/Z0nvenlRnSGHDpMVnqqgJ7K9hbzdTCNPe7Hv8f7JQGATc+USBXkHx7qxQPv14klHDviwVO2C/DWYdk6V8rKBThLp3PNK/VkZAZC1RfRg4yld31X62EO0+vBuDLuSEPTSiy6oCAO39ZreW7m+7Rc2oYNkDYl4r7Xi7y+ztzHLJDml8enLG3LAIG1HrMcBHX37+nYwIUI0aMhSJ85wHk3E9IHPtPxMBRX6Mln2woo2vCMq7kX0VOjwyU9wJIJwSjBtQwekgdo1epY9SgGma25Hh3ejPvTm9lZkterbzueWBcO97THWFzeSyJQkY9If55Oil6RGOajYfWsPHwWkY0ZPiytcDU+XmmLsgxdUGBtu6wp3z7lh31CEVIDBXeLryp7TKwOdXRcJVbciOy4rtZNdXaIN8d4Y+L7GX8jf7SnWcTwPsAEqQMrSdIWFasPG5GDwGUSnDUFV0USrDX5kkO3THtvDhWf6O0tAL8fHtCpYsAXvuozG5nuTyV3TdN8vMDM+y5aRLf/dZYC0fulmbNIYEe65BkIDj5Oxl+uHOKyx8scN1jeT74sswZN3fz6uQSD55dxTuflrnk/p65SaePy/CHIzJ8MafMcfum+c65XWRSMKjBhWtbOyXt3ZKOnE5Kx3mAzOytyM1tGI2pn6X1D6Xkt7erPlx4VJa6TGDbs+OPJDRhSDOG3vhf/a8Cp93YzZBGwUVHZXn49SIjBwWMWiXg8n/kueWpAhcflaWhRtDUruQ+NbEIVAGS2Tq/Z+TgIDL+vvyIIp78UOsxZkTAaoNV6FrKkLenqhYG1sMmoxLe9dfN6BeqRV1/nwHFBChGjBiLhJwxidJFW5Ecfw9i7Z2XvSEBvovfOCyswRUg/fgMkpp0kvE7jOLkPdZmQG16oU0/9eFcTrnrPb5s6tbmPUQlERsjHjhDqb00Js9FmmQeI9+8IgvJOoOruGrcWmyzet3Cx0fCfe818/tnZvNFU9F6JnquASYr5ONslo1IGPnmFEPQhN3mnvfabeKRAEuq/Jwfm1kunTC7H2+mmQuVmd99iUgFb/TsJmPMtT4yCDj3zm7emqrCW385rgp0grbAy3WSrlVCFxJU7Uu18Kw29tusm+CYPdOkEnDifhkef7vI+Cu7F9ZJnp4I1z3W06ODgAmX1/LiByVufarI6eMyIAW7bxxw3YlVVv5Zt+dsnkq/GsG/z6nhpQ9VyGinDZM8dm6N1f+s23L84d687bcMAsz6nokg0JMIwqhjzuZ+uXEIhGr7oxllfrRzitbuMg3V0brHAkHZX1JOqvumtV3yw8u7eej1Ig01grt/WU2jngQ2pFHw9AXVnHtnnt/flacrD/941Y3NR1+FzJhXZtjAgFnNqvERA4XKi6uYURh93RBWPqHzJD3/QZlVZ6n7UcqAD6epNj+aEfL0RK90gBSMGBSw9jA1k2JR199HTIBixIixeHTMp3TVniQO+iPBjscvQwPG8OI9sPHe3g0jcC701QZW8+CJ27Hm4MWH33YbM5jnTt+B7/1lAm992aaNuiE/ApvgGZgHZpRoOaLivu88upG//Wgd6jKJngI9CAEHbdzIfuv342f3T+f+D3z55o1UJ0YbeSYL25dvZxHpsTDFHiNrjWlvlX6j9cmCCoep89w6k6H7BG/8fQ0qf1vNWMiO5QBDxoycsiNEnp269L4c592lCMEZ30uz+mChL5sxaI7QRXvu9qtQqXn3V56j60/MWtXueFYyfX5IdUaQXTjHjsB4PJKB5Ec7p/nRLm7m0vCBAeP3dPUULr4/rwiQBFNDqnIoIvr7eoTSkpREoKd6G/2BGQtCpkxXpAhgZrMbhz//LMvs5pBf3Zrj8n/kue9X1ey3dVLLV/0Jy6Zt12ZZSl6eXGK1wQGP/q6GMSMEc1p0fwQkBJxzWIYDxqZYpZ/glOu7SSfh2H3SXPWvAk+8U+Ko3VM2HDdioPYAeeNv7zl9D5RDyV0vFPjDvXkeP7fGju8Rl/W+ZuGT75R48p1oEvjeWyR59Hc1Pe6PyuvvIyZAMWLEWDKUi5TvOkEVTfz+NZBcQmsBWLbj2Txli33iYYiC2nn14ZsuEfkxGFCb5p8nbMOul7/MR7M7dFKyL1do4qXd4VLY/BnnJVIGdYuRddx91Lpkk0u+WlA2KbjhoBF8vGAqk2bnVHFEuzdw/bDyjcfHGHJv5pjOT1IzzqT+tG4ib8jc278LMKg3XvP4V4mnJjxnxj/UuUDO+2NnkJmxQvZqlJcH/LxU1f0KbxCSSx7I88ubXShpzaHqWpx5W97OOjKYqz0Gk6aV2e9cz2hq9Q7fKcUhOySVPlLVN4qsHgKc/8MM/7d/2so3i89WUmMJrHdsBx/NMIlCdlqdO8LU1YkMX4jQtR4MH13QLvloZohZmsQYfpN0X9Q2PtlLtAfgjueK3PFcL4nCEmqykjWHCaozUCzDDy7r5rXLFKEx+pd0fC2ZcOPfvzbgztOr2HhUwOAGtf2s27rZZaMkV4zPWi03XUMRo0ENgn23SHLSt1Nc9a8Ctz9b4MhdUzz5TgkhYP0R5r6WPca/pVPJ/2RmyGGXKC/cbE3iEgF6Kr/D5OkhT79bYsPVA3bcIEpfxoyw8eLI+Dtu7OQbxAQoRowYS4XwpeuRsyeTHH8f1K+y5Ce67GfLRSKhC4H1DA2sybDDOoOWum/1VUmu/cHG7HrZy3ZFIFvzxzwJjZfEPJdxckGQTsINh6y9VOTHIBEITtthMEfeM916Y5TzSRK1pDoJupIRGhJmp65LEIF+ZvsWULrxkqYFk+TplVaUpuaRGXhpazHZqfDWo2TGQVrbLaPZwMsN5n3cRdqkI4JScvH9Bc64Nd/zHCl5blKJV6f0vkxCU7vk4TdKPbZvtXYCzSnUNbGeOOz4TZ8f8uH0cvSexL9u7loVfBE+IxGmyrKu3xRWHBaRD29+Umbdn/asMi2QEArKWk4iwNbD8Unp6GEBG6zm7tMv50nemlo2gpAh/PrgDG99UuZfr5fY/7wu3rqihvpq1Zli0RAgr5dSssZgwbTZkmmzy0ydHXLjk0UaawVd+ZA3PnKEuX89PPTrKgbUBYxaRbDR6gHPTSpz/ytF5rRItl0vwdBG5d00t9bMZrjlqTz/er3E6x+767jjBgl+dVCafEEN2hpDAq7+STYy/jc/VeTpd0vsuEFS7zOk3tzxPcff+n7sI8CNX0yAYsSIsdSQU1+idOGWqmjiyM2W8CT1YaaN+2TIhm/07y3XaCRYxun3m6/Wj93WG8wTH863ScxWVmBkRdu2idhS8N2NB7PGwOwyyQbYe916MklBriQ00TOMD2v8ItEficvZAeshUlPr/fXKhCMsEWhjZ8iKGbcQ1Y5+GTYn2tlx0p3uxl8TERFqUX3jAYpGIozXQxG3W58pWvLz3W2SJAO492XHOG46Kcus5kgDPP9+iXPuLLDR6gmuGJ/pIWyUqSbs1UbylyMBuPzBApc/2EuuzxLp4bVrfHEy6kGLyNeXauSggAPGOjP8yuQyb1oCIylWemiMLN3Md8cmuehIp++tz5Q48gqdz2Tki5DbT82y5c+7+HhGyEl/zXHLyVUQQEnzD+Vhcj7E717QzfvTouS3uUMy9rRoSGrctknuO8PNWz9qtzSn3JDjB5epPhy0XQrj1TX6f/hlmbN0gnYqobxT66wa8OwF1QjgwdfUtV53eGDJeI/b0Hp6IhsWMv5R+fE0+Bj/1Sj/80xEnyzXsHJAdixYPu00T6d02bdI/PBGgi0OWfLz7PRzGV2kVL+iCylYtV/VohtZDM7ad22enDLPhjDcIqfC1uFRll/XcLHhEMnRY4d8LdnZpGB4Q5qpTQVc4UZncK3+okK+9EJzoLw0uk8++YkuCSJ15NCwJE0mQmw4y5mE0Mk3heLMmHh9Ep6NiNKM5Qlt2JC6NIKrobPjBgkaawX7b53khhMyHHllzp0jJesOD1h3VTNcirAVS6qnjbWw84aJiJfMEjmpz7GesGhAafsxCTYZpUOVfj97QHDd42oxVsdOzTUKbfjSc2+57lv56lqsN1xwxfiM1gPOvK2gCZBqI6+n6GdSpgEcwa0cT6Os3aTkSwn1VYI7Ts2yzeld3PpMke+OTbD/1ikK2gOUTup+6fYP3SHFrCbJZ7PLPPpWmfpqwY92NnRB8Mx7JT6cHtJYEw0Q/njXBL+5Q9Dera7n97ZNRDi7FLDdegEHb59k3DYpNh4lWPe4Ll3+S8k35Ha94QGPvlHi4gccKTXhsTueLzJpmvMeHbRdkuP3Tfc6/pXyYwIU478a8rNX+/DBHGOpUOiifNNhyBnvkfjO77VBXwyM7RXemlaeoZZChZK+DjYd2cB3Nh7KvybOtvkUfnjHFj80yck6J2H9IbWMXb3+a8kGl1sRed5G3C5e8UP7W81IM1PyjcVUC7865mNWe3ftiigxsiEvEfUsYTojPYnuLd94xqRPuPryD0132EbntN6rD4I3Lq1ijSFB9HaKxEzNqt56DHvoiOddQ60BFajFcCvlm3PHbZvk//bT1aVNfyIcSZNIIXhyYknnAAnPcyKjFzzKr5AiRMgEX86LDmpUfw1NUPPa8ZVNGf17hiR7yPe76+m/+WjBWQelueDegiIZQpLXBKjKLjiqrvuZ41Ig4PuXKPJ55vdS/HJcBgjpKgjWP1517IR90xH59TWCA7dJcOszJTZdI1A1lSrGvyoFd/9Chba+nFt5gwk+m62IzXrDBbOaQ55/v2e4s7lDRraPHuotRbK46++JjAlQjBgxvh6kJHzsDzBjEokf3wHZXgiERC8HoRNvAnqEoaT3ZXlUIT57n9E8PGmum+prFz5Fv2CLiKGTwNHbDv3acgEKOoohhbAPZfVi6mZ/OQ2N+dB9sw9w1TFbTNGcEOBmtZhSwQJM4o6lXqH05IcuKVyiCZTAr/goTVf8MMFyqAK+UISewTIeMD2Fec2hhth48r3ZgtJmeEl69FB7haR060YhJCIUmBwdY5R1rASAe18q8dFX2vviEa2e7ATmmOUX0LWM/Gno2osSkQ8QCs68PcfLk0PO/4FK7p3RJLn16YIlfyp/R6spJd3aA5RNC6uX0R+rv0fuvb+b3vQ/++AUB2+XZMxINaW+u2AIkO63mUIuJK99FHLPSyWSCeVhQUqKoeDwy3J8MTfkgLEJNh6lx0/Lb+mQPP2u0uH9aSHvfBqqpT4WNv4Rhqjk3/+KOn+dVQM+nK70PGNcml8emLKXwaT8P/NemXEX5l0DCxt/X76HmADFiBFjuSCc9DDyorEkfvZPxODR0Z3G+BrzLL1FPM0BLkZApcFZFqwzpJZDthjGHa/PQL2pG3naMxJ9Pac2G/D9zQZ/bbm6QbdsBWCrSEsJuOUz1D5tYK0LRzMy4Y8THjmJes48ie63DBXh84yMq/xsRltGjaYtqIftj1gORLQ32BpFlgQZZbwCdubAKDO2/bd5PJGwjztPmFltfmgoRBXXNAX/vKrDr0wp88qUpdND2NAh1rNo+unkK5x0fZ67XixRlYaS3vz+tJAjr+plQVfdrZYO9aU2a/TXcvXne1+E3P1iyY7ls5NcJWhn8J3+SQFjRpqaO4J2ndJTkwXjHTRtv/pRmWwKckVY+2dd7L5Jgs4cvPhhmdHDAm48Puva1vof95cCXy2QpBJQKMFhl+d46/IqqtOLH3+k5NWPynw+JySbgg1WE3w4Xe3KpqGfW5BeyxXUZr3zFzr+Fdff+6OJCVCMGDGWG+TsyZQu2prkMXch1tvD22EeTOhVxx3RUXuEdQIsT5y591rc9/YsHUrwvD/Sl6/IySGbD6F2MTV/lgZueQ2iigWV8rUNNblQgF26Q7chQi805XskomzB26/Jl/3pGQGhx9+G2Iz8QMnQHiJ1ufqGACmvRYjJcxL6H6mvh/JYuesVgTnB8Dnj/bI71acUZuFYPcoeUbF5QELwkz1T7Lt50pOP87ZYmf61VPKTgWDVRvMzNLEWLL3U8k2Y6a4X1cKgd56aYb1hguuPN1PuK/WHPTYJEMCUr5Rejb7x9y7JY2+Xeezt3mbESRVyW4z+U2ep9gfWGUrsxv+U/VIcsXOSW54ucfqthYicnTcIyKQ0wRZK/z8/VuJOreOEizMcdXWB1z4KOf7aPDedmHHvNZHx93WS/P0FJeOArRPUZSu9f71cfz++bO+D6Pj3pr9BTIBixIixfNHVTOmafUgceDHBrqeqbYHv+sYzas517znv/QO+Fkb0r+Ko7UZy7QvTtDhhSZj9rT0rP95m+YS/LGzhRbA6mbfeXnKcnKdHIgi0s0jomb2OvNimcDPnXM0jb+z8pSxE6Iy473Xx3pjtOkm2RlIFCViuMB4s7QcTwqTXYC1UhZdLolY8/3RuhTFE8uF0tW1mk+S6x01dHM+rBmwwMmDbdVUxyjnN/9/emcdJVVx7/Fe3e5gZ9h0ERRZxAyMuEEFF3HDDaCIuCW5xCS4xGk00rk/yjLxERY2JBjVRMTGuPJ8gxAUXxAUU3DeQRXaQRRgYmGHm1vuj6pw6t6eH6R5mUGbO9xPp6dv31qm6M7n163NOnbJYsS581qxIeM+EiJKGaNuU8KdpfT0i99nuXVIulEReThi89mkF5/z06mzw3HWFLvxkgQuOFhu+8u8lCNg4tnjwJTeW/XpGPqfZitVrwIDeEQb3CYnbny6MMdkLFcNJ9Rm33Zv4dqPFXRNc+3vvElW5/5vKLF6YVYl/vV7BYeQubY27xy9W4H+nV+KqH6Vx6fFp3P5sBUY94dp64JIm2LNrhMd+XYR+V27Cw69UoLTMYtzlhS6ZOwwR6zaGAp0VW4Anp7nconOPSEOGYp98s4IToOWjYdE3mX8LyfufffzqAVIUpT6JK1H59FWuaOLPxlbxgNA8Ym3Mjyv6V4bK6oLfHN0Dj76zGBvLkyLChahcLsxBPVuj707NttpOrqzdVIml67d4O262mnZxT/ygc25L61eVVqLnmEUhhJbpiZC6wAKfXNYN3Vrn9ihfXxZj59GfA7EV99+yh4634WJRVT8eICfcXBK2SdQpcINisSH+bgyA3z+1BVM/rb420ZxlFiPvy76U/VcnpDFoD5fscvHfyvG/07PXEqotM24rRP/doiD0YdGxhev/4fuk8NRvmqBdC3eDLSW3Z4x/7AsVePmjShQVGEz9rBILv7FIp4ArhhUE8SWEwZC+KfzxbFIVMZ6YVomZc2O0KPZtJjeXx4g7y/HJohgFKeCThTHKtrgE6ytOTIPu/6cLK/Ffj1dg8qxKlProXK/OBtcPL8A5R6QxfXYlbnxsC6Z8FGPUE1vw+qdBdI0+qwCnDXJe1B6dgMevbIJT/lSGJ9+sxIpvN+Plm4uQTlv85uEKLF5teSVXr04GUz6uwMp1Fl3bGRzVLwWIkN9niyw+W1S1vhPhbgcJ53D/M8ef8YMKIEVR6o/4nXGwK74EcAk/u9lBAfDk7j6zYol83dGxRSEuOaw7bn9pngg9SfsGFwzqUrdGAYQnr0Hia2tOUI4QrZ1HEEKRrf09sqFfHKKjF1nQGOQRyr8YZC64+Yk2Q3V/FNJhxav2pDCyFicPSKHvLnIbkfBxwgGWeHVvjuZJ1eCAXlGymGEd0LpZxHadgLTYaxeDcZcX4KeHpv3KRme/uvGXVwBPvxWEWd9uEUYek8KuHRA8YnAemwuOTmNA74i9d8YYnH5wCqcfkuZ8N9+y/9egVTOXNwS42j9D+qZwwVGuWCHt1N6hpcFLH1aivAI4pl8KZx2ewumDUr5YosXA3SO8fHMRXv8sxuoSizlLY7z8YSX+/ssmOOuwVGL8x+4f4eVRTTDsD1vQvMggnXLjX77W4gnv7WnXwuAXQ9Po2g7o3NrgrMNSiPj37zj/qBTOP1LKFff/4+mzY/z6H+Xh65O1CfuZ488U1SqAFEWpP1IFiH54NvCRn9ApB8BkzFsshLKHh7aVXx3RHQ++uQhrSyvchM+rYQ06NC/AST+o27pSLvJihPbJV7FkzO5G+MZiNlA7YiSWx7PmMX6DUcrRkvbrBS9urJuxjAhNcHVoAKcfnEKfXSLs293g9ENSQkr6CY42kBXimtul1UCJscS4/pR0UFtipdDWharIEarOPuDGAgvELtH3zMFpFjycJ8RqLzn+849M4ch9irB5i0WbZgY9Opms9g/vG+Hwvr5OlK8aLlfVSftUDdkgxj0XFOB/zkyjtMwlPrco9uOPw/3v2MrglVGF6N7ROI9V1vFbHLa3+4usqCjAEftE6N+LxHrS/sDdU3h7dISWxeH+335OGr89OYXIAHt2jVCQcvf/nT8WIp0Kv//D94kw9qICHLhbhP17mir3f+d2Bk2bNMGeO5ucxh/ytBwqgBRFqR+at0f6wqdgdh8CPDDOHfMTuRXf8N2zzn9L48mobkVQq+I0fn1kD9w08SuArbqJZ0T/ziisxbYXW8MagDZCrdVKKiNTJUzwLNB7esm3bSPbAYKnxx0RZYm2SWPlAu/HxcvHg+jib+sAhh2YwrAD+CJSzDwcUP/5uE0IISMrcUsPWI72g1oXOUD1ZL9pE2DvnQGLyHsrbJ3aTxlXFLFlsfjdZhn//j1zt1+Qsujfi/5gstvfo2ty/J1bA51aZ25JYrBre3//rfsy1LMj8Iuhab420/4ubQ1+cTTF1Ku3n7j/wgNUP/5NRVEaNabrD5D+3btO/Lgj/uFHcfpIPIz8fwZh5U+OE3s+8//IQ3fBTq0KvF1nPzIRzhvYNfdG8sKwsMs7BJapRHzhxoRHySJMfHmTcf9Ntvtfk0dkW6Bv6TbcIhJjmVY558VXspb7onFffXfZq+RFro35PgWhbdV+o7fvUAGkKEqdEu13CtK/fQumXfdw0MQAZGG42OWyRABg2OWdb9LtBwvXYsPm3JI5ipukcPXRvYIb3FgcuWcbdG+XY3LyxjySRijCgciPKb9xAbQk3n2rNaBkZe/KF8Ior6b5XH//jbPF0SD+3Ns3+fY7n37IidAZD/s1xdyZcP9oSbP/K5HbeVDnfZ0k97dmE/YMewms2m/s9j0qgBRFqRuMQWrYKKQufAoozFhRZQ0QiUkdRpSlj5PbP4B+rpmSsgo89d7inLt49kFd0aO9K+BmEOH8PJKfH3xnRc7nGvoGWmNeSTXXAywK3f9kG77sf228M1JUcYJzzDlYdP/dzhsmMVnULX4SpM1e5XIdQ+N1k5Whfc5EnhDtnRUmPSvGF/OfkXMciCX+9J/ab+T2HSqAFEXZdgqbI/WLZxCdcBOy5u/QlzULkNBhb49fe238AzEphGrm4TcX5HxuQcrgumN6AQC6ti7EMXu1y+m61+euxyfLSms+0eOGaUjrgR/uuV7PCTgmuR+WkT/YjGM5dwxV73+cuP+Jz+oBS9/041j8TcSgkIXhJWnUBz/Jxf5HEoaUR2bFBCfyPYwPeRgaPE+MVu03YvuECiBFUbYJ074n0r99C1G/H2/lJPcSQlyG3dHGwnmH3Angp1xu1vH+grV4f+G3Off31AM6o0+X5vj5oC45b7r612nLcm7fdctAJpXmI+jokhACs3zMvdC3X4Af9vliMu6/iUQzVswVtWk8F/OsDMldJsYjLCe+4ftJEj68YS3rM+PbsTGFTuJQPBLG55oY9hqo/cZsH4yuAlO+E1In3QpsWPVdd6NRYpd9ispnr62TtsweRyB94ZNAs9w8KfTQc3O723ohCB//LIyiPD0PBg+9sQD7jeiX09mRAUYN2w377twip/PnfLMJL36xFsP65DpGuIcwVXQGebXygMfvK0L7CcPlAtFEQMfzaVe82AhW5Ba55mwIh9kY9VUHiDY+Tc5INAu6YyGHw1CHQZEPrtgIiFefKM4/08duWw1j49Ce2m/c9j0qgJTvBNNz4HfdhcZLcas6aSY6/DKkho8BopofI+zF9g84N6lTMi/ADz56BvLDrybcE/Gp95bgD6f0RYui3B5pQ3MMfQHAfdOWIa6++HC1GEsLqZMZPIRv2dkAACAASURBVDlhLYxx9WVcG34DVy4OGCFzZ+s8m0cQUeJncf9pK4F6xVif/pFpJzkxuonPhs1HrZw0fam7RF0fy6/uz8v/rXmtlyi4qPYbnX1CQ2CKouRHuglSZz6I1Gl/zkn8AIC19BDzUiAKXhFjwQnRzuFg+bNcMDDYWFaBJ9/NPRk6V9aUVuBfM1fl1R8irKISOTW5Ytw1JH4AepTTvfE5EjkLxartk/gM918kqRverrJ+oH4n9oWDn6M40YN7wHkisU2O2Z9jfOKr9SuDeAm08AgE72Os9hu7fY8KIEVRcsa07IT0Fa8gOvj8fK9MPOhkciI9sgByauQjfvy1xuDhN7/Os0818493lmPTllruGeW+lvo3+Qsop0W8DLFUmI9dabVs1XUs+/23YaJJ2K8HWGj5Cc3CTVixFavP6DicJ4zjH3SN/M83B3etE9o+zGLJTlyl7ozab6T2PSqAFEXJCdPtAKR+9y5Mr4Nr1wB7GPh7XdLDYGzetWeoHcDiw0XrMOvr3JOha6K80uKBt1cgU7zlDEeQ6CmeG+2apvCv4R2xe/smQUCZ4EMyALiidq0lkGup6v33nSaNVV+7wVv4b/PUGZ4VwRMc/+jeu4kR4VbydYlGnZiLAdiY/97kdSzs1H7jte/RHCBFUWok6v9TpM76O1BQXMsW3LcwYyPxTc7hEm+j5IMtn3nX58tYC/xj2gLsv2tuydA1Mf7DVVi+vjzPzsh+UTHB/K43AE7coylO2L0pvv62AuWVWxdPO7VM5dEn1y9eeQO6/wauOjYf9N+o6wsn3kI9F0CWDeCtKEhEWoDru9D5oPNtYh7kXdYBV0OG2s4YkPVjV/uNzL44VwWQoijVYyKkTr4V0dFXb6M3wF2bWJpqrd+RIYR1ePX41uf8Kk07UWXw9MxlGJ1HMvTW+OsbSxIrsPLHP8Br6WiPDNCjTR0/on1kAECYbEwE+LwMLiwdGwAxeG+2usbCJ7TSt30frqDPrJgMjYGs6uv2FA0egmyNG+v+1sJaoBi0coj24FL7jdQ+b/SrITBFUaqjuBXSlzyHaOg12yh+BLF7Ypks38YgHBC5kuiVMSgtr8AT7y7Zxk4C0+auw4dLSr2AqeXYDQDrvo2uKa1lHlFdY90//M07HPT33806nG9Un6vAfNE7Szkf1qtfFp1wooxqu1DfAXdfrRW1khC2RrA2/N78H5S1cAmytDzaqv1Gbd+jAkhRlCqYTrsjffU7MH1PqJv2jPiBnmWEiPdXEUU14C414Y01eGha7pWhq+MvbywNzebljkr0zr8YTF+0aZv7VCeQKONaP/4fi3DfrZ9m6sn5A3ihxRNaDL8ULaNPYhc1P9G537cvhge42i50vgyNxBZcu8BQJSaaEC2suE7tNz77hAogRVESmL2PQfqa6TCd96yzNimUYmD5qWPon8gkvq3lNfEa+AeoF1nG4uMlJXhvQe2Toeet3owXPl/D/eHaI3ljqIMYN2tdjbk8243M+29MGCPvCo/w+6gHwtZj/pt/7CctrkfkZjNj/cq02J1rhHAKXgPr35IHgCZUb4SXTtPyZ5vc9V7tNzr7hAogRVGY6KirkL70eaC4dR237B4+Lp7vjlj6pmZ9nZxQLTFn3DztHnSWHogGuP2FubXu6b1Tl4C1Cj038/WGWPBSc8Bi0bpy3P3mmlr3qS6hbQQsiU6+/4D85g3/tl5IfBEX+5IBzjvgQ6Vc+FGKY5rnqCEL9y1f9tWHSDivhI7B8mSq9huxfY8KIEVRgIIipM4dh9QptwNRHquKcsZ7GOghhJDIKEvu1UJnhIeir5wMC0z6ZAX+OT3/wohfrizFw9OX+8admOLijPmIAQMRZnKv//P6arw2P/cNVesLutPJ+++P+Vd3Yj2GwayFlR4BmuRi73Gjvhmq4+KmSfoZlnJBrDvXT5j8ilisHqJXK3LP1H6jtu/RVWCK0sgxrbsiNXI8TPcB9WwIkO4Ua+EfbF7BGMDaiH/Or23nzTCG0ndjXPH4J2hemMbJ/Trn1ER5pcUv/j0b5ZVxEFPwmspEefXJyTwfAvNHtlTGGPH4Yvztx11w4p7N8xpenUGK0YSCdPwt29AKmZjf1xdLywGUc4cyO5jjz9VdW91rTe2q/cZmXwWQojRiTI+DkB45Hmi1Uz1b8rMt5ZaQd4FzTSjPxobTc20W8OLHT+aRgbUG5RUWP3/4A8wbtjsuP6LHVnd+jy1w+dOz8f6iEpGg4oVaLdwgTsgZwHgxhRhAhJLyGCOeWIKhvVvgioPbYFC3YuS4IX1W5qzegjFvfYs/n9AeBbk0xGGuRG+rud/kWqs7UoVt0X7//6rTNhWlNhR1+KEKIEVprEQHnYPUiLFAunA7WPNqx4a3Mn/HfUBCIY/Qi+F/fMjJX2icIKqMgZsnzMGj7yzBLw7dFT8b0AWtipOPvbfnr8P1E+bivYUbkVnzxwhfTn7DjV1xRj7gBZEFYAxe/GoDXpqzAUUFKXRtnUarwhQqqUAhvLfJGu/R8p4tFohOQFob45OVZTiud7PcxA+AFN0vE7sCiML740QprarxSah1HANzAujmOm1TUWqLsbYeU/0VRfneYee+CbtgBqIjf73dbJozxyUSGIP3R55kOMa/U8si9OzQrKr/IaON9Zsq8MmSEjenk+Dwq5pcgT8vYlzlNUQmQscWhejcuhDllRZLvi3Hus2VrjEKcxkANvJtwB23BgXpCM0KU6HzEXUoSti3Flhf5mWTMTDWuDwimRMkNoMNG5PSq/X2SYtQleyQ/+DGb9G6MMLU87uie44FEzdXWHT8/WfBExSLHAr2xsUuFwMuT8Pec0RObSvKjoZ6gBSlkWF6HVz7/by2Ba9mjKEVSBCRMRtKdBhg2brNWLZusxMBchWWBRB5bwXjRAivJCMvh3emcGVpC8TGYkXJZiwvKU8ID9573Xoh4vtoYLx9iy2VFt+WVnjxErw0HOYysWiP2oavfm2wV4dCNElHQveFvpK/JQgrf9y4cF4YP3lrgHQE3Da0Xc7iBwBWbawIwkqkSIT7T/cw9lq0bj1AivJ9QgWQoijbFStn4MiA98zyXg1DS1h9QjN8XjT8z7T1DwuJCF4lkXLw10cAVX7lwn7WwEbCvnGhKdZTZN8140QRh5fc+Rwt4r2+AMrx4TEKoUYi5rEzuqJX2yZ1ei/zZeaSze7+U9VcuidcB8hvI5BnKpai7IjoMnhFUbYvPPf6kJdPwnUyI2MDUe/wCElD4JViHLz3KsR4r0/Y5sGEqA4n+lqxHYcBr3iiSzI3MCX7NqwCo1Vrltv09qnYo0gjCvbxvVATz366jjtkWELSe5t1/IrSUFEBpChK/WPh6874iZU3QTXyFPFDyJbmgvikJCLAGMMRLK4N4itCWw6BWc79AcjZYziFx4aTOWIWcmw4XudDazYjZOcFVwShcDLtC89TUHjfGV9/uwXPfbEBlGcUxu86Vt34FaWhogJIUZT6hwQHeRtEleREMor06vjcoGSysJucLVUrFrlAvFaLyuhTUrVvlHNcLLUr/kt4iUL+jgmNC/vk/7FV7QcVEbaTsN+9+AGA615YiS0VrvgcSx7eZwBIxL4g77+iNExUACmKUv/QLs9ez4Tl7yFh2EjFwVrDsscliAvxakK4K+NCWFnzXnqbcrJvhX06hxKEETwn1dlH6Hti/N8R/3x/HSZ8XuLeyPFbMX4bIbkSzY9BURooKoAURal/IvIyIGNvrRAiClOtTQqe2GadiI0ISxnO2rWhzcwJnZN+hX2TYd+S/aiqfZnLYzLsZ34IYV+U9v8umLqgFFdNWg4WcPL+J8bvx2My7r+iNFBUACmKUv/IZetyN3IbQ5Yi89k6sBRCokk70ZZ/iUMOC+XdGApTASGkwxsvBg9QSHqOYWNhn7SLzbCfiIVRGA7Bvr84uat9nMyn2c5UWmDMm2twyj8XY9MWEmbWr06zyfsvU34oakfjV5QGii6DVxRlu0ApMewgAUKCMpzoCMuxaeqVa+D9mZGfsCkBWYSg3PJ3Ee7i1n2tH1FTJ9g3vgaj2L/LeJ+QjUIX/JJ9LoDIAgncYYsYiCJhN9jfXlgAz3+5Ebe8ugqfrSjjPhjE/v5TBpBXOdZ5s2zM6VMIHiH9jqw0XFQAKYqyHaDKyPA7PgdZ41Jqgu/H7eUVroOcqGFDYUShi1xNnozzqFihz9OxQvlwcWXO7jEhrMXbToR8osRmqz5MxPuZWfiq0UHdueiYEdrH4m/T16JNccp32IRXIUrEDcnQTGLAbD98Wl5psfDbLfhqzRbMW1OOkk2xcHq5e5hYrGbC+8T4EbsVejEnL2X5XSpKw0AFkKIo2wEx4cM6seDdDc7h4MQDJ+ca4/aqomvZK5HpSRHeDF45RltfOKWT8DxJ74cPV7luuGrOCfsg0WQ4JsReEfY6SW+R8fkzkY+MuTaN9yyNnbHWKS8AvOcXD8OI9kzSvihSSHqQc4pEHSX6kPQTre5KLu4S95zvRDghsQgsqbEUpcGh/k1FUbYDJGJ8MrT1LhgrJ374HB6EiZ1DTcYlJvum3DkkTPz7iPJx6Fpqh0SMt2+FfQj7IH8QnCCSuUS8EkzY5/ZpiNI+jZnGQBdljJ8/86InMX76XNgXHiU3Dhve+/skMpqSNkJ8C0DG/Tdbuf+K0kBRAaQoSv1jnKAwVgiByHI+jZF5Jx7L4RsXmgn+IH9OZL0+8JN4LFwdhpwktK2GDfYNxeHouJc2xgrxJLe5EHuFwYSCjibDPiUTW2k/Cm1aubt6hn0aP3tyTBi/NWH81oeppDBi+wh9YN0oBaEVi9Fivn/BvtRzNH71ASkNFxVAiqLUP34H9CBqfN0Z75Xh6skiM8eQxyIW+TsAOCuZU2L85B6Bw1wcvhF5QTCRzzUi0SPsQ9p3nhhDHqYYIXna2uB58mLO+hhTiGKR/SBwXLf9bvVbG78QZCSK3P8yxi+yyXn8FOKj8GGmFycyYfzW24e0T33zzdA4FaWBogJIUZT6x8/FvK+X9PZQgrFF1jCSqfKUki6OEEGyXGxRJFwnwj7eBgmXxHYP0j4SfWP7vFO8H4Mh74wJ9kH2aVwI/aAxJoRL8B5JZ4sNCi45fiN/CGIl2Le+ZRFao/yk2tx/3QpDacCoAFIUpf4hbSDzY8hzYuG8E+4E0AalwVuShI9Q4nQsBI7QJ4naQ/5Cy6En+KdfmPht4sQM+yIcxyE1r1+CkBK7m3HOjb/OqxtrRHuRCEtFUvRZ1izUF9kVrjDtxYwbvxdxFM5iLRT6VkX0yPtvoozxo9r7rygNBRVAiqJsRwz/S1svBOEDnoxDRcJI5MXA5994rFA7JAboTGsBE4uUYDo3EvYNX5Pdvs2wL/J/smG9fQqVmViONsv4M+2bquNHJDw7BmFvtESHWegk7Ec2NCOTneX9Z/v+/lIFRDF+RWmo6F+3oij1TiimTF4U740BaDYOGsF7LgwAE4lQGESYifNlxHW8tJ7Ojzh3JtiP2alSvX3vGYGB8cnbzowV9XGoQRvECtlnbWJ4A9bk+K23L/rPCdGZ9um48bV7SPxEob+yMCMrQBPs1/r+m6TgVJQGhgogRVHqHeu3juBVUKJas5vjI+Fw8KEthAgOAJHAHM6BbNNCTORiRZc1sDb2pXyoOGI19oWo8QEqkAeHawuRsURejUcIibCKymSM31RjX6y8MmHdWZAuwRPkhBzl7pC3hhuDDDYG+2IVGi+9z2I/MX5FabioAFIUZTvALgj3zgZ5IadrE/tzEaZ992JgrNjFk0I2JBM41iNyb0grUJhM5PGwfZNh32bYtzbjGuFpAXyqTxBj4ZXsi36xuLNi/MbrKDoO7n/Cvs0If1luter4ZciNd+UQYa2EfTl+W834FaVhogJIUZTtA3sYWFIkPQzGBg8IzfEivGTlxMyrtWiyz9IiR8m8V8Ym92x3npFs9pFh3yR0TbAvPTTWn0YiRdgnX0qcxX54E7Qb2zcZ489mX1zAGi94qnj8EPd0q/ffZL//itIAUQGkKMp2wAIm9rVlkp+wZ0WqI7ljRMb5LIVEzo7xCsXyRQiCR2wlwfYzvVG0aovsBQ0je+rNbc2+zW4f1dm3QTQl7AcPTVAtQYht3X7MbVlxL4P9LN44YxCqc4d7qPJHacioAFIUZTtAeTQ2zN487weXC0/s3jViOUklTMYUDEp4TuSu8HL5e3Kur9l+wqEkKzOHkFxW+/wmCse9GCJx4uwjGPF9toa2mxfFFLlWkfAmUZPkuZIm2SYJHIqR2YToDOOHOEaFJTPt22BfURogKoAURdl+xCL4EiJXDjGRh2BXhncDSS9LYno2GQ36VVmh4CDYgJGCaWv2jRMcALiGj9wuI+GhEVWmQ/cNLDJzl2ywL6stJ36kdtwO9LBBvMgK08E+jUcorSr2DZ8bxi+uibyQhMg30lVgSgNGBZCiKPVOyNEVoSpCFvojZ4w4IfzovBtGeFnceUJcWAPecFQ0EPbvkqu96BobQj/+/ESzUlRYw4IkCJYM+yYODfnreDm/D7Ult/6oEuNDSE8mUUL2ETxKCfsUPgses4R9k2mfBxcGnBh/hutMURogKoAURal3KJRiYEN+D/0T+e0k5EamId6T8HIY3rDUC4QIMIjDNVyokP6DFwqufWOtW4JvxakRiRrLlzlnjvcWkeAh+xbB22OCuGD7slaRHwDVD+LxS/u007vounQmJe2TB6iG8UthFNH9t9nvv5GizlQZv6I0VFQAKYqyHXBeEWvEzuMwfgd3k5zUpYeIPBMRABNWkVGIxu3mQPky5IGB107CrcFbUQAmpp+D18TardjnCJJBWIlmvTcqwz6EfU7UscE+6Li3H1NrInTGHihbdfxA0n7m+IXbhsdvUdU+7Zdm5f0n4zY5fkVpoKgAUhRlOyDEBshj4l+FUElEXWxEUS83UcdBENDyb3Z0WLjwltyji9tJekRswq5/zZZTRKuuqH5PHAQFCSHOxyH7EPY5zCQ9QmHPLcqDYqFkQp+yjp//MxyiSuwLRrumSoEpRyW33oDJuP/+WOb5GgZTGjAqgBRF2T4YACIhmFe/y1CVjM94YcHF+fwEH0rTxGGCph3N2VTMP3FYiMM6UbBL9YVINFhakeXtg4oGcozJd4NEmwgdJSRHEBXh1QJUzFFoMitURrBvxfiTsbEwfhtuhh8byxuZ84PM8Xv7ifvv7Mkd5TUBWmnoqABSFGU7QBOy/zmhD6TLxiZOB4QDxU/MVub5cL6xm/wpP8f6rR2C3Ric4+PDRyHHRYaO5M/k5ZFuEJ+DxDWLQujM2Gz2SaSJfbfYvhyX70+VHB7hSfK7t1uZZ1Td+GMj2qQTbdX7T/az1GdS94/S0FEBpChKvdO8qAAhnmPYISGWYyHEcsKPPsvGOzqMaMNfQxuBwgsFWXSQPRjCLtu3SfvsJUqqALbPwswgoZGEwyjYt4CJMzYSjbLYtyLMlDl+4x083rOVGL+4ZZHw6Ej7kQ0bqVrj43jV2M86fne8aUEKitJQUQGkKEq9M2y/ncPkKrREgISAYR3gNIALGXFBQtY+wlPCESvDeTIyIEVJx1xWmpKQ5dMvc5d5Tq2x3qOTIRQy9Iq7ksJcvlii9+K4VfFejBhhP1G3iMYf8pjcirPYe3QgvDniXojq2UZ4pdiMNb7mT6Z9sRSe2sm8/wCG7tUGitJQUQGkKEq9c/UJfRGRIJFCiB0+fmKWoS+QB0Q0FANyx3VxZkgIpomctEqUOM3ZF7bZPoeGnAhyp1OYTfS5SjVlYd8NkFt19qXwM3JPUj4exh88MYnxG7BXKIyRrif7FObyniCZxO3FENtHbvavOqIbFKWhogJIUZR6Z7/ubXHp0XsAEDktIoQl81zCBp5+jpZPqSg4kow4lix+SMvaLTtegmfD+K0ffOs+sbmqfTrDcvTKfR6W8RvymnCOTcCSUKIwnlhRlcjp8WLF8qar0j6tcrOhUSPHb8T4ZVwOPtc6To4fwvOU8KhJ+8FRNuLATjikVysoSkNFBZCiKNuFP/30ABy0Wwf2foTihyHk5CZjBC9KFQEDXikVcpi9Z8MLDbnNhQFC+IxeeTsOA04OpktsNfZtUF4UYLPSYwTDISgjtEiwDz/uEALj8VuybwFEwj4JuCBO3Pi9fVkhmoopwgs02iojw4FWxb5wRVFOkDXAHp2a4a+n9a75l6ooOzAqgBRF2S4UFaQw4aojsM8ubfyeoclYjk38QO8otBQmbkQuNBQ27iT1ErvQDYfAbCIx2vhigiGX2IQcGiO0jBAJrvhg8CZxGI0EVwShcNyKr2Df23DKyiclZ9ijN6D7kWEfVLfIhgsiYT+hsMT4jbRvvH2wxyss/zfCvvuxa8smmHRRX7QqTlf7u1SUhoAKIEVRthvtWxTi1euHYmCv9giKQrhIpFfHkFeERAO7QGCpWrHIpGZBRds+0PYWFPphDwy1K/5LeIlEOCg0nvDKWGQshyf7ItzE20nQru/s8eH95P24aIk8CR9pX54X+ujGL+4X26d7YH1dxiCm2D6E5DEWYYm+RY+2hXjtV/uiZ/vibL8+RWlQGMt+VEVRlO3D5i2VuOLRdzH2ldkkFyDSiAXW591k/5RCXVwFmfN7vHfGuYvEK4QXxIeMjIFF5POGRbjJF0yEiWBs5JOZfTs+7BSW4Qv73CeE49QWAESREFQUpnIeHZu41l8QGZg4gvU5PQmhKFaVcZFF9pbRcSnwfF0irmpt+b4f2bsVHjt7D3RsUZDlN6YoDQ8VQIqifGdMfH8xLn1kOhau2iiOWhhEPpEZCMUGkxiuXOxFDIuXKIiPSAoaE8RLFM51jqIgiNxpKV802nt1jBc+QjyRcAkiyn9uhOiJZL/JPoJ9JNsJL1GGfS9sAOHFsezVcmMQMToSPSyQ4iCUYgspnJoWAL8/rhuuOKwLUon+KkrDRgWQoijfKRvLKnD785/i9kmfYuPmCpH9AyQ2CSUsfwgWFd7bY2jDUClWpDBhz4oJ57Joksd8W+wJyvAesQeJhBGcmIK076/l63witRdhwRaCfRoWeaQSNq3w5vgbwTfLeX+MDw8mPEPk7XFv3M+xRWSAU/dti/85cVd0b1uUy69KURoUKoAURflesHL9Ztwx6VPc99JslJRt8UeF54Peiw1P2TtCAgPw3hUpdkjcyKRgAymSjPGFC00kPgPYi0NeIytDawjnchjMuhBX4rhJihsjRJFvIwgnkZZpxDh4vCRugETuEuUjUYiLPw9eI4MY1ucGnbR3G9w4tCv237lZbX5VitIgUAGkKMr3irUby/Hga3Pwlxe/wMLVG0F5QBARsYRTyBgXMjIIgga+3g8dk2IEBiaikJUrz2jlRqsmEiExup4+j5JeGRZQkcjf8TlL0j4gOi3tu2Xr1ucF0Uotm1mZmTKlfAJ0EEEIx0UyOacLGVrmb1GcNjhz/3a4YnBn7N1Zk5wVRQWQoijfSyoqLSZ9uBgPvDoHkz9cgsrYJ/kmBJAUCM5L48SQDEsJzw97XwCucMhCQ3p/Mq4DgpCyUTLBWto3cPlDfCjy4iTTvk+o5mFkhutM0j7n8yD8DIRkZ+EJYpHoV3f17VSEC37YHmcd0A5tm+rSdkUhVAApivK9Z+naTXhy+gL8++35mDF3lTtIu72nKDQlSjYnwlsRuMZOBCdg5Kox6bkhTxLAq8M4vwiRr8kjkqyBREI12xbCiQUZgITw4n6SfX8uMu1bwEYu6ZnFThxCXhHCFiFeCHVqnsbp+7bBiP3aYEA3DXMpSjZUACmKskOxeE0pXvx4KV78ZCle/ngZ1mzcEgQOCZ9IhKEAXk3lQlU+V4c9Mt7bw+IIAJJenuCNoeTkIJwSAgfZ7IsQXkRizIa+wnuJ2L4N9rnKs2Unj0Ec2vBhwcgA/XcuxjG7N8cxe7TEgF2a6oouRakBFUCKouywxNbisyXr8Nacb/D2V6vw5pxV+OqbjV4bmJAQDYCXsrs3Ip8HCMnO8CLHXUMrskjUsIji9gBe1ZWZVwT4mj8hHBcg4WSDfdk37xEK9n1v/OktCw0O2rUZBnYrxqBdm+KHuzRFy6JUXd9eRWnQqABSFKVBsWZjOd7/ei1mfb0W73+9DrMWrsWcFRtdlAjeAyPCXknvUAhfuURqWiEmcnPovffYOOEDVFkZJkNhXNnaVPUWsUNIJlLDe5AMdmpVgH07F2G/LkXot1MR+nUpwm7tCqEOHkXZNlQAKYrS4NlYVoHPl5Vg3jcbMX9VKeatKsX81aWYt7IUi9aWoTz2mdUJcRL5QyKHqEqej1zSHjYktQnPj2+PhVcUjluDyBh0aFGA7m2aoEfbQn7drX0T9O1UhI7NNXFZUeoDFUCKojRqYmvxTUk5lq8vw7J1ZVhRUo6SzZXYWF6BjWUWpVsqsbG8EhvLYmyqiLGhLMbG8hil5TE2bnHVmIuaRCguSKO4SYTiJikUF6RQXBChaUHKf+beFxdEaNcsjU4tCtCpeQE6tUijU/MCFKbVnaMo2xsVQIqiKIqiNDp0N3hFURRFURodKoAURVEURWl0qABSFEVRFKXRoQJIURRFUZRGhwogRVEURVEaHSqAFEVRFEVpdKgAUhRFURSl0aECSFEURVGURocKIEVRFEVRGh0qgBRFURRFaXSoAFIURVEUpdGhAkhRlAbD9OnT8c9//hNLly6t9pxHHnkEU6dORRzHObf75Zdf4tlnn8WSJUvqopt58cwzz+Dmm2/GBx98sN1tK0pDRjdDVRRlh+XWW2/Fv/71L0yZMgWdO3fGyJEjcf/992PSpEk47rjjcM899+CBBx7AI488gv322w/r169Hq1atkEqlUFpaiiZNmuRk57zzzsNDDz2Exx9/HKeffjoA4KuvvsLkyZPz6u8+++yDIUOG5HXNiSeeiIkTJ2LQoEF4880387pWUZTqSX/XHVAURaktxcXF+Oyzz/CnP/0JkRWoYAAACy1JREFUY8aMSXy2fPly3HDDDUin0+jWrRsA4JNPPgEA9OjRI2fxUx2zZs3Cr371q7yuufjii6sIoPfffx/r1q2r9prhw4dj4sSJeOutt/CXv/wFffv23aqNQw45BOm0PtoVpSb0/yWKouywXHzxxbjjjjswduxY/O53v0t8dvXVV2P9+vX429/+hnbt2gEAPv74YwDAHnvsUWd92HvvvXHuuedu9Zx33nkH48ePz/rZZZddlrNn57LLLqvxnDVr1qBNmzY5tacojRkVQIqi7LAUFRXhpptuwlNPPYWSkpLEZ506dcLgwYNx4YUX8jESQG+99RaOP/74Ku117NgRDz/8cF59GDBgAH77299u9Zxx48ZVK4CI/v37o0OHDnnZzkZBQcE2t6EojQEVQIqi7JC8++67iRDUmWeeiXnz5gFwnhISEwcffDCOP/543HjjjSyA1q5dmzV/Z9ddd+Wfx40bh/vuuw8A8MUXXwAAbrzxRtx1110YNmwYevfuDQBYv349vvzyy632ddmyZTWOZ9SoUTjuuOOqHB8+fDjKyspw2223Yc8996yxHUVRckMFkKIoOySbNm3CO++8k/WzuXPnYu7cufy+e/fuiOOYBdCkSZM4THT99dfjlVdewd13341DDz2Ur5k/f36V9ufMmYM5c+agZ8+eLIDGjx9fo3entixcuBDjx49HOp3GI488Ui82FKWxogJIUZQdksGDB6OiogIAcMstt+Dmm2/mz3r06IHRo0dj+PDhMMbAGIMpU6Zg7dq1KCwsxNChQ5FKpQAATZs2BQAceeSR6NOnD7fxy1/+EmeccQYA4LrrrsP48eMxZswYHH/88WjZsiXeeOMNAEC3bt2w//77J/o2ceJEVFRU4Pjjj08kW++7775bHdP999+PWbNm8fs5c+bAWoumTZviuuuuq/Ge3HvvvYgirW6iKLmgAkhRlB2WVCqFp556Cr///e8xcOBA9OnTBw8++CAWLVqEM844A4MGDcLtt9+OgQMHcm5PWVkZZs6ciQEDBgAI4SlaKUa0a9eOk6dbtWoFAOjSpUuVBOojjjgCDz30UOLYrrvuioULF2LcuHHcRi689NJLePrpp6scX7duHcaOHVvj9X/9619ztqUojR0VQIqi7JCUlZXhmmuuwd13342mTZvi/vvvxz333AMA+Pe//43nnnsOjz76KA4++GDMmDEjEaaaMmUKC6ClS5eiVatWaNGiRV72S0tLAQDGmG0ahyzFds899+Daa68F4LxBY8eORY8ePbKKomyQV0tRlJpRAaQoyg7JJZdcgn/84x/o1KkTJkyYkKiP06xZM4wbNw6HH344vvjiC3zwwQfYtGkT2rVrh9WrV2PKlCm49tprsXnzZqxcuRJ77713znYXLVqEuXPnsufo6aefxpw5cxLnrFixAgBwzDHHoLi4mI8bYzBu3Dh0796dj5WVlQFwq7c6d+6Mzp07Y82aNSx6Ro0axSG2AQMGYMWKFZg+fTo6d+6cz+1SFCUDFUCKouyQXHTRRZg+fTomTpyI7t27Y8OGDejQoQNOOukkdOnSBQDw85//HABwyimnAHAeljvuuANvvPEGVq9ejZkzZ6KysjKx+mtrjB49Gp9//jlGjhzJx0pKSjBt2rSs58+cObPKsZUrVyYE0MaNGwEALVu25GPXX389Vq9ejT59+mDEiBF8fMmSJVi6dCkqKytz6q+iKNWjAkhRlB2S/v37c2VnwG2LMXr0aFxzzTVVko1vueUWLFiwAKeddhrmz5+PmTNn4tFHH8XixYsBuATobMyfPx8TJkzA1KlTAQAffvghWrRogQMPPBATJkwA4ESRrDUEAP369cPixYsxe/ZstG3bNvEZ5RMRGzZsAAAOwc2cORP3338/91uTmhWlflABpCjKDsmsWbNwww038Pu3334bADB58mR89NFHiXPvu+8+vPvuu4iiCKeeeipuuOEGPPjgg7xCbPjw4VXaP/bYY/HCCy8kjp1//vm47bbb0KZNGzzwwAMAgP33379KojOJlrZt29aYBE3bYJAH6Pnnn+eNWk899dREjtGWLVsAuGX9mblHo0ePxlVXXbVVW4qiBFQAKYqyQzJv3rysxQw/+uijKgKopKSERUnv3r0xdOhQFjeDBg3CzjvvXKWd9u3bo7i4GCeeeCLmz5+Pd999F0cffTTXD6IcoL322gtvv/025/IAwObNmwEAr732GgugdDqNQw45JGFjzZo1KCkpQSqVQseOHQEAhx12GHr16pV1zAsWLEBlZSW6du1aZb8vGUJTFKVmdDd4RVF2SMrLy1FSUoLy8nL84Ac/wKpVqzB58mT0798fgNut/aCDDkKXLl0wb948FBYW8rX/+c9/uOrynXfeiSuuuKJK+4sXL0br1q3RvHnzrLvBN2vWDMYYlJSUoFu3bhxO2xqLFy9G165d+f3MmTNx4IEHokePHlzFemt07doVS5curdKOoij5ox4gRVF2SJo0aYJ27drh7rvvxqpVq3DyySfj2GOPBeBCRbSc/De/+U1C/ACuUCKRmaNDZPMKEbNmzUJpaSkOOOCARCjq8ssvz3r+E088geXLl1c5Pnv2bADAbrvtVq0tRVHqBxVAiqLssJSUlOC///u/ATgxMXbsWPzkJz/BhRdeiFdffRX77bcfLrroosQ1FRUVOPvss/n9lVdeiaOOOopXjuXCY489BsCFvyR33XVX1vNnzJiRVQDRLvB77bUX7rvvvhq31Fi6dCkA4Kc//WkVUUfceuut7AVTFKV6VAApirLDUlxcjHvvvRdjx47Fq6++iosuuogFT+vWrTFhwoREHR4A+MMf/oAZM2Zgl112QZ8+ffCf//wH55xzDl588cWcihrGcYzHH38cADBs2LBt6j9tpzF48GBMmzYNL7/8cl7XZePKK6/cpj4pSmNBBZCiKDss6XQap512Gg499FBcfPHF+L//+z/+7Ntvv8XIkSNx0003cdXnMWPGYNSoUUin03j88cfRp08f9OvXDy+//DIuvPBCjB07tsZqylOnTsWSJUvQunVrnHTSSYnPqABiJlTrR7JgwQJ8/PHHMMZg8ODBGDJkSGJ3+2wcdNBBWLlyJaZOnVptiE4LJCpKbqgAUhRlh2TDhg2YPHkynnnmGTz77LMoKytDKpXCeeedh+7du2PMmDF4/vnn8fzzz+OCCy5A8+bNOUT1xz/+EYMGDQLgwllDhgzB3//+dyxbtgxPPvkkmjVrhtLSUsyePRupVIqX2BcWFnL464wzzkBRUVGiTzWJD7nm5KGHHoK1FgcccAA6dOgAADUumaeVXz179tQkaEXZRlQAKYqyQ3LCCSdwgcKCggKcc845uP7669G7d28AwGWXXYY777wTd955J7p3744bbrgBURThz3/+My699FJuZ+DAgZg0aRJ+/OMfY9KkSXjggQdwxRVXYMaMGTj88MP5vIKCAgwZMgTXXHMNAODcc8+t0qehQ4dm7ev06dOxbt26RIjtrbfeAuBqCymKsv3RZfCKouyQvP766xg9ejROPfVU/OQnP+H6PJls2bIFBQUFGDlyJI477jicfPLJWc+bNWsWrr76akycOBFFRUXYsGEDzjrrLABAhw4d8LOf/QxDhgzBF198gauvvhrPPfccX3vggQdi2bJlWLJkSda2f/SjH+G9997DzJkzsdNOOwEAVq1ahREjRuDJJ5+sUh26Ovr27Yvly5fj448/5nYURakdKoAURVEURWl06CYziqIoiqI0OlQAKYqiKIrS6FABpCiKoihKo0MFkKIoiqIojQ4VQIqiKIqiNDpUACmKoiiK0uj4f/JXqoPq0wzpAAAAAElFTkSuQmCC;imageBorder=default;sketch=1;" parent="1" vertex="1">
                    <mxGeometry x="267.58000000000004" y="1380" width="262.42" height="318" as="geometry"/>
                </mxCell>
                <mxCell id="126" style="edgeStyle=none;rounded=0;html=1;exitX=1;exitY=0.5;exitDx=0;exitDy=0;entryX=0;entryY=0.5;entryDx=0;entryDy=0;strokeColor=#000000;" parent="1" source="125" target="109" edge="1">
                    <mxGeometry relative="1" as="geometry"/>
                </mxCell>
                <mxCell id="127" style="edgeStyle=none;rounded=0;html=1;exitX=1;exitY=0.5;exitDx=0;exitDy=0;entryX=0;entryY=0.5;entryDx=0;entryDy=0;strokeColor=#000000;" parent="1" source="125" target="111" edge="1">
                    <mxGeometry relative="1" as="geometry"/>
                </mxCell>
                <mxCell id="125" value="解决方案" style="rounded=0;whiteSpace=wrap;html=1;fillColor=#ffe6cc;strokeColor=#d79b00;" parent="1" vertex="1">
                    <mxGeometry x="50" y="1190" width="70" height="30" as="geometry"/>
                </mxCell>
                <mxCell id="129" style="edgeStyle=none;html=1;exitX=1;exitY=0.5;exitDx=0;exitDy=0;entryX=0;entryY=0.5;entryDx=0;entryDy=0;" parent="1" source="130" target="131" edge="1">
                    <mxGeometry relative="1" as="geometry"/>
                </mxCell>
                <mxCell id="130" value="校验请求参数" style="rounded=0;whiteSpace=wrap;html=1;fillColor=#dae8fc;strokeColor=#6c8ebf;" parent="1" vertex="1">
                    <mxGeometry x="150" y="1720" width="90" height="30" as="geometry"/>
                </mxCell>
                <mxCell id="131" value="在接口的入口事先校验传入的参数是否合法" style="rounded=0;whiteSpace=wrap;html=1;fillColor=#e1d5e7;strokeColor=#9673a6;" parent="1" vertex="1">
                    <mxGeometry x="280" y="1720" width="270" height="30" as="geometry"/>
                </mxCell>
                <mxCell id="133" value="缓存空值或者默认值" style="rounded=0;whiteSpace=wrap;html=1;fillColor=#dae8fc;strokeColor=#6c8ebf;" parent="1" vertex="1">
                    <mxGeometry x="150" y="1770" width="120" height="30" as="geometry"/>
                </mxCell>
                <mxCell id="134" style="edgeStyle=none;html=1;exitX=1;exitY=0.5;exitDx=0;exitDy=0;entryX=0;entryY=0.5;entryDx=0;entryDy=0;" parent="1" source="133" target="135" edge="1">
                    <mxGeometry relative="1" as="geometry">
                        <mxPoint x="240" y="1765" as="sourcePoint"/>
                    </mxGeometry>
                </mxCell>
                <mxCell id="135" value="当查询数据库发现该数据不存在时，将这个请求相关的数据&lt;b&gt;设置空值存储在缓存中&lt;/b&gt;" style="rounded=0;whiteSpace=wrap;html=1;fillColor=#e1d5e7;strokeColor=#9673a6;" parent="1" vertex="1">
                    <mxGeometry x="300" y="1765" width="220" height="40" as="geometry"/>
                </mxCell>
                <mxCell id="137" style="edgeStyle=none;rounded=0;html=1;exitX=1;exitY=0.5;exitDx=0;exitDy=0;entryX=0;entryY=0.5;entryDx=0;entryDy=0;strokeColor=#000000;" parent="1" source="139" target="130" edge="1">
                    <mxGeometry relative="1" as="geometry"/>
                </mxCell>
                <mxCell id="138" style="edgeStyle=none;rounded=0;html=1;exitX=1;exitY=0.5;exitDx=0;exitDy=0;entryX=0;entryY=0.5;entryDx=0;entryDy=0;strokeColor=#000000;" parent="1" source="139" target="133" edge="1">
                    <mxGeometry relative="1" as="geometry"/>
                </mxCell>
                <mxCell id="141" style="edgeStyle=none;rounded=0;html=1;exitX=1;exitY=0.5;exitDx=0;exitDy=0;entryX=0;entryY=0.5;entryDx=0;entryDy=0;strokeColor=#000000;" parent="1" source="139" target="140" edge="1">
                    <mxGeometry relative="1" as="geometry"/>
                </mxCell>
                <mxCell id="139" value="解决方案" style="rounded=0;whiteSpace=wrap;html=1;fillColor=#ffe6cc;strokeColor=#d79b00;" parent="1" vertex="1">
                    <mxGeometry x="40" y="1770" width="70" height="30" as="geometry"/>
                </mxCell>
                <mxCell id="143" value="" style="edgeStyle=none;rounded=0;html=1;strokeColor=#000000;" parent="1" source="140" target="142" edge="1">
                    <mxGeometry relative="1" as="geometry"/>
                </mxCell>
                <mxCell id="140" value="布隆过滤器" style="rounded=0;whiteSpace=wrap;html=1;fillColor=#dae8fc;strokeColor=#6c8ebf;" parent="1" vertex="1">
                    <mxGeometry x="150" y="1820" width="80" height="30" as="geometry"/>
                </mxCell>
                <mxCell id="142" value="使用&lt;b&gt;布隆过滤器&lt;/b&gt;快速判断数据是否一定不存在于数据库中" style="rounded=0;whiteSpace=wrap;html=1;fillColor=#e1d5e7;strokeColor=#9673a6;" parent="1" vertex="1">
                    <mxGeometry x="280" y="1817.5" width="320" height="35" as="geometry"/>
                </mxCell>
                <mxCell id="144" value="&lt;font style=&quot;font-size: 12px&quot;&gt;例如10086这个id的用户不存在，则将(10086, null)存储到redis缓存中&lt;/font&gt;" style="rounded=0;whiteSpace=wrap;html=1;fillColor=none;strokeColor=none;fontColor=#A87ED8;align=left;" parent="1" vertex="1">
                    <mxGeometry x="545" y="1765" width="240" height="40" as="geometry"/>
                </mxCell>
                <mxCell id="145" style="edgeStyle=none;rounded=0;html=1;entryX=0.5;entryY=0;entryDx=0;entryDy=0;strokeColor=#000000;" parent="1" edge="1">
                    <mxGeometry relative="1" as="geometry">
                        <mxPoint x="190.35" y="1960.5" as="sourcePoint"/>
                        <mxPoint x="259.65999999999997" y="1960" as="targetPoint"/>
                    </mxGeometry>
                </mxCell>
                <mxCell id="146" value="新增&lt;br&gt;数据" style="edgeLabel;html=1;align=center;verticalAlign=middle;resizable=0;points=[];" parent="145" vertex="1" connectable="0">
                    <mxGeometry x="0.4404" y="-2" relative="1" as="geometry">
                        <mxPoint x="-15" y="-2" as="offset"/>
                    </mxGeometry>
                </mxCell>
                <mxCell id="157" value="" style="edgeStyle=none;rounded=0;html=1;strokeColor=#000000;" parent="1" source="147" target="156" edge="1">
                    <mxGeometry relative="1" as="geometry"/>
                </mxCell>
                <mxCell id="160" value="可能&lt;br&gt;存在" style="edgeLabel;html=1;align=center;verticalAlign=middle;resizable=0;points=[];" parent="157" vertex="1" connectable="0">
                    <mxGeometry x="-0.452" relative="1" as="geometry">
                        <mxPoint y="10" as="offset"/>
                    </mxGeometry>
                </mxCell>
                <mxCell id="165" style="edgeStyle=orthogonalEdgeStyle;rounded=0;html=1;exitX=1;exitY=0;exitDx=0;exitDy=0;exitPerimeter=0;entryX=0;entryY=0.5;entryDx=0;entryDy=0;strokeColor=#000000;" parent="1" source="147" target="163" edge="1">
                    <mxGeometry relative="1" as="geometry"/>
                </mxCell>
                <mxCell id="166" value="一定&lt;br&gt;不存在" style="edgeLabel;html=1;align=center;verticalAlign=middle;resizable=0;points=[];" parent="165" vertex="1" connectable="0">
                    <mxGeometry x="-0.253" y="-1" relative="1" as="geometry">
                        <mxPoint x="16" y="-1" as="offset"/>
                    </mxGeometry>
                </mxCell>
                <mxCell id="147" value="" style="sketch=0;aspect=fixed;pointerEvents=1;shadow=0;dashed=0;html=1;strokeColor=default;labelPosition=center;verticalLabelPosition=bottom;verticalAlign=top;align=center;fillColor=#FFFFFF;shape=mxgraph.mscae.enterprise.filter" parent="1" vertex="1">
                    <mxGeometry x="268.78999999999996" y="1940" width="50" height="45" as="geometry"/>
                </mxCell>
                <mxCell id="148" value="&lt;font style=&quot;font-size: 12px&quot;&gt;每添加一条数据，则更新布隆过滤器的值&lt;/font&gt;" style="rounded=0;whiteSpace=wrap;html=1;fillColor=none;strokeColor=none;fontColor=#A87ED8;align=left;" parent="1" vertex="1">
                    <mxGeometry x="157.57999999999998" y="1980" width="111.21" height="45" as="geometry"/>
                </mxCell>
                <mxCell id="150" value="布隆过滤器&lt;br&gt;（白名单）" style="text;html=1;strokeColor=none;fillColor=none;align=center;verticalAlign=middle;whiteSpace=wrap;rounded=0;" parent="1" vertex="1">
                    <mxGeometry x="300" y="1955" width="70" height="30" as="geometry"/>
                </mxCell>
                <mxCell id="151" value="&lt;span&gt;可以使用redis中的位图bitmap实现&lt;br&gt;也可以使用guava中的工具类直接使用&lt;br&gt;&lt;/span&gt;" style="rounded=0;whiteSpace=wrap;html=1;fillColor=none;strokeColor=none;fontColor=#A87ED8;align=left;" parent="1" vertex="1">
                    <mxGeometry x="370" y="1940" width="110" height="57.5" as="geometry"/>
                </mxCell>
                <mxCell id="153" style="edgeStyle=none;rounded=0;html=1;entryX=0.5;entryY=0;entryDx=0;entryDy=0;strokeColor=#000000;entryPerimeter=0;" parent="1" target="147" edge="1">
                    <mxGeometry relative="1" as="geometry">
                        <mxPoint x="294" y="1880" as="sourcePoint"/>
                        <mxPoint x="269.6600000000001" y="1970" as="targetPoint"/>
                    </mxGeometry>
                </mxCell>
                <mxCell id="154" value="查询&lt;br&gt;请求" style="edgeLabel;html=1;align=center;verticalAlign=middle;resizable=0;points=[];" parent="153" vertex="1" connectable="0">
                    <mxGeometry x="0.4404" y="-2" relative="1" as="geometry">
                        <mxPoint x="2" y="-13" as="offset"/>
                    </mxGeometry>
                </mxCell>
                <mxCell id="159" value="" style="edgeStyle=none;rounded=0;html=1;strokeColor=#000000;" parent="1" source="156" target="158" edge="1">
                    <mxGeometry relative="1" as="geometry"/>
                </mxCell>
                <mxCell id="156" value="" style="sketch=0;aspect=fixed;html=1;points=[];align=center;image;fontSize=12;image=img/lib/mscae/Cache_Redis_Product.svg;strokeColor=default;fillColor=#FFFFFF;" parent="1" vertex="1">
                    <mxGeometry x="268.79" y="2040" width="50" height="42" as="geometry"/>
                </mxCell>
                <mxCell id="158" value="" style="outlineConnect=0;dashed=0;verticalLabelPosition=bottom;verticalAlign=top;align=center;html=1;shape=mxgraph.aws3.mysql_db_instance;fillColor=#2E73B8;gradientColor=none;strokeColor=default;" parent="1" vertex="1">
                    <mxGeometry x="263.79" y="2110" width="60" height="64.5" as="geometry"/>
                </mxCell>
                <mxCell id="163" value="返回" style="rounded=0;whiteSpace=wrap;html=1;" parent="1" vertex="1">
                    <mxGeometry x="385" y="1910" width="65" height="20" as="geometry"/>
                </mxCell>
                <mxCell id="168" value="&lt;font style=&quot;font-size: 12px&quot;&gt;参考资料：https://xiaolincoding.com/redis/cluster/cache_problem.html&lt;/font&gt;" style="rounded=0;whiteSpace=wrap;html=1;fillColor=none;strokeColor=none;fontColor=#A87ED8;align=left;" parent="1" vertex="1">
                    <mxGeometry x="510" y="30" width="310" height="35" as="geometry"/>
                </mxCell>
            </root>
        </mxGraphModel>
    </diagram>
</mxfile>